<?xml version="1.0" standalone="no"?>
<!DOCTYPE svg PUBLIC "-//W3C//DTD SVG 1.1//EN" "http://www.w3.org/Graphics/SVG/1.1/DTD/svg11.dtd" >
<svg xmlns="http://www.w3.org/2000/svg">
<metadata>
This is a custom SVG webfont generated by Font Squirrel.
Copyright   : URWCopyright 2000 by URW Design  Development
</metadata>
<defs>
<font id="GaramondNo8Regular" horiz-adv-x="982" vert-adv-y="2048" >
<font-face units-per-em="2048" ascent="1510" descent="-538" />
<missing-glyph horiz-adv-x="529" />
<glyph unicode=" "  horiz-adv-x="529" />
<glyph unicode="&#x09;" horiz-adv-x="529" />
<glyph unicode="&#xa0;" horiz-adv-x="529" />
<glyph unicode="!" horiz-adv-x="529" vert-adv-y="2457" d="M138 1267q0 66 36 104q35 38 94 38t95 -38q35 -37 35 -107q0 -22 -9 -95l-99 -775h-44l-99 775q-9 73 -9 98zM146 103q0 52 30 86q35 40 96 40q53 0 87 -32q36 -33 36 -90q0 -63 -38 -97q-34 -30 -91 -30q-56 0 -86 31q-34 34 -34 92z" />
<glyph unicode="&#x22;" horiz-adv-x="868" vert-adv-y="2457" d="M187 1347q0 40 29 68q27 27 68 27t69 -28q23 -24 23 -67q0 -27 -4 -57l-45 -317q-7 -45 -12 -54q-5 -7 -15 -7h-27h-1q-22 0 -27 34l-47 306q-11 75 -11 95zM488 1347q0 41 29 68q28 27 68 27q42 0 70 -28q23 -24 23 -68q0 -22 -5 -56l-45 -317q-6 -45 -12 -54 q-5 -7 -15 -7h-27h-1q-21 0 -26 34l-47 306q-12 75 -12 95z" />
<glyph unicode="#" vert-adv-y="2457" d="M43 464q0 6 3 17l23 73q8 26 37 27h130l59 194h-128q-21 0 -21 17q0 8 2 14l24 79q11 29 37 27h128l133 442l3 12q5 18 21 18h59q14 0 14 -13q0 -3 -7 -28l-132 -431h260l138 442q7 24 11 27q3 3 16 3h48q16 0 15 -12q0 -5 -4 -18l-136 -442h109q42 0 42 -14q0 -6 -2 -13 l-25 -79q-7 -22 -18 -28q-7 -3 -29 -3h-119l-60 -194h119q31 0 31 -13q0 -6 -5 -23l-25 -77q-6 -20 -19 -19l-10 1h-130l-139 -459q-6 -21 -28 -21h-49q-14 0 -14 16q0 6 1 11l141 453h-259l-139 -459q-5 -20 -25 -21h-51q-18 0 -17 12q0 7 3 17l137 451h-130q-23 0 -23 14z M328 581h258l60 194h-259z" />
<glyph unicode="$" vert-adv-y="2457" d="M104 220q0 27 17 48q22 27 56 27q45 0 97 -68q67 -88 102 -111q29 -18 76 -27v557q-115 56 -178 100q-146 102 -146 259q0 137 105 239q84 81 219 110v105q0 20 4 22q4 5 14 5h3h36q10 0 15 -4q6 -4 6 -26v-102q118 -8 197 -52q125 -69 125 -158q0 -40 -25 -65 q-20 -19 -44 -19q-27 0 -54 22q-16 14 -63 81q-66 91 -136 102v-455l51 -28q158 -86 211 -148q83 -95 83 -229q0 -198 -171 -323q-73 -53 -174 -82v-107q0 -25 -21 -26h-31q-25 1 -26 26v107q-142 3 -235 63q-75 49 -101 110q-12 28 -12 47zM290 1075q0 -144 162 -229v419 q-55 -11 -88 -35q-74 -54 -74 -155zM530 89q57 10 94 41q89 77 89 206q0 125 -91 207q-30 28 -92 62v-516z" />
<glyph unicode="%" horiz-adv-x="1662" vert-adv-y="2457" d="M74 985q0 133 73 235q97 134 258 134q128 0 222 -103q97 -107 97 -262q0 -137 -80 -239q-97 -122 -250 -122q-138 0 -229 103q-91 104 -91 254zM238 1008q0 -189 74 -278q31 -38 85 -38q57 0 92 43q71 87 71 251q0 175 -64 259q-34 45 -97 45q-50 0 -83 -33 q-78 -80 -78 -249zM463 -13q0 6 6 19l609 1322q9 20 22 25q4 1 19 1h45q27 0 26 -13q0 -5 -6 -16l-604 -1318q-13 -28 -18.5 -32.5t-25.5 -4.5h-47q-26 0 -26 17zM930 327q0 133 73 234q98 135 258 135q128 0 222 -103q97 -108 97 -262q0 -138 -80 -239q-97 -122 -250 -122 q-138 0 -229 103q-91 104 -91 254zM1094 350q0 -189 74 -278q31 -38 85 -38q57 0 92 43q71 87 71 252q0 173 -65 258q-34 45 -96 45q-49 0 -83 -34q-78 -80 -78 -248z" />
<glyph unicode="&#x26;" horiz-adv-x="1699" vert-adv-y="2457" d="M97 381q0 143 76 230q63 72 268 202l-28 25q-73 65 -111 117q-41 57 -41 135q0 107 83 192q89 91 221 91q120 0 201 -73q79 -72 79 -171q0 -101 -93 -174q-32 -25 -119 -83q170 -114 235 -178q70 -66 155 -186q216 275 216 390q0 87 -120 92q-33 2 -39 8q-3 4 -3 19v19 q0 19 19 19q17 0 52 -4q15 -2 90 -7q79 -5 97 -5h5l105 6q116 6 126 6q23 0 23 -23v-15q0 -14 -2 -18q-4 -7 -30 -9q-80 -6 -118 -31q-31 -20 -56 -52q-34 -43 -90 -125q-58 -84 -225 -310l-14 -19q81 -150 136 -222q35 -47 92 -79q50 -28 102 -28q55 0 117 30q60 28 92 68 q17 21 29 21q10 0 19 -6q13 -7 13 -19q0 -18 -48 -75q-58 -70 -143 -110q-82 -40 -168 -40q-90 0 -173 44q-51 27 -75 71q-6 12 -63 139q-11 25 -32 69q-97 -119 -159 -183q-135 -138 -302 -138q-187 0 -303 129q-96 107 -96 261zM264 444q0 -122 92 -209q43 -41 98 -65 q61 -27 108 -27q133 0 287 155l71 76q-101 195 -434 407q-77 -51 -119 -95q-103 -108 -103 -242zM400 1159q0 -50 41 -115q41 -66 100 -112q44 -33 47 -31l15 12q103 83 103 203q0 74 -30 128q-33 61 -114 61q-67 0 -113 -42q-49 -45 -49 -104z" />
<glyph unicode="'" horiz-adv-x="566" vert-adv-y="2457" d="M187 1347q0 40 29 68q27 27 68 27t69 -28q23 -24 23 -67q0 -27 -4 -57l-45 -317q-7 -45 -12 -54q-5 -7 -15 -7h-27h-1q-22 0 -27 34l-47 306q-11 75 -11 95z" />
<glyph unicode="(" horiz-adv-x="604" vert-adv-y="2457" d="M155 493q0 199 74 416q77 227 206 381q100 118 145 154q17 14 20 17q10 10 14 10q2 0 14 -13l19 -24q14 -16 14 -19q0 -5 -29 -35q-144 -145 -229 -340q-109 -250 -109 -517q0 -278 101 -548q43 -116 120 -232q63 -95 100 -122q27 -20 27 -26q0 -5 -12 -21l-17 -21 q-10 -13 -16 -13q-8 0 -51 38q-105 91 -197 242q-100 162 -150 354q-44 167 -44 319z" />
<glyph unicode=")" horiz-adv-x="604" vert-adv-y="2457" d="M13 -403q0 4 29 34q145 148 229 340q110 249 110 517q0 278 -101 548q-43 115 -121 233q-63 95 -100 122q-27 19 -27 25q0 5 13 20l17 22q9 13 15 13q8 0 52 -38q175 -152 286 -416q105 -249 105 -499q0 -199 -74 -416q-77 -227 -207 -381q-101 -120 -145 -154 q-16 -13 -20 -17q-10 -10 -13 -10t-14 13l-20 24q-14 17 -14 20z" />
<glyph unicode="*" vert-adv-y="2457" d="M141 865q0 40 58 60q117 39 227 57l17 -33q-32 -39 -89 -94q-48 -46 -84 -74q-27 -22 -52 -22q-26 0 -51 35q-26 37 -26 71zM178 1235q0 29 33 64q32 33 63 33q20 0 43 -22q27 -27 101 -147q25 -42 39 -69l-27 -26q-65 25 -176 89q-76 44 -76 78zM505 714q0 125 16 226 l37 5q24 -37 62 -114q52 -107 52 -140q0 -24 -17 -38q-29 -25 -80 -25q-26 0 -43 10q-27 17 -27 76zM509 1128q7 119 41 238q15 56 57 56q50 0 90 -41q18 -17 17 -36q-1 -29 -49 -90q-77 -100 -123 -145zM582 1022l6 37q33 8 84 16q114 18 160 18q71 0 71 -70q0 -50 -23 -77 q-15 -18 -41 -18q-33 0 -145 45q-77 31 -112 49z" />
<glyph unicode="+" horiz-adv-x="1662" vert-adv-y="2457" d="M306 461v83q1 24 24 24h434v430q0 26 22 28h86q22 -1 22 -28v-430h434q23 0 24 -24v-83q-1 -23 -24 -24h-434v-430q-1 -27 -22 -27h-86q-22 1 -22 27v430h-434q-23 1 -24 24z" />
<glyph unicode="," horiz-adv-x="529" vert-adv-y="2457" d="M116 -293q0 9 49 34q46 24 94 73q47 46 47 103q0 45 -31 70q-8 6 -83 36q-72 29 -72 103q0 49 36 84q33 31 79 31q68 0 124 -63q59 -68 59 -167q0 -185 -151 -292q-93 -65 -116 -65q-11 0 -18 12l-13 25q-4 8 -4 16z" />
<glyph unicode="-" horiz-adv-x="529" vert-adv-y="2457" d="M35 422v93q0 16 5 21q3 5 30 5h375q28 0 30 -5q5 -5 5 -21v-93q0 -16 -5 -21q-2 -5 -30 -5h-375q-27 0 -30 5q-5 5 -5 21z" />
<glyph unicode="." horiz-adv-x="529" vert-adv-y="2457" d="M144 103q0 52 30 86q35 40 96 40q53 0 88 -32q35 -33 35 -90q0 -63 -38 -97q-34 -30 -91 -30q-55 0 -86 31q-34 34 -34 92z" />
<glyph unicode="/" vert-adv-y="2457" d="M43 -24q0 8 10 29l739 1539q9 20 14 24q6 6 36 6h65q19 0 19 -11q0 -14 -10 -36l-734 -1523q-14 -30 -20.5 -35.5t-26.5 -5.5h-62q-30 0 -30 13z" />
<glyph unicode="0" vert-adv-y="2457" d="M77 706q0 307 106 492q104 181 306 181q197 0 303 -173q116 -190 116 -521q0 -300 -85 -487q-94 -209 -315 -209q-150 0 -252 97q-179 171 -179 620zM168 716q0 -228 82 -385q42 -79 112 -125q56 -37 129 -37q104 0 187 79q74 71 112 217q27 106 27 218q0 216 -90 368 q-88 148 -252 148q-105 0 -179 -66q-75 -66 -107 -210q-21 -97 -21 -207z" />
<glyph unicode="1" vert-adv-y="2457" d="M208 1080q0 9 37 30q154 89 320 253l72 -9q-4 -102 -7 -158q-7 -152 -8 -202v-737q0 -110 5 -128q11 -41 45 -60q29 -16 112 -23q28 -2 32 -5q3 -2 3 -12v-20q0 -20 -16 -20h-2l-31 2l-103 2l-130 7l-131 -7l-83 -2q-38 -2 -41 -2q-19 0 -19 19v22q1 14 18 16 q110 12 137 34q25 19 32 67q4 19 4 113v842q-1 52 -3 55q-3 5 -7 5t-34 -20l-138 -88q-28 -18 -32 -18q-7 0 -16 16l-8 12q-8 14 -8 16z" />
<glyph unicode="2" vert-adv-y="2457" d="M48 46q28 46 82 100q181 175 284 293q249 288 249 526q0 97 -43 169q-27 45 -76 70q-42 21 -88 21q-112 0 -206 -90q-20 -18 -77 -93q-16 -20 -22 -20q-7 0 -14 5l-15 11q-13 10 -13 18q0 13 30 59q64 97 158 171q118 93 256 93q151 0 234 -102q38 -47 60 -117 q20 -65 20 -118q0 -181 -181 -416q-101 -132 -310 -332q-92 -88 -127 -124q31 -3 52 -3q6 0 78 2l469 14h55q11 0 11 -9q0 -3 -11 -24l-50 -109q-14 -31 -30 -45q-9 -7 -29 -7q-26 0 -83 4q-126 8 -282 8q-41 0 -147 -4q-126 -5 -163 -5h-68z" />
<glyph unicode="3" vert-adv-y="2457" d="M78 108q0 30 19 50q24 26 64 26q43 0 125 -65q38 -29 76 -29q77 0 162 56q73 49 108 138q28 73 28 154q0 106 -47 184q-58 95 -176 95q-47 0 -77 -15l-27 38q247 208 247 331q0 69 -63 118q-62 47 -142 47q-109 0 -213 -112l-41 29q110 226 344 226q112 0 187 -57 q83 -62 83 -158t-83 -201q-26 -33 -79 -87q80 -20 135 -66q53 -44 87 -105q46 -85 46 -179q0 -140 -95 -279q-97 -141 -238 -210q-100 -48 -213 -48q-109 0 -171 38q-46 28 -46 81z" />
<glyph unicode="4" vert-adv-y="2457" d="M43 461q0 26 62 115l553 786h41q23 0 27 -4q7 -6 7 -29l-25 -517v-241h156q39 0 45 -9q11 -16 11 -52q0 -50 -10 -64q-6 -9 -46 -9h-156v-412q-1 -30 -3.5 -33t-24.5 -3h-100q-25 0 -31 4q-8 5 -8 18q0 3 1 14q0 4 1 21q0 36 2 74q6 148 6 161v161h-76q-252 -1 -386 -21 q-15 -2 -23 -2q-23 0 -23 42zM224 593q0 -9 7 -15q9 -7 65 -7h255l4 536q-33 -37 -146 -209l-96 -148q-89 -138 -89 -157z" />
<glyph unicode="5" vert-adv-y="2457" d="M89 113q0 35 28 57q29 22 61 22q28 0 57 -20q6 -4 42 -33q61 -49 124 -49q113 0 198 93q95 105 95 254q0 129 -73 220q-75 94 -228 94q-109 0 -199 -62l-34 16l69 562q9 68 17 91h544l-27 -71q-26 -66 -44 -78q-19 -13 -96 -13h-235q-69 0 -81 -11q-10 -13 -16 -79 l-15 -125q-4 -38 -4 -49q0 -15 16 -15q4 0 12 2q55 12 111 12q191 0 313 -96q152 -118 152 -332q0 -227 -206 -385q-168 -129 -354 -129q-101 0 -171 39q-56 31 -56 85z" />
<glyph unicode="6" vert-adv-y="2457" d="M85 509q0 217 96 410q148 298 511 467l37 -54q-409 -296 -452 -711q66 61 111 87q90 51 194 51q168 0 259 -113q81 -101 81 -255q0 -162 -103 -273q-120 -129 -307 -129q-197 0 -313 145q-114 143 -114 375zM266 435q0 -138 51 -248q26 -59 77 -95q52 -37 120 -37 q106 0 169 97q58 88 58 201q0 130 -64 222q-31 45 -84 71q-46 22 -93 22q-90 0 -171 -63q-18 -14 -40 -38q-14 -17 -15 -20q-8 -74 -8 -112z" />
<glyph unicode="7" vert-adv-y="2457" d="M58 1206l57 101q23 41 27 43q13 8 84 8h633q57 0 67 -3q19 -6 19 -24t-29 -72l-127 -236l-530 -928q-23 -40 -64 -106l-99 71l373 624q51 86 228 406q31 57 31 79q0 21 -22 29q-24 8 -164 8h-484z" />
<glyph unicode="8" vert-adv-y="2457" d="M119 296q0 87 57 177q54 85 201 186l-28 25q-125 110 -157 163q-51 85 -51 182q0 142 97 241q107 109 271 109q161 0 255 -91q85 -82 85 -205q0 -145 -126 -254q-40 -35 -132 -104q90 -66 140 -114q52 -49 86 -116q38 -73 38 -150q0 -87 -48 -173q-53 -95 -148 -143 q-80 -40 -180 -40q-152 0 -254 87q-106 90 -106 220zM274 340q0 -104 49 -183q62 -101 174 -101q87 0 142 70q49 63 49 148q0 93 -57 177q-34 50 -151 140l-36 28l-17 12q-6 -4 -12 -10q-141 -113 -141 -281zM296 1081q0 -103 96 -199q47 -47 106 -94q43 -33 44 -33t19 16 q133 110 133 266q0 106 -45 183q-53 92 -152 92q-92 0 -149 -77q-52 -71 -52 -154z" />
<glyph unicode="9" vert-adv-y="2457" d="M64 977q0 162 101 273q118 129 302 129q193 0 308 -145q112 -143 112 -375q0 -216 -95 -410q-146 -297 -506 -467l-36 53q195 144 309 317q121 188 142 394q-66 -60 -111 -86q-88 -51 -192 -51q-168 0 -255 114q-79 102 -79 254zM245 1016q0 -131 62 -223q31 -45 82 -71 q44 -22 91 -22q88 0 169 62q14 11 34.5 32.5t20.5 25.5l2 97q0 155 -49 264q-27 59 -76 95q-50 37 -116 37q-103 0 -164 -97q-56 -88 -56 -200z" />
<glyph unicode=":" horiz-adv-x="529" vert-adv-y="2457" d="M144 760q0 52 30 86q35 40 96 40q54 0 88 -32q35 -33 35 -91q0 -62 -38 -96q-34 -30 -91 -30q-55 0 -86 31q-34 34 -34 92zM144 103q0 52 30 86q35 40 96 40q53 0 88 -32q35 -33 35 -90q0 -63 -38 -97q-34 -30 -91 -30q-55 0 -86 31q-34 34 -34 92z" />
<glyph unicode=";" horiz-adv-x="529" vert-adv-y="2457" d="M116 -293q0 9 49 34q46 24 94 73q47 46 47 103q0 45 -31 70q-8 6 -83 36q-72 29 -72 103q0 49 36 84q33 31 79 31q68 0 124 -63q59 -68 59 -167q0 -185 -151 -292q-93 -65 -116 -65q-11 0 -18 12l-13 25q-4 8 -4 16zM155 760q0 52 30 86q36 40 96 40q54 0 87 -32 q36 -33 36 -90q0 -63 -38 -97q-35 -30 -91 -30q-55 0 -86 31q-34 33 -34 92z" />
<glyph unicode="&#x3c;" horiz-adv-x="2039" vert-adv-y="2457" d="M407 541v144l1226 543v-154l-1049 -461l1049 -460v-155z" />
<glyph unicode="=" horiz-adv-x="1662" vert-adv-y="2457" d="M308 295v83q1 24 24 24h993q23 -1 24 -24v-83q0 -23 -24 -24h-993q-23 1 -24 24zM308 556v83q1 24 24 24h993q24 -1 24 -24v-83q0 -22 -24 -23h-993q-23 1 -24 23z" />
<glyph unicode="&#x3e;" horiz-adv-x="2039" vert-adv-y="2457" d="M407 -2v155l1049 460l-1049 461v154l1226 -543v-144z" />
<glyph unicode="?" horiz-adv-x="755" vert-adv-y="2457" d="M116 1352q0 46 34 78q35 34 86 34q151 0 289 -214q121 -188 121 -392q0 -223 -180 -284q-76 -26 -161 -26h-23l-13 -161q-3 -25 -6 -28q-5 -5 -16 -5h-27q-9 0 -14 5q-5 3 -6 26l-10 331q118 4 204 44q145 66 145 202q0 78 -44 151q-59 97 -145 124q-31 10 -106 14 q-128 9 -128 101zM118 98q0 53 42 92q35 32 84 32q55 0 93 -42q33 -36 33 -84q0 -56 -42 -94q-36 -32 -85 -32q-55 0 -93 42q-32 36 -32 86z" />
<glyph unicode="@" horiz-adv-x="1671" vert-adv-y="2457" d="M-14 390q0 251 140 482q139 230 363 348q187 100 412 100q319 0 536 -196q205 -186 205 -460q0 -269 -184 -471q-92 -100 -208 -152q-86 -39 -176 -39q-92 0 -130 55q-17 26 -26 79q-149 -116 -283 -116q-114 0 -184 74q-71 73 -71 199q0 259 195 494q156 187 338 187 q106 0 176 -67q26 -25 63 -82l41 113h185l-275 -663q-25 -61 -25 -105q0 -29 21 -44q18 -12 38 -12q37 0 91 27q128 65 218 199q100 147 100 320q0 223 -167 380q-86 81 -200 126q-118 47 -240 47q-204 0 -404 -122q-203 -124 -316 -326q-97 -176 -97 -366q0 -168 93 -301 q88 -128 258 -202q168 -73 365 -73q214 0 401 86q75 34 195 121l69 -44q-138 -109 -236 -160q-212 -110 -463 -110q-349 0 -594 204q-224 187 -224 470zM543 251v-14q0 -67 44 -104q38 -33 90 -33q76 0 145 64q88 84 185 324q75 183 75 273q0 60 -41 100q-35 33 -84 33 q-115 0 -242 -191q-71 -108 -125 -257q-41 -113 -47 -195z" />
<glyph unicode="A" horiz-adv-x="1548" vert-adv-y="2457" d="M37 14v22q0 10 4 14q7 4 42 7q80 6 110 32q23 19 38 58q13 32 44 121l377 1097q60 73 134 110l487 -1224q49 -122 71 -144q49 -50 141 -50h4q15 -2 15 -21v-25q0 -22 -18 -22q-13 0 -30 1q-157 10 -235 10q-114 0 -219 -10q-17 -1 -25 -1q-19 0 -19 25v20q0 14 4 17 q5 4 50 6q112 5 112 55q0 18 -12 48l-26 65l-129 333h-480l-75 -235q-40 -126 -40 -181q0 -84 160 -89q13 -1 13 -21v-21q0 -22 -20 -22h-2l-74 3q-172 8 -190 8q-39 0 -81 -4q-57 -5 -90 -6l-22 -1q-19 0 -19 25zM502 638h423l-227 583z" />
<glyph unicode="B" horiz-adv-x="1246" vert-adv-y="2457" d="M36 15v13q0 18 9 24q9 4 71 5q96 0 126 46q18 27 19 168v869q-1 127 -11 153q-17 43 -71 57q-30 5 -113 6q-28 0 -29 28v13q0 26 28 26q6 0 144 -6l103 -5q18 0 147 8q40 3 95 3q249 0 374 -82q128 -85 128 -260q0 -158 -125 -234q-46 -28 -171 -64q403 -66 403 -396 q0 -139 -81 -239q-130 -159 -437 -159q-30 0 -202 9q-49 2 -68 2q-6 0 -86 -4q-20 -1 -80 -2q-56 -1 -73 -2q-47 -3 -71 -3q-29 0 -29 26zM445 796q26 0 50 -1t35 -1q140 0 235 66q101 69 101 214q0 129 -68 207q-67 77 -197 77q-96 0 -130 -32q-19 -18 -24 -55 q-2 -18 -2 -66v-409zM445 715v-433q0 -101 10 -128q35 -87 184 -87q168 0 252 99q71 84 71 226q0 158 -102 248q-100 87 -282 87q-69 0 -133 -12z" />
<glyph unicode="C" horiz-adv-x="1511" vert-adv-y="2457" d="M97 706q0 224 132 410q117 165 312 254q173 80 359 80q171 0 360 -61q57 -18 130 -59l30 -255q2 -17 2 -22q1 -14 -17 -17l-16 -2l-12 -2q-5 0 -8 3q-2 2 -19 44q-42 103 -94 156q-62 65 -162 102q-93 34 -192 34q-145 0 -271 -72q-152 -88 -236 -271q-69 -152 -69 -324 q0 -290 189 -489q169 -177 392 -177q165 0 313 79q103 56 150 213q10 36 26 36q6 0 11 -1l15 -1q20 -3 20 -18q0 -9 -5 -35l-44 -244q-217 -108 -466 -108q-245 0 -451 118q-194 112 -295 298q-84 156 -84 331z" />
<glyph unicode="D" horiz-adv-x="1624" vert-adv-y="2457" d="M21 1373q0 16 26 23q54 13 200 28q239 26 452 26q290 0 484 -109q169 -96 264 -260q94 -161 94 -367q0 -253 -143 -434q-167 -209 -465 -270q-105 -21 -259 -21q-67 0 -226 8q-71 3 -108 3q-110 0 -224 -8q-37 -3 -62 -3q-27 0 -27 26v14q0 18 9 24q8 4 47 4q78 1 104 13 q39 18 51 56q8 27 9 146v751q0 215 -9 250q-16 65 -112 65q-30 0 -69 -8q-12 -2 -18 -2q-18 0 -18 45zM431 1163v-809q0 -116 15 -160q24 -74 110 -109q74 -31 174 -31q185 0 334 106q141 101 209 272q51 131 51 283q0 301 -184 498q-97 104 -217 141q-102 31 -242 31 q-185 0 -227 -53q-16 -20 -20 -64q-3 -24 -3 -105z" />
<glyph unicode="E" horiz-adv-x="1284" vert-adv-y="2457" d="M48 15v14q0 18 9 24q9 4 79 4q96 1 126 47q17 25 19 167v869q-1 128 -11 153q-16 43 -71 57q-30 5 -115 6q-28 0 -29 28v13q0 26 28 26q21 0 65 -3q1 0 81 -2q56 -1 99 -3q76 -3 99 -3q28 0 106 4q163 7 220 7h299q46 0 53 -9q5 -7 5 -47v-206q-1 -36 -5 -40 q-3 -5 -16 -5h-21q-15 0 -18 5q-4 7 -7 57q-9 121 -86 156q-47 22 -198 22q-134 0 -201 -9q-67 -8 -83 -61q-10 -33 -10 -148v-342q70 -3 99 -3q196 0 246 21q67 27 99 137q4 10 16 17l7 -1l12 -1q21 0 21 -20q0 -16 -4 -42q-10 -72 -10 -159q0 -113 8 -154q7 -33 7 -46 q0 -18 -19 -19l-23 -2l-7 -1q-10 0 -16 16q-5 16 -14 82q-10 70 -34 83q-27 14 -128 18q-106 4 -127 4q-23 0 -65 -2q-38 -1 -68 -2v-444q0 -87 6 -111q17 -63 78 -85q50 -16 170 -16h69q172 0 227 26q37 19 77 81q20 32 54 99q16 30 27 30q47 0 47 -21q0 -8 -10 -42 l-50 -174q-13 -46 -24 -63q-8 -13 -34 -13l-48 1l-449 6l-76 2h-75l-108 2q-51 0 -176 -8q-41 -3 -83 -3q-26 0 -33 6q-6 5 -6 20z" />
<glyph unicode="F" horiz-adv-x="1208" vert-adv-y="2457" d="M35 15v13q0 16 7 22q6 7 29 7l24 -1q107 0 139 37q18 21 22 60t4 118v869q-1 127 -11 153q-17 43 -71 57q-30 5 -109 6q-29 0 -30 28v13q0 26 27 26l83 -3l101 -4l114 -4l201 4l121 2l390 5h6q9 0 16 -2q11 -4 13 -44l8 -217q0 -33 -3 -38q-4 -5 -16 -6h-26l-4 -1 q-18 -3 -24 34q-23 119 -53 153q-19 24 -44 31q-45 10 -212 13q-151 -2 -200 -9q-64 -11 -80 -63q-12 -39 -13 -146v-335q82 -4 149 -4q235 0 282 22q57 27 67 102q4 29 7 34q4 7 17 10l20 4q7 1 11 1q16 0 16 -17q0 -10 -4 -32q-8 -42 -8 -160q0 -116 9 -187q2 -17 2 -28 q0 -16 -16 -20l-19 -4q-6 -1 -8 -1q-13 -1 -18 26q-16 85 -48 123q-39 44 -129 55q-46 6 -161 6q-118 0 -169 -3v-449q1 -127 11 -152q17 -43 71 -57q32 -5 120 -6q28 0 29 -28v-13q0 -26 -30 -26l-62 3l-87 3l-139 5l-149 -6l-97 -2q-33 -3 -49 -3q-27 0 -27 26z" />
<glyph unicode="G" horiz-adv-x="1624" vert-adv-y="2457" d="M90 694q0 196 98 366q111 195 353 302q198 88 419 88q235 0 446 -115l11 -238q0 -5 1 -16v-8q0 -11 -13 -13l-24 -5q-5 -1 -10 -1q-13 -1 -17 10q-1 3 -9 32q-11 45 -40 96q-105 179 -360 179q-175 0 -324 -88q-163 -97 -243 -275q-60 -133 -60 -287q0 -208 104 -384 q95 -162 247 -240q115 -59 247 -59q123 0 220 49q83 41 112 104q18 37 18 124v43q0 94 -12 122q-25 53 -121 60q-32 2 -124 3q-34 1 -41 6q-6 6 -6 21v19q0 32 42 32l51 -2l124 -3l133 -3q162 4 206 5q28 1 39 1q25 0 25 -23v-23q0 -15 -6 -20q-7 -5 -36 -5h-6 q-69 0 -92 -22q-23 -27 -23 -129v-312q-226 -126 -506 -126q-247 0 -448 112q-191 105 -290 284q-85 155 -85 339z" />
<glyph unicode="H" horiz-adv-x="1737" vert-adv-y="2457" d="M44 1384v13q0 26 29 26q23 0 60 -3q122 -8 203 -8q101 0 220 8q37 3 62 3q27 0 27 -26v-13q0 -19 -9 -24q-8 -4 -47 -5q-72 -1 -97 -13q-39 -17 -51 -55q-8 -29 -9 -147v-346h871v346q-1 127 -11 153q-25 63 -147 63q-29 0 -29 28v13q0 26 27 26q22 0 55 -3 q108 -8 218 -8q71 0 192 8q37 3 62 3q27 0 27 -26v-13q0 -19 -9 -24q-9 -4 -47 -5q-81 -1 -115 -24q-25 -18 -32 -50q-6 -29 -7 -141v-869q1 -126 11 -152q16 -43 71 -57q29 -5 93 -6q28 0 29 -28v-13q0 -26 -30 -26q-19 0 -59 3q-121 8 -197 8q-108 0 -226 -8 q-39 -3 -61 -3q-28 0 -28 26v13q0 18 9 24q8 4 46 5q84 1 119 24q25 17 31 50q7 30 8 140v444h-871v-444q1 -141 19 -168q15 -25 52 -38q22 -8 86 -8q40 0 48 -5q8 -6 8 -24v-13q0 -26 -28 -26q-23 0 -61 3q-115 8 -214 8q-89 0 -205 -8q-39 -3 -62 -3q-27 0 -27 26v13 q0 18 8 24q9 4 47 5q97 0 126 46q17 27 19 168v869q-1 127 -11 153q-17 43 -71 57q-25 4 -92 6q-29 0 -30 28z" />
<glyph unicode="I" horiz-adv-x="680" vert-adv-y="2457" d="M39 1384v13q0 26 29 26q24 0 63 -3q128 -8 206 -8q110 0 222 8q35 3 56 3q27 0 27 -26v-13q0 -19 -9 -24q-7 -4 -40 -5q-74 -2 -98 -13q-39 -17 -51 -55q-8 -29 -9 -147v-869q1 -141 19 -168q15 -25 52 -38q22 -8 87 -8q40 0 47 -5q8 -6 8 -24v-13q0 -26 -28 -26 q-22 0 -61 3q-119 8 -220 8q-79 0 -205 -8q-41 -3 -63 -3q-31 0 -31 26v13q1 19 9 24q9 4 57 5q97 0 126 46q18 26 19 168v869q-1 127 -11 153q-16 43 -71 57q-28 5 -100 6q-29 0 -30 28z" />
<glyph unicode="J" horiz-adv-x="755" vert-adv-y="2457" d="M-113 -309q0 39 33 66q31 24 74 24q41 0 65 -26q15 -16 30 -54q24 -61 37 -75q21 -23 52 -23q58 0 87 92q31 96 31 340v1105q-2 130 -11 153q-16 43 -71 57q-29 5 -103 6q-29 1 -30 28v13q0 26 27 26q24 0 77 -5q64 -6 203 -6q143 0 203 6q49 5 70 5q26 0 26 -26v-13 q-1 -18 -9 -24q-9 -4 -53 -5q-96 -1 -126 -46q-13 -20 -16 -61q-3 -31 -3 -108v-1068q0 -254 -97 -404q-93 -143 -270 -143q-113 0 -176 60q-50 47 -50 106z" />
<glyph unicode="K" horiz-adv-x="1473" vert-adv-y="2457" d="M35 15v13q0 18 9 24q8 4 61 5q96 0 126 46q18 27 19 168v869q-1 112 -7 141q-20 74 -141 74q-47 1 -55 6q-8 6 -8 23v13q0 26 29 26q22 0 62 -3q123 -8 198 -8l143 4q70 3 87 4q24 3 37 3q26 0 26 -26v-13q-1 -27 -29 -29q-76 -4 -98 -12q-39 -18 -51 -56q-8 -29 -9 -147 v-388l121 138q365 389 365 431q0 36 -135 36q-17 1 -17 17v24q0 25 26 25q14 0 107 -6q87 -5 130 -5q81 0 175 8q28 3 40 3q21 0 22 -21l2 -24l1 -5q1 -8 -6 -13t-54 -6q-81 -2 -116 -17q-40 -18 -89 -66q-8 -7 -80 -86l-289 -315l524 -659q65 -81 103 -105q72 -49 151 -50 q27 0 34 -5q4 -4 4 -17v-21q0 -24 -24 -24q-20 0 -58 3q-117 8 -196 8q-31 0 -111 -5q-121 -6 -156 -6h-67q-31 0 -36 5t-5 21v20q0 13 3 16q6 6 28 6l59 1q109 1 109 37q0 16 -18 45q-15 23 -91 122l-367 482l-89 -83v-390q1 -141 19 -168q31 -46 136 -46q38 0 46 -5 q8 -6 8 -24v-13q0 -15 -6 -20q-7 -6 -30 -6q-32 0 -122 5q-111 6 -146 6q-34 0 -206 -9q-49 -2 -68 -2q-30 0 -30 26z" />
<glyph unicode="L" horiz-adv-x="1246" vert-adv-y="2457" d="M47 1384v13q0 26 27 26q22 0 55 -3q103 -8 213 -8q87 0 218 8q43 3 69 3q29 0 29 -26v-13q-1 -19 -9 -24q-9 -4 -67 -5q-96 0 -126 -46q-13 -21 -16 -61q-3 -20 -3 -108v-782q0 -149 26 -202q28 -55 99 -73q67 -18 209 -18q169 0 231 30q29 13 60 69q4 6 44 80 q27 50 32 55q8 7 19 7q37 0 37 -17q0 -2 -3 -19l-48 -194q-16 -61 -29 -75q-6 -8 -16.5 -9.5t-88.5 -2.5l-165 4l-234 3l-184 4q-228 -6 -284 -8q-41 -3 -65 -3q-29 0 -29 26v13q1 19 9 24q9 4 51 5q96 0 126 46q18 27 19 168v869q-1 127 -11 153q-17 43 -71 57q-27 5 -94 6 q-29 0 -30 28z" />
<glyph unicode="M" horiz-adv-x="1850" vert-adv-y="2457" d="M24 10v23q0 15 8 20q7 2 49 3q79 2 107 19q44 25 56 84q9 39 14 164l32 809q1 39 1 65q0 85 -40 119q-50 40 -177 40q-28 0 -28 24v20q0 23 25 23q12 0 31 -2q109 -9 178 -9q42 0 123 9q16 2 26 2q21 0 33 -13t30 -58l429 -1051l466 1122l25 -1q131 -6 145 -6l101 4l58 2 q26 1 28 1q28 0 28 -27v-16q0 -30 -21 -30q-7 0 -24 2q-14 2 -30 2q-81 0 -103 -43q-17 -31 -17 -149q0 -54 1 -80l18 -860q1 -80 14 -107q23 -48 73 -59q30 -6 67 -6q4 0 14 1h10q18 0 25 -6q5 -4 5 -18v-22q0 -16 -18 -16q-11 0 -37 2q-107 9 -235 9q-126 0 -235 -11 q-18 -2 -28 -2q-19 0 -19 22v22q1 13 7 17q8 3 34 3q47 2 61 4q39 4 65 37q19 25 21 84l1 108l-13 948l-94 -198l-45 -104q-127 -282 -187 -441l-182 -488l-9 -26q-9 -27 -21 -27t-19 20q-5 12 -22 65q-27 84 -36 107l-414 1023l-27 -852q-1 -34 -1 -106q0 -95 31 -119 q37 -29 131 -30q27 -1 26 -22v-25q0 -20 -17 -20q-11 0 -29 2q-74 9 -193 9q-149 0 -216 -9q-22 -3 -36 -3q-24 0 -24 22z" />
<glyph unicode="N" horiz-adv-x="1737" vert-adv-y="2457" d="M27 1375v21q0 16 8 21q9 6 73 6q140 0 371 -13l658 -848q12 -25 180 -196l71 -71v845q-1 127 -11 153q-17 44 -71 57q-22 4 -101 6q-29 0 -30 28v13q0 26 27 26q24 0 62 -3q103 -8 176 -8q15 0 175 8q50 3 59 3q27 0 27 -26v-13q-1 -18 -10 -24q-8 -4 -56 -5 q-96 -1 -126 -46q-13 -21 -16 -61q-3 -20 -3 -108v-1204h-49l-1054 1252v-917q2 -129 11 -152q16 -43 72 -57q30 -5 101 -6q28 0 29 -28v-13q0 -26 -27 -26q-3 0 -134 7q-86 4 -96 4q-17 0 -173 -8q-50 -3 -56 -3q-27 0 -27 26v13q0 20 8.5 24t55.5 5q96 0 126 46 q18 26 19 168v868q0 75 -7 93q-12 29 -69 75q-50 38 -88 43q-23 3 -83 4q-22 1 -22 21z" />
<glyph unicode="O" horiz-adv-x="1737" vert-adv-y="2457" d="M89 679q0 202 105 381q107 184 295 291q173 99 379 99q208 0 397 -102q196 -105 298 -287q85 -153 85 -327q0 -201 -112 -387q-114 -190 -310 -293q-180 -95 -388 -95q-316 0 -528 194q-221 201 -221 526zM306 755q0 -325 181 -543q151 -184 399 -184q225 0 369 157 q176 193 176 493q0 230 -108 413q-93 158 -238 234q-111 58 -246 58q-219 0 -361 -147q-77 -79 -121 -198q-51 -139 -51 -283z" />
<glyph unicode="P" horiz-adv-x="1208" vert-adv-y="2457" d="M37 1383q0 19 39 27q200 40 481 40q180 0 314 -70q104 -53 171 -139q85 -106 85 -225q0 -115 -78 -221q-126 -171 -383 -171q-79 0 -95 8q-15 7 -15 32q0 30 19 30q6 0 20 -2q15 -3 34 -3q130 0 200 84q81 97 81 244q0 178 -115 275q-48 41 -121 64q-51 16 -91 16 q-82 0 -109 -25q-19 -18 -24 -60q-3 -29 -3 -85v-931q2 -129 11 -152q16 -43 71 -57q30 -5 95 -6q29 0 30 -28v-13q0 -26 -27 -26q-21 0 -55 3q-103 8 -219 8q-93 0 -215 -8q-40 -3 -65 -3q-30 0 -30 26v13q1 18 10 24q8 4 65 5q96 0 126 46q17 25 19 168v850q0 129 -9 163 q-16 65 -114 65q-33 0 -67 -8q-11 -2 -18 -2q-11 0 -15 9q-2 4 -3 35z" />
<glyph unicode="Q" horiz-adv-x="1737" vert-adv-y="2457" d="M87 669q0 299 202 523q233 258 576 258q208 0 396 -101q195 -106 297 -288q85 -153 85 -327q0 -232 -143 -437q-163 -232 -441 -309q46 -74 83 -152q41 -86 74 -125q51 -63 136 -97q88 -36 184 -36q16 0 33 1h26q20 0 26 -9t6 -31q0 -18 -8 -23q-24 -16 -140 -16 q-245 0 -401 120q-93 72 -163 203q-53 98 -85 136q-243 3 -429 122q-154 98 -237 258q-77 149 -77 330zM304 754q0 -323 180 -542q152 -183 399 -183q225 0 368 157q175 193 175 493q0 230 -107 412q-93 158 -238 234q-111 58 -245 58q-221 0 -361 -147q-77 -80 -120 -197 q-51 -141 -51 -285z" />
<glyph unicode="R" horiz-adv-x="1435" vert-adv-y="2457" d="M34 1384v13q0 26 27 26q26 0 89 -3q8 -1 59 -2q72 -1 117 -3q65 -3 86 -3q27 0 117 6q64 5 119 5q206 0 327 -106q115 -102 115 -244q0 -119 -86 -212q-79 -84 -237 -125q68 -31 166 -180l215 -332q73 -110 127 -139q35 -19 99 -24q34 -3 40 -7q5 -5 6 -20v-24 q0 -21 -27 -21q-11 0 -34 3q-76 8 -121 8q-25 0 -52 -4q-42 -7 -57 -7q-28 0 -53 21q-61 53 -212 319q-122 215 -174 275q-82 95 -181 95q-13 0 -52 -4l-12 -1v-423q1 -126 11 -152q17 -43 71 -57q31 -5 103 -6q29 0 29 -28v-13q0 -15 -6 -20q-7 -6 -29 -6q-16 0 -131 6 q-80 5 -131 5q-122 0 -235 -8q-37 -3 -61 -3q-27 0 -27 26v13q1 18 9 24q9 4 69 5q95 0 125 46q18 27 19 168v869q-1 127 -11 153q-16 43 -71 57q-29 5 -115 6q-29 0 -30 28zM445 772q40 -6 89 -6q155 0 255 74q100 73 100 221q0 136 -85 217q-83 80 -217 80q-88 0 -121 -25 q-15 -12 -20 -39q-1 -6 -1 -54v-468z" />
<glyph unicode="S" vert-adv-y="2457" d="M70 283q0 15 20 16l23 2h5q12 0 21 -25q34 -97 78 -144q42 -45 103 -71q57 -24 113 -24q112 0 195 87q77 79 77 183q0 124 -107 218q-55 49 -197 130q-177 101 -237 168q-78 88 -78 228q0 195 137 300q130 100 313 100q87 0 201 -29q56 -15 68 -29q5 -6 6 -29l12 -207 v-17q0 -22 -22 -24l-20 -1h-6q-16 0 -24 7q-5 5 -15 66q-13 82 -88 136q-66 48 -154 48q-100 0 -167 -62q-72 -66 -72 -168q0 -105 83 -182q54 -49 210 -134q191 -103 259 -183q88 -104 88 -263q0 -188 -133 -301q-142 -120 -346 -120q-111 0 -251 42q-49 15 -59 30 q-9 15 -16 77l-16 140q-4 33 -4 35z" />
<glyph unicode="T" horiz-adv-x="1397" vert-adv-y="2457" d="M66 1123q0 13 5 42q9 76 22 308q0 26 6 32t22 6q22 0 29 -4q3 -1 13 -16q33 -48 67 -59q28 -9 94 -9h702q91 0 114 5q83 21 127 77q17 22 37 22q41 0 41 -23q0 -11 -6 -34q-29 -147 -36 -248q-6 -91 -10 -99t-13 -8q-20 0 -49 11q-7 3 -10 9q-2 5 -4 47q-6 102 -30 134 q-15 19 -50 24q-23 3 -84 3h-243q-4 -32 -5 -121v-951q1 -125 11 -152q16 -43 71 -57q32 -5 127 -6q28 0 30 -28v-13q0 -26 -29 -26q-24 0 -68 3q-134 8 -233 8q-88 0 -236 -8q-48 -3 -70 -3q-31 0 -31 26v13q0 22 10 25t89 4q96 0 126 46q18 27 19 168v951q0 78 -4 121 h-223q-99 -1 -129 -15q-50 -24 -78 -74q-14 -26 -32 -85q-17 -55 -25 -64q-7 -8 -19 -8q-45 0 -45 26z" />
<glyph unicode="U" horiz-adv-x="1662" vert-adv-y="2457" d="M51 1384v13q0 26 27 26q19 0 59 -3q101 -9 228 -9q109 0 220 9q43 3 67 3q27 0 27 -26v-13q0 -18 -9 -24q-8 -4 -72 -5q-96 0 -126 -46q-13 -20 -16 -62q-3 -29 -3 -107v-535q0 -137 2.5 -179t14.5 -89q29 -124 118 -187q104 -74 274 -74q162 0 276 73q118 75 154 228 q22 91 22 244v510q0 141 -11 174q-15 32 -59 43q-31 7 -89 8q-26 1 -27 25v17q0 25 21 25q12 0 41 -4q87 -3 174 -7q187 8 213 9q18 2 29 2q23 0 23 -21v-25q0 -13 -7 -17q-6 -4 -34 -4q-74 -1 -106 -8q-55 -13 -64 -67q-3 -26 -3 -117v-635q0 -260 -127 -402 q-150 -168 -450 -168q-304 0 -455 148q-80 79 -101 192q-13 70 -13 154v687q-2 130 -11 152q-16 43 -71 57q-32 6 -107 7q-28 0 -29 28z" />
<glyph unicode="V" horiz-adv-x="1473" vert-adv-y="2457" d="M31 1374v25q0 24 20 24q11 0 39 -3q32 -2 241 -8q183 6 208 8q20 3 29 3q19 0 19 -21v-20q0 -15 -5 -19q-6 -5 -38 -6q-126 -6 -126 -53q0 -9 6 -25q3 -8 12 -41q39 -130 84 -244q17 -44 110 -270l84 -211q85 -216 99 -216q5 0 21 45l271 738q63 169 63 209q0 39 -49 51 q-30 7 -118 13q-23 2 -23 24v1v21q1 24 20 24q12 0 37 -3q79 -8 179 -8q94 0 172 8q24 3 38 3q19 0 19 -24v-22q0 -14 -4 -18q-6 -4 -38 -5q-39 0 -63 -9q-29 -10 -55 -76q-10 -28 -60 -146q-48 -112 -68 -164l-359 -950q-14 -37 -19 -43q-6 -7 -18 -7q-13 0 -20 10 q-6 7 -21 44l-486 1205q-29 71 -40 86q-26 33 -76 43q-18 3 -65 6q-20 2 -20 21z" />
<glyph unicode="W" horiz-adv-x="2001" vert-adv-y="2457" d="M18 1379v22q0 24 23 24q15 0 43 -4q24 -3 159 -9l103 5q67 3 73 4q20 3 32 3q19 0 19 -23v-21q-1 -21 -17 -22q-90 -3 -90 -44q0 -15 55 -148l386 -942l185 421l-240 558q-40 91 -65 119q-28 29 -78 33q-31 3 -36 7q-4 4 -4 16v23q0 22 24 22q10 0 34 -3q63 -8 163 -8 q111 0 206 10q13 1 21 1q19 0 19 -22v-21q0 -14 -6 -19q-5 -3 -28 -3q-86 -4 -86 -46q0 -45 75 -227q77 -185 102 -232l117 270q56 131 56 175q0 52 -78 56q-26 1 -31 6q-4 3 -4 18v23q0 22 20 22q11 0 34 -3q75 -8 127 -8q38 0 124 9q20 2 29 2q20 0 20 -25v-15 q0 -15 -5 -20q-7 -4 -36 -5q-41 -2 -67 -28t-64 -113l-203 -467l221 -503l348 933q34 91 34 117q0 46 -77 56q-27 4 -31 8q-5 5 -5 21v19q0 20 20 20q9 0 30 -3q52 -6 124 -6q94 0 154 9q11 2 17 2q17 0 17 -25v-20q0 -16 -10 -22q-7 -5 -23 -8q-66 -19 -91 -50 q-32 -43 -89 -191l-339 -883q-32 -85 -79 -263h-76q-76 198 -117 296l-129 289l-145 -341q-51 -113 -102 -244h-70q-145 412 -337 838l-190 420q-28 62 -39 77q-29 45 -111 57q-13 3 -14 10q-2 5 -2 16z" />
<glyph unicode="X" horiz-adv-x="1548" vert-adv-y="2457" d="M35 1375v24q0 24 26 24q25 0 66 -3q42 -2 252 -8q180 6 210 8q22 3 35 3q23 0 23 -28v-18q0 -16 -6 -22q-8 -4 -57 -5q-123 -2 -123 -34q0 -17 54 -87l280 -400l166 220q152 201 152 253q0 30 -39 44q-21 7 -91 10q-17 0 -18 17v23q0 27 26 27q24 0 61 -3q122 -8 169 -8 l129 4q58 2 74 4q22 3 31 3q22 0 22 -22v-19q0 -18 -7 -23q-7 -4 -47 -6q-81 -3 -134 -36q-38 -25 -63 -55q-22 -25 -68 -85l-316 -417l283 -400q159 -224 187 -245q36 -35 77 -45q30 -8 77 -8q34 0 42 -6q5 -4 6 -17v-26q0 -24 -22 -24q-13 0 -40 3q-31 2 -240 8 q-198 -6 -253 -8q-29 -3 -45 -3q-30 0 -30 29v23q0 15 8.5 18.5t44.5 3.5h6q112 0 112 35q0 28 -125 209l-205 296l-132 -174q-199 -262 -199 -317q0 -28 28 -38q27 -10 84 -11q42 0 50 -5q4 -4 4 -16v-23q0 -30 -24 -30q-15 0 -42 3q-8 0 -102.5 4t-105.5 4q-123 0 -192 -8 q-22 -3 -32 -3q-23 0 -23 30v19q1 13 4 16q4 4 20 5q71 4 119 21q41 14 69 44q6 5 53 65l371 481l-206 288l-103 144l-97 131q-53 79 -85 95q-28 16 -123 22q-19 2 -22 7q-4 5 -4 18z" />
<glyph unicode="Y" horiz-adv-x="1473" vert-adv-y="2457" d="M17 1379v21q0 23 25 23q19 0 48 -2q128 -9 230 -9q79 0 217 9q27 2 48 2q23 0 23 -26v-18q0 -17 -6 -21q-6 -5 -40 -5h-13q-119 0 -119 -35q0 -11 48 -79l247 -346q47 -62 82 -99q45 49 139 177l106 147q112 154 112 196t-116 42q-52 0 -59 5q-3 4 -3 18v17q0 27 25 27 q17 0 50 -3q88 -8 169 -8q70 0 150 8q34 3 50 3q21 0 21 -22v-24q-1 -14 -5 -18q-6 -4 -42 -4q-57 0 -91 -28q-33 -26 -101 -120l-366 -509v-427q1 -126 11 -152q16 -43 71 -57q31 -5 111 -6q28 0 29 -28v-13q0 -26 -28 -26q-24 0 -62 3q-118 8 -225 8q-109 0 -223 -8 q-37 -3 -62 -3q-27 0 -27 26v13q0 21 9.5 24.5t66.5 4.5q96 0 126 46q17 26 19 168v320q0 63 -8 84q-10 24 -38 62l-379 519q-43 58 -65 73q-39 27 -135 28q-20 0 -20 22z" />
<glyph unicode="Z" horiz-adv-x="1360" vert-adv-y="2457" d="M67 5q0 13 20 35l507 720q314 450 342 495q38 59 38 69q0 11 -18 17q-14 5 -82 5h-363q-108 0 -146 -14q-63 -20 -109 -91q-6 -8 -50 -88q-25 -46 -36 -46q-9 0 -35 11q-14 6 -14 18q0 7 19 103l56 235q8 33 12 35q4 4 19 4h20q19 0 25 -16q16 -41 91 -60q85 -22 311 -22 q45 0 370 9q80 2 117 2q96 0 109 -8q7 -4 7 -10q0 -8 -27 -46l-499 -709q-251 -357 -328 -475q-18 -29 -26 -40q-30 -44 -30 -52q0 -17 53 -17h357q153 0 225 29q56 25 114 107l73 104q15 22 20 22q3 0 15 -5l22 -8q19 -8 19 -19q0 -2 -8 -33l-61 -226q-8 -30 -14 -40 q-5 -11 -26 -11q-22 0 -73 2q-178 9 -398 9q-83 0 -204 -3q-164 -4 -224 -4q-93 -1 -125 -3q-25 -1 -36 -1q-29 0 -29 16z" />
<glyph unicode="[" horiz-adv-x="604" vert-adv-y="2457" d="M66 -353v1721q1 48 4 51q4 3 47 3h388q29 0 34 -5q2 -3 3 -16v-25q-1 -13 -4 -16q-5 -4 -33 -4h-80q-114 -1 -140 -9q-65 -17 -81 -72q-6 -27 -7 -125v-1285q1 -88 4 -114q9 -52 62 -75q39 -16 127 -16h115q29 0 34 -5q2 -4 3 -16v-24q-1 -14 -4 -18q-5 -4 -33 -4h-388 q-43 0 -47 3q-3 4 -4 51z" />
<glyph unicode="\" vert-adv-y="2457" d="M50 1560q0 14 27 14h79q12 0 20 -6q5 -3 17 -28l730 -1532q10 -21 10 -30q0 -15 -22 -15h-73q-29 0 -41 24l-738 1545q-9 18 -9 28z" />
<glyph unicode="]" horiz-adv-x="604" vert-adv-y="2457" d="M66 -361q0 13 3 16q5 5 34 5h79q114 0 141 9q65 17 81 72q6 27 7 124v1285q-1 89 -5 114q-8 53 -61 75q-39 16 -128 17h-114q-29 0 -34 5q-3 3 -3 15v25q0 13 3 17q5 4 34 4h388q43 0 47 -3q3 -4 4 -51v-1721q-1 -48 -4 -51q-5 -3 -47 -3h-388q-27 0 -32 3t-5 19v24z" />
<glyph unicode="^" horiz-adv-x="1020" vert-adv-y="2457" d="M98 993v93q65 32 153 106q86 71 157 203q32 62 42 141h121q9 -82 52 -160q70 -120 167 -201q73 -59 133 -89v-93q-134 14 -239 67q-69 36 -123 91q-34 33 -50 50l-28 -27q-141 -157 -385 -181z" />
<glyph unicode="_" horiz-adv-x="1020" vert-adv-y="2457" d="M-2 -407h1024v-105h-1024v105z" />
<glyph unicode="`" vert-adv-y="2457" d="M262 1512q0 31 22 54q24 25 58 25q29 0 47 -18q28 -27 78 -147l138 -329q7 -16 7 -22t-9 -11l-14 -9q-6 -4 -11 -4t-18 17l-218 291q-41 56 -63 93q-17 29 -17 60z" />
<glyph unicode="a" horiz-adv-x="868" vert-adv-y="2457" d="M80 189q0 70 73 114q56 34 188 86l210 83v106q0 103 -32 141q-39 47 -132 47q-60 0 -111 -22q-42 -18 -42 -57q0 -15 10 -42l-127 -72q-13 34 -13 55q0 62 71 118q24 19 83 53l171 97q185 -1 238 -115q25 -65 25 -230v-13v-298l-1 -40q0 -110 64 -110q39 0 74 60l38 -15 q-46 -176 -169 -176q-63 0 -103 47q-39 46 -39 131q-69 -64 -101 -90q-104 -88 -198 -88q-70 0 -119 67q-58 80 -58 163zM246 210q0 -55 29 -106q26 -43 65 -43q64 0 136 67l58 56l17 17v212l-155 -69q-96 -43 -123 -70q-27 -28 -27 -64z" />
<glyph unicode="b" horiz-adv-x="1095" vert-adv-y="2457" d="M62 1450l135 64q70 34 120 61l14 -6q-2 -34 -4 -199v-599q73 53 118 77q94 48 184 48q155 0 266 -114q56 -58 89 -141q35 -87 35 -180q0 -151 -86 -285q-71 -112 -190 -170q-97 -47 -192 -47q-86 0 -169 39q-67 32 -95 32q-34 0 -54 -27q-17 -24 -24 -33h-41q4 85 4 158 v1094q0 98 -7 117q-8 35 -100 83zM327 359q0 -126 14 -164q30 -84 103 -128q58 -35 131 -35q134 0 206 111q72 110 72 270q0 170 -90 274q-93 108 -232 108q-117 0 -204 -80v-356z" />
<glyph unicode="c" horiz-adv-x="868" vert-adv-y="2457" d="M63 391q0 212 143 362q138 143 325 143q97 0 178 -45q88 -49 88 -122q0 -32 -22 -55q-25 -26 -60 -26q-37 0 -69 36q-8 8 -45 59q-39 53 -67 69q-29 17 -67 17q-102 0 -179 -105q-74 -101 -74 -231q0 -143 73 -265q40 -65 102 -102q62 -36 135 -36q108 0 203 87 q24 22 72 74l31 -42q-79 -106 -133 -154q-111 -96 -252 -96q-163 0 -273 126q-109 124 -109 306z" />
<glyph unicode="d" horiz-adv-x="1057" vert-adv-y="2457" d="M70 382q0 199 124 345q71 85 172 129q89 40 186 40q82 0 203 -43v369q0 98 -7 117q-8 36 -100 83l-3 28l135 64q70 33 121 61l14 -6q-2 -52 -2 -162l-2 -162v-974q0 -132 8 -149q10 -21 36 -21q16 0 86 18q3 -12 3 -26q0 -15 -3 -27l-283 -106l-10 32l7 123 q-73 -60 -114 -87q-105 -69 -206 -69q-152 0 -261 127q-104 122 -104 296zM236 456q0 -145 77 -261q80 -120 213 -120q120 0 229 113v365q0 89 -17 130q-30 71 -94 111q-57 36 -130 36q-125 0 -195 -99q-83 -119 -83 -275z" />
<glyph unicode="e" horiz-adv-x="868" vert-adv-y="2457" d="M64 390q0 186 114 340q124 166 309 166q120 0 208 -73q106 -86 106 -261v-31h-579q-7 -50 -7 -79q0 -129 79 -233q43 -56 104 -91q67 -37 136 -37q106 0 234 119l36 -27q-151 -224 -359 -224q-156 0 -266 119q-115 126 -115 312zM232 577l267 7q73 1 88 7q47 17 47 72 q0 71 -51 120q-48 47 -120 47q-114 0 -184 -125q-30 -52 -47 -128z" />
<glyph unicode="f" horiz-adv-x="642" vert-adv-y="2457" d="M52 11v14q-2 17 32 19q73 4 96 16q35 18 38 61q1 16 2 150v507h-127q-30 0 -36 5q-5 5 -5 20v43q0 14 4 19q7 6 37 6h127v137q0 258 115 423q101 145 252 145q53 0 87 -23q36 -23 36 -62q0 -32 -17 -55q-21 -29 -52 -29q-19 0 -72 32q-61 36 -91 36q-62 0 -87 -78 q-10 -32 -14 -66q-2 -22 -2 -123v-337h192q41 0 47 -5q5 -5 5 -20v-43q0 -17 -5 -21t-47 -4h-192v-507q1 -135 2 -150q3 -43 38 -61q23 -12 102 -16q32 -2 32 -19v-14q0 -12 -4 -18q-5 -7 -31 -7q-44 0 -110 7t-105 7q-32 0 -108 -7q-78 -7 -107 -7q-23 0 -27 6q-5 5 -5 19z " />
<glyph unicode="g" horiz-adv-x="944" vert-adv-y="2457" d="M80 -224l206 147q-180 37 -180 199q0 17 6 42l193 145q-75 25 -120 65q-101 86 -101 212q0 127 112 221q106 89 232 89q47 0 112 -18q60 -16 102 -38q51 -26 72 -26l49 1h112q39 0 45 -3q8 -4 9 -23v-32q0 -21 -8 -28q-7 -6 -46 -6h-132q19 -52 19 -98q0 -125 -84 -213 q-111 -117 -304 -117h-3q-122 -57 -122 -138q0 -39 42 -63q45 -25 120 -25q19 0 46 2q138 9 157 9q126 0 217 -77q78 -66 78 -184q0 -164 -139 -269q-131 -99 -309 -99q-165 0 -281 75q-70 45 -89 121q-10 42 -11 129zM220 -254q0 -90 69 -156q76 -72 198 -72q106 0 188 52 q98 62 98 183q0 77 -41 121q-51 54 -149 54q-34 0 -99 -4q-65 -5 -120 -5q-35 -26 -54 -39q-53 -37 -72 -64q-18 -25 -18 -70zM235 628q0 -127 62 -205q28 -34 69 -54q36 -18 67 -18q69 0 121 58q57 64 57 174q0 103 -52 178q-57 82 -146 82q-49 0 -97 -30q-81 -51 -81 -185 z" />
<glyph unicode="h" horiz-adv-x="1133" vert-adv-y="2457" d="M58 11v14q0 8 4 12q6 6 40 7q56 2 89 26q15 11 19 33q4 24 5 168v951q-1 98 -7 117q-7 35 -101 83l-2 28l135 64q75 35 121 60l13 -5q-1 -55 -2 -175l-1 -139v-523q87 68 128 95q106 69 215 69q124 0 187 -77q55 -68 55 -221v-327q0 -153 6 -176q8 -38 107 -54 q11 -4 11 -16v-14q0 -25 -19 -25q-4 0 -13 1q-13 3 -84 8t-90 5q-33 0 -166 -12q-18 -2 -29 -2q-23 0 -23 25v14q1 16 32 19q87 10 103 45q7 14 9 51l1 131v279q0 114 -24 157q-39 71 -147 71q-131 0 -259 -109v-398q0 -144 4 -168q8 -49 108 -59q32 -2 32 -19v-14 q0 -25 -25 -25q-14 0 -83 7q-72 7 -114 7q-44 0 -114 -7q-69 -7 -94 -7q-27 0 -27 25z" />
<glyph unicode="i" horiz-adv-x="566" vert-adv-y="2457" d="M59 11v14q-1 17 32 19q97 7 114 45q7 14 8 51l2 131v275q-1 98 -8 117q-7 37 -100 83l-3 28l135 64q81 39 121 61l13 -5q-1 -50 -2 -156l-2 -156v-311q2 -145 5 -168q7 -48 108 -59q33 -2 32 -19v-14q0 -25 -22 -25q-9 0 -73 7q-65 7 -135 7q-64 0 -172 -12 q-14 -2 -28 -2q-25 0 -25 25zM172 1388q0 45 33 80q33 34 81 34t82 -34q34 -33 34 -81t-34 -81q-34 -34 -82 -34t-81 34q-33 35 -33 82z" />
<glyph unicode="j" horiz-adv-x="529" vert-adv-y="2457" d="M-12 -484q141 133 171 212q22 54 26 123q2 17 2 125v570q0 98 -7 117q-6 37 -100 83l-3 28l135 65q81 38 121 60l14 -5q-2 -38 -3 -129l-1 -120v-547q-1 -165 -14 -241q-24 -140 -150 -260q-41 -38 -147 -121l-16 -13zM143 1388q0 45 34 80q32 34 80 34t82 -34 q34 -33 34 -81t-34 -81q-34 -34 -82 -34t-80 34q-34 35 -34 82z" />
<glyph unicode="k" horiz-adv-x="1133" vert-adv-y="2457" d="M60 11v14q0 17 32 19q86 7 101 40q8 14 10 47q1 12 2 140v951q-1 98 -7 117q-9 36 -101 83l-2 28l135 64l121 60l13 -5q-1 -47 -2 -151l-1 -123v-822q117 85 231 188q61 55 76 75q17 21 17 40t-26 27q-28 7 -87 9q-16 1 -17 18v22q0 21 21 21q5 0 18 -1q109 -10 178 -10 q73 0 190 10q17 1 28 1q21 0 21 -19v-24q0 -10 -5 -14q-5 -5 -42 -5q-91 0 -134 -35q-34 -26 -89 -78l-145 -123l314 -401q67 -85 90 -101q32 -25 71 -26q26 -1 31 -5t5 -16v-17q0 -23 -27 -23q-10 0 -102 10q-47 5 -70 5h-7l-154 -10l-49 -2q-32 -1 -43 -2q-14 -1 -15 -1 q-20 0 -20 23v17q0 14 6 17t31 3h5q37 0 66 14q27 12 27 37q0 22 -18 50q-9 14 -61 79l-203 256l-112 -80v-131q0 -144 4 -168q8 -48 108 -59q32 -2 32 -19v-14q0 -25 -25 -25q-14 0 -84 7q-71 7 -113 7q-38 0 -171 -12q-18 -2 -29 -2q-23 0 -23 25z" />
<glyph unicode="l" horiz-adv-x="566" vert-adv-y="2457" d="M53 11v14q0 8 4 12q6 6 40 7q56 2 89 26q15 11 19 33q4 24 5 168v951q-1 98 -7 117q-7 35 -101 83l-2 28l135 64q75 36 121 61l13 -6q-1 -54 -2 -175l-1 -138v-985q1 -144 4 -168q8 -49 108 -59q33 -2 33 -19v-14q0 -25 -25 -25q-14 0 -84 7q-72 7 -114 7q-44 0 -114 -7 q-69 -7 -94 -7q-27 0 -27 25z" />
<glyph unicode="m" horiz-adv-x="1699" vert-adv-y="2457" d="M64 11v14q-1 16 29 19q87 10 103 45q8 14 9 50l1 132v281q-1 98 -7 117q-8 35 -101 83l-2 28l135 64q74 35 121 60l9 -5v-164q192 161 338 161q118 0 189 -98q22 -31 39 -82q80 67 129 100q74 52 127 67q45 13 92 13q131 0 198 -97q47 -67 47 -209v-319q0 -144 4 -168 q9 -48 106 -59q32 -2 32 -19v-14q0 -25 -23 -25q-13 0 -84 7q-75 7 -111 7q-63 0 -170 -13q-13 -1 -22 -1q-20 0 -20 25v14q0 16 32 19q80 11 91 40q8 14 10 47q1 21 2 140v308q0 75 -9 97q-15 38 -50 64q-51 38 -116 38q-122 0 -253 -126v-381q1 -144 4 -168q8 -47 105 -59 q32 -3 32 -19v-14q0 -25 -22 -25q-11 0 -83 7q-74 7 -112 7q-62 0 -170 -13q-13 -1 -22 -1q-20 0 -20 25v14q0 16 32 19q80 10 91 40q8 14 10 47q1 12 2 140v256q0 101 -7 123q-13 49 -52 82q-56 47 -135 47q-116 0 -233 -111v-397q0 -144 4 -168q4 -23 20 -33q7 -6 43 -18 q20 -7 31 -8q32 -3 33 -19v-14q0 -25 -20 -25q-6 0 -17 1q-87 13 -172 13q-47 0 -168 -12q-16 -2 -27 -2q-22 0 -22 25z" />
<glyph unicode="n" horiz-adv-x="1133" vert-adv-y="2457" d="M56 11v14q0 17 32 19q86 7 101 40q8 14 10 47q1 12 2 140v281q-1 98 -7 117q-9 36 -101 83l-2 28l135 64l121 60l10 -5v-167q79 61 127 92q112 72 213 72q117 0 185 -75q36 -40 48 -97q11 -47 11 -146v-307q0 -134 1 -150q4 -45 39 -60q28 -13 72 -17q32 -3 32 -19v-14 q0 -25 -25 -25q-13 0 -83 7q-72 7 -114 7q-38 0 -171 -12q-17 -2 -28 -2q-23 0 -23 25v14q0 17 32 19q85 7 100 40q8 14 10 47q1 2 2 140v277q0 95 -8 124q-12 41 -39 66q-47 41 -121 41q-98 0 -194 -58q-31 -19 -66 -55v-395q0 -144 4 -168q8 -48 107 -59q32 -2 33 -19v-14 q0 -25 -25 -25q-14 0 -84 7q-72 7 -113 7q-38 0 -171 -12q-18 -2 -29 -2q-23 0 -23 25z" />
<glyph unicode="o" horiz-adv-x="1095" vert-adv-y="2457" d="M74 420q0 141 83 263q72 107 197 165q101 48 208 48q189 0 327 -139q131 -133 131 -321q0 -207 -155 -347q-144 -130 -341 -130q-190 0 -316 128q-134 135 -134 333zM254 457q0 -191 99 -324q79 -107 212 -107q119 0 190 86q85 101 85 279q0 208 -98 335 q-80 103 -216 103q-142 0 -205 -104q-67 -110 -67 -268z" />
<glyph unicode="p" horiz-adv-x="1095" vert-adv-y="2457" d="M22 -513q-1 17 32 19q90 6 106 40q9 14 11 46q0 13 1 141v819q0 98 -7 117q-9 35 -100 83l-3 28l135 64q67 32 120 60l10 -5v-137l136 71q120 63 177 63q135 0 244 -114q54 -56 86 -133q39 -90 39 -184q0 -143 -82 -266q-82 -122 -224 -187q-115 -53 -228 -53 q-63 0 -148 19v-245q1 -134 2 -150q4 -44 38 -61q21 -11 121 -16q34 -1 33 -19v-14q0 -12 -4 -18q-5 -7 -32 -7q-45 0 -122 7q-75 7 -118 7q-47 0 -109 -7q-63 -7 -87 -7q-27 0 -27 25v14zM327 240q0 -75 5 -89q13 -43 61 -70q58 -34 137 -34q129 0 213 79q55 51 82 138 q20 64 20 132q0 163 -96 274q-84 95 -215 95q-106 0 -207 -67v-458z" />
<glyph unicode="q" horiz-adv-x="1057" vert-adv-y="2457" d="M81 386q0 204 152 355q157 155 359 155q63 0 183 -33q24 -7 42 -7q26 0 51 45l22 -2q20 -1 24 -3q7 -4 7 -15q0 -7 -1 -16q-6 -55 -7 -246v-886q1 -134 2 -150q4 -45 38 -60q30 -14 77 -17q33 -2 32 -19v-14q0 -12 -3 -18q-5 -7 -27 -7q-29 0 -83 6q-79 8 -113 8 q-31 0 -114 -8q-62 -6 -99 -6q-32 0 -37 6t-5 19v14q0 18 33 19q79 3 104 16q35 17 38 61q1 16 2 150v329q-60 -41 -100 -62q-82 -41 -173 -41q-185 0 -307 150q-97 120 -97 277zM261 447q0 -182 95 -296q79 -93 209 -93q70 0 142 38q17 9 51 29v416q0 101 -12 135 q-24 71 -90 110q-54 32 -120 32q-114 0 -186 -91q-89 -111 -89 -280z" />
<glyph unicode="r" horiz-adv-x="793" vert-adv-y="2457" d="M77 11v14q-1 17 32 19q91 8 107 45q8 14 9 50l1 132v275q0 98 -7 117q-6 37 -100 83l-3 28l135 64q75 36 121 61l14 -5q-2 -49 -2 -121l-2 -91v-24l33 44q76 103 128 142q67 52 134 52q47 0 76 -28q31 -29 31 -74q0 -36 -21 -60q-24 -27 -64 -27q-24 0 -67 20 q-37 18 -60 18q-46 0 -100 -52q-15 -15 -71 -83l-19 -23v-316q1 -134 2 -150q3 -44 38 -61q22 -11 96 -16q33 -2 32 -19v-14q0 -17 -6.5 -21t-32.5 -4q-30 0 -93 6q-78 8 -114 8q-34 0 -114 -8q-61 -6 -87 -6t-26 25z" />
<glyph unicode="s" horiz-adv-x="718" vert-adv-y="2457" d="M60 234l57 4q23 -80 61 -128q70 -86 164 -86q75 0 121 49q43 45 43 108t-64 121q-32 29 -127 80q-117 62 -162 111q-60 65 -60 153q0 112 89 181t219 69q112 0 238 -65l-11 -187h-51q-24 85 -55 124q-50 62 -132 62q-59 0 -105 -31q-56 -39 -56 -101q0 -57 60 -104 q25 -20 128 -77q130 -71 179 -124q61 -65 61 -153q0 -124 -107 -209q-91 -72 -225 -72q-131 0 -253 74z" />
<glyph unicode="t" horiz-adv-x="680" vert-adv-y="2457" d="M23 817l148 116q16 12 127 118q26 -6 26 -17q0 -7 -2 -20q-2 -15 -8 -94l-4 -52h247q26 0 32 -5q5 -5 5 -28v-28q0 -20 -4 -25q-7 -7 -33 -7h-247v-475q0 -119 15 -158q13 -32 47 -52q28 -16 62 -16q42 0 80 23q35 21 53 52q14 25 17 25t8 -5l23 -20q-33 -81 -71 -120 q-70 -70 -176 -70q-104 0 -165 63q-37 38 -43 86q-5 33 -5 103v443q0 74 -4 88q-6 19 -23 26q-15 7 -67 7h-38v42z" />
<glyph unicode="u" horiz-adv-x="1095" vert-adv-y="2457" d="M27 816v20q0 11 5 14q6 4 42 8q71 8 247 41l25 -10q-1 -41 -2 -219v-327q0 -96 7 -127q17 -69 79 -102q44 -24 101 -24q135 0 243 115v426q0 94 -12 118q-22 42 -92 46q-23 1 -40 1q-19 0 -19 20v20q0 10 5 13q4 4 28 7q115 13 261 43l27 -10q-1 -20 -2 -85l-1 -76v-457 q0 -134 7 -149q11 -21 37 -21q21 0 86 17q3 -10 3 -27q0 -14 -3 -25l-282 -108l-8 34l6 149q-82 -81 -124 -112q-94 -70 -196 -70q-88 0 -161 48q-76 51 -96 145q-9 44 -9 138v355q-1 88 -19 116q-25 36 -93 36q-41 0 -47 5q-3 3 -3 14z" />
<glyph unicode="v" horiz-adv-x="1020" vert-adv-y="2457" d="M15 833v20q0 20 24 20q19 0 81 -4q96 -7 132 -7q83 0 170 9q17 2 27 2q18 0 18 -20v-20q-1 -15 -5 -18q-4 -2 -29 -3q-98 -2 -98 -36q0 -10 19 -69q19 -58 57 -143l152 -347l133 321q71 172 71 214q0 61 -94 62q-34 1 -39 5q-1 4 -1 17v15q0 22 17 22q7 0 82 -5 q77 -6 86 -6q19 0 143 10q18 1 26 1q20 0 20 -22v-17q-1 -13 -5 -17q-5 -4 -26 -4h-6q-41 0 -76 -27q-27 -22 -76 -137l-287 -677q-6 -8 -13 -8q-17 0 -30 23q-9 17 -28 77q-3 9 -31 74l-247 561q-33 79 -55 97q-25 14 -84 14q-21 1 -25 6q-3 3 -3 17z" />
<glyph unicode="w" horiz-adv-x="1548" vert-adv-y="2457" d="M23 833v20q0 20 22 20q19 0 64 -3q21 -1 89 -2q24 0 154 -3q105 -3 192 -3q209 0 382 10q25 1 37 1q22 0 22 -22v-19q0 -12 -5 -15q-4 -2 -42 -3q-73 -2 -88 -12q-13 -9 -13 -24q0 -20 31 -94l188 -473l177 412q46 107 46 136q0 33 -39 44q-23 7 -80 10q-12 1 -12 17v23 q0 20 29 20q27 0 88 -5q62 -6 90 -6q24 0 130 10q13 1 23 1q17 0 17 -20v-23q0 -13 -4 -17q-6 -3 -51 -6q-23 -1 -56 -27q-26 -20 -58 -85q-4 -8 -73 -155l-248 -571q-5 -5 -11 -5q-16 0 -26 20q-9 16 -24 68q-5 16 -30 75l-168 388l-234 -546q-4 -5 -11 -5q-17 0 -28 20 q-7 14 -22 62q-11 34 -33 81l-185 427q-93 210 -123 238q-18 19 -96 24q-20 0 -21 17zM349 770q0 -17 36 -106l185 -461l172 383l-59 127q-33 70 -50 81q-24 15 -151 15q-85 0 -112 -11q-21 -8 -21 -28z" />
<glyph unicode="x" horiz-adv-x="1020" vert-adv-y="2457" d="M32 833v17q0 23 20 23q8 0 21 -1q25 -3 161 -10q166 8 188 9q19 2 33 2q23 0 23 -23v-21q0 -11 -3 -14q-4 -2 -36 -3q-79 -1 -79 -30q0 -31 89 -146l83 -106l81 96q95 113 95 150q0 19 -24 27q-20 6 -83 7q-12 0 -13 21v19q0 23 22 23q4 0 79 -6l78 -6q136 7 160 9 q15 3 23 3q18 0 18 -23v-21q0 -10 -4 -14t-37 -5q-52 0 -90 -28q-26 -20 -99 -105l-170 -198l255 -346q48 -64 80 -76q25 -9 75 -15q9 -1 9 -10v-8l-2 -13q-2 -25 -22 -25q-10 0 -105 7q-96 7 -115 7q-25 0 -88 -7q-62 -7 -92 -7q-24 0 -26 25l-2 16l-2 5q-1 4 8 10 q3 2 42 5q78 6 78 41q0 21 -72 120l-118 162q-188 -238 -188 -280t92 -45q25 -2 30 -6t5 -15v-13q0 -25 -30 -25q-21 0 -78 7q-60 7 -90 7t-82 -7t-76 -7q-16 0 -19 6q-3 4 -3 19v15q0 12 12 13q61 9 88 29q33 23 104 109l199 240l-210 278q-56 75 -77 91q-31 23 -73 23 l-26 -1q-17 0 -17 25z" />
<glyph unicode="y" horiz-adv-x="1095" vert-adv-y="2457" d="M15 829v21q0 23 23 23t104 -5q82 -6 117 -6q39 0 121 6q80 5 98 5q25 0 25 -23v-21q0 -11 -5 -15q-6 -6 -46 -6h-9q-86 0 -86 -39q0 -10 20 -63l14 -37l186 -488l182 416q56 127 56 154q0 58 -91 58h-6q-32 0 -37 6q-3 3 -3 14v18q0 14 3 19q4 7 25 7q30 0 84 -5 q55 -6 82 -6q7 0 161 10q19 1 23 1q22 0 22 -26v-18q-1 -12 -5 -16q-6 -4 -45 -6q-69 -3 -109 -56q-31 -39 -95 -177l-310 -680q-110 -240 -186 -355q-58 -88 -141 -88q-41 0 -65 26q-24 27 -24 65q0 33 20 63q19 29 49 29q11 0 33 -11q19 -9 29 -9q41 0 80 42 q63 69 140 252l38 91l-274 679q-32 79 -45 94q-32 36 -89 36h-9l-20 -1q-23 -1 -30 5q-5 4 -5 17z" />
<glyph unicode="z" horiz-adv-x="944" vert-adv-y="2457" d="M55 -11v27l541 714q20 26 32 39q10 11 10 17q0 11 -21 14q-22 4 -152 4q-156 0 -228 -29q-53 -22 -84 -81q-15 -29 -24 -29q-4 0 -8 1l-24 6q-11 2 -11 10q0 4 4 15q24 72 37 124q25 104 31 114q3 7 19 7h22q9 -23 17 -37q13 -21 25 -27q18 -12 71 -13q24 0 107 -2 q76 -2 143 -2q127 0 305 8l8 -15l-506 -683l-41 -54q-26 -32 -26 -43q0 -10 9 -13q25 -8 232 -8q166 0 213 21q38 16 82 98l28 52q15 28 23 28q16 0 33 -13q7 -5 7 -15q0 -7 -11 -40l-50 -152q-11 -33 -16 -39q-6 -7 -21 -7q-17 0 -50 2q-127 6 -381 6q-88 0 -345 -5z" />
<glyph unicode="{" horiz-adv-x="906" vert-adv-y="2457" d="M165 501v52q227 104 227 258q0 75 -25 186q-25 110 -25 192q0 108 72 197q65 80 199 126q55 19 153 38v-52q-80 -28 -120 -63q-94 -85 -94 -252q0 -79 13 -175q11 -84 11 -140q0 -133 -120 -224q-49 -37 -185 -117q135 -78 185 -116q120 -90 120 -220q0 -56 -11 -138 q-13 -95 -13 -173q0 -164 94 -249q41 -36 120 -62v-52q-186 35 -277 95q-66 44 -103 107q-44 75 -44 154q0 81 25 190t25 183q0 151 -227 255z" />
<glyph unicode="|" horiz-adv-x="1020" vert-adv-y="2457" d="M458 -512v2048h105v-2048h-105z" />
<glyph unicode="}" horiz-adv-x="906" vert-adv-y="2457" d="M139 -431q80 26 120 62q94 85 94 249q0 80 -13 173q-11 83 -11 138q0 130 120 220q49 37 185 116q-136 80 -185 117q-120 91 -120 224q0 55 11 140q13 94 13 174q0 168 -94 253q-39 35 -120 63v52q187 -37 277 -97q66 -44 103 -108q44 -76 44 -156q0 -83 -25 -192 q-25 -111 -25 -185q0 -155 227 -259v-52q-227 -104 -227 -256q0 -73 25 -182q25 -108 25 -190q0 -107 -72 -194q-66 -80 -199 -125q-55 -18 -153 -37v52z" />
<glyph unicode="~" horiz-adv-x="2039" vert-adv-y="2457" d="M592 1273q122 201 282 201q56 0 183 -44q110 -38 163 -38q110 0 197 110l30 -19q-41 -75 -108 -129q-84 -70 -169 -70q-38 0 -101 19l-87 29q-117 38 -177 38q-71 0 -122 -50q-20 -19 -60 -66z" />
<glyph unicode="&#xa0;" horiz-adv-x="529" vert-adv-y="2457" />
<glyph unicode="&#xa1;" horiz-adv-x="529" vert-adv-y="2457" d="M138 -381q0 24 9 97l99 775h44l99 -775q9 -73 9 -95q0 -70 -36 -108t-94 -38t-94 38t-36 106zM146 780q0 55 34 88q31 31 86 31q57 0 91 -30q38 -34 38 -96q0 -58 -36 -91q-34 -32 -87 -32q-61 0 -96 40q-30 34 -30 90z" />
<glyph unicode="&#xa2;" vert-adv-y="2457" d="M124 638q0 111 44 215q56 136 185 211q51 30 138 55v243h78v-228q82 0 134 -14q95 -25 130 -84q17 -27 17 -56q0 -40 -28 -63q-18 -14 -41 -14q-29 0 -58 21q-10 8 -55 61q-48 55 -99 61v-699h39q87 0 179 76q14 12 72 70l35 -40q-151 -207 -325 -235v-228h-78v228 q-130 19 -210 84q-157 130 -157 336zM286 725q0 -169 99 -277q36 -40 106 -80v675q-60 -16 -98 -47q-34 -26 -53 -60q-54 -93 -54 -211z" />
<glyph unicode="&#xa3;" vert-adv-y="2457" d="M-74 -143q0 55 55 111q54 55 188 89q48 168 70 598h-133q-23 0 -27 4q-6 4 -6 21v31q0 13 5 19q4 6 34 7h134q22 284 39 377q33 191 106 290q68 94 176 143q77 35 155 35q100 0 174 -55q73 -55 73 -131q0 -41 -27 -68q-25 -27 -62 -27q-43 0 -69 36q-17 25 -18 48l-2 58 q-1 23 -15 40q-23 26 -64 26q-102 0 -173 -152q-51 -110 -108 -398q-6 -32 -25 -146l-12 -76h147q16 0 21 -6q4 -3 4 -20v-31q0 -17 -5 -22q-2 -3 -20 -3h-154q-39 -213 -67 -331q-20 -84 -76 -266q128 -24 241 -67q219 -85 282 -85q43 0 75 31q22 22 22 48q0 18 -15 35 q-10 12 -59 40q-70 39 -70 87q0 31 25 54q24 21 51 21q66 0 114 -70q38 -57 38 -127q0 -113 -93 -181q-95 -69 -216 -69q-73 0 -133 26q-70 32 -148 93q-85 65 -136 92q-50 -89 -81 -124q-65 -75 -141 -75q-37 0 -60 32q-14 18 -14 38z" />
<glyph unicode="&#xa4;" vert-adv-y="2457" d="M-4 797q0 2 2 6l23 54q5 13 19 13h62q24 157 88 285q147 293 377 293q119 0 250 -57q38 -16 88 -53l23 -259q2 -21 2 -23q0 -13 -14 -16l-12 -2q-9 -2 -10 -2q-7 0 -10 12q-24 90 -55 147q-94 174 -242 174q-107 0 -169 -106q-71 -123 -98 -393h486q13 0 12 -9 q0 -1 -2 -7l-23 -54q-5 -13 -19 -13h-461q-2 -54 -2 -86q0 -31 2 -89h410q12 0 12 -10q0 -3 -1 -6l-24 -54q-5 -13 -19 -13h-370q12 -120 46 -243q39 -141 89 -203q58 -70 147 -70q93 0 162 74q41 44 56 112q8 36 22 36q3 0 7 -1l12 -1q15 -3 15 -18q0 -6 -3 -36l-20 -186 q-142 -59 -233 -59q-202 0 -333 164q-142 177 -184 431h-94q-12 0 -12 10q0 2 2 6l23 54q5 13 19 13h53q-4 44 -4 93q0 41 2 82h-85q-12 0 -12 10z" />
<glyph unicode="&#x20ac;" vert-adv-y="2457" d="M-4 797q0 2 2 6l23 54q5 13 19 13h62q24 157 88 285q147 293 377 293q119 0 250 -57q38 -16 88 -53l23 -259q2 -21 2 -23q0 -13 -14 -16l-12 -2q-9 -2 -10 -2q-7 0 -10 12q-24 90 -55 147q-94 174 -242 174q-107 0 -169 -106q-71 -123 -98 -393h486q13 0 12 -9 q0 -1 -2 -7l-23 -54q-5 -13 -19 -13h-461q-2 -54 -2 -86q0 -31 2 -89h410q12 0 12 -10q0 -3 -1 -6l-24 -54q-5 -13 -19 -13h-370q12 -120 46 -243q39 -141 89 -203q58 -70 147 -70q93 0 162 74q41 44 56 112q8 36 22 36q3 0 7 -1l12 -1q15 -3 15 -18q0 -6 -3 -36l-20 -186 q-142 -59 -233 -59q-202 0 -333 164q-142 177 -184 431h-94q-12 0 -12 10q0 2 2 6l23 54q5 13 19 13h53q-4 44 -4 93q0 41 2 82h-85q-12 0 -12 10z" />
<glyph unicode="&#xa5;" vert-adv-y="2457" d="M29 1386v17q0 23 35 23q42 0 98 -8q54 -7 88 -7q38 0 82 7q46 8 75 8q23 0 35 -21l3 -5l-1 -4l-1 -19q0 -11 -9 -18q-5 -4 -35 -9q-51 -8 -51 -47q0 -8 50 -119l175 -387l186 435q27 64 27 81q0 11 -11 19q-13 10 -69 18q-31 6 -30 22v26q0 26 33 26q12 0 35 -4 q49 -8 77 -8q25 0 62 6q38 6 59 6q34 0 34 -26v-18q-1 -21 -24 -30q-55 -23 -79 -55q-21 -29 -45 -84l-205 -477v-108h235v-81h-235v-116h235v-81h-235v-123q1 -96 32 -135q20 -24 53 -30q22 -4 73 -7q24 -1 29 -11q3 -5 3 -16v-11l2 -7q0 -2 -8 -13q-7 -8 -26 -8 q-54 0 -143 9q-60 6 -96 6q-41 0 -126 -9q-51 -6 -92 -6q-37 0 -37 30v11q0 15 10 23q2 2 70 15q43 8 59 39q18 40 18 131v112h-235v81h235v116h-235v81h235v66l-223 492q-37 85 -59 120q-31 47 -73 51l-35 5q-25 3 -25 26z" />
<glyph unicode="&#xa6;" horiz-adv-x="1020" vert-adv-y="2457" d="M458 460h105v-920h-105v920zM458 565v918h105v-918h-105z" />
<glyph unicode="&#xa7;" vert-adv-y="2457" d="M95 935q0 194 127 344q143 169 340 169q77 0 139 -31q79 -41 79 -107q0 -35 -27 -61q-28 -26 -65 -26q-35 0 -72 29q-8 7 -46 47q-50 53 -104 53q-51 0 -84 -39q-31 -38 -31 -89q0 -89 90 -257q44 -81 151 -237q128 -187 178 -295q80 -169 80 -326q0 -189 -129 -339 q-71 -83 -148 -119q-82 -38 -211 -38q-103 0 -170 38q-68 39 -68 104q0 36 27 63q33 31 72 31q52 0 113 -73q32 -38 46 -48q30 -19 64 -19q53 0 89 36q39 39 39 103q0 101 -66 237q-31 64 -151 245q-133 200 -191 323q-71 148 -71 282zM189 984q0 -139 83 -306 q28 -57 173 -284q107 -167 157 -259q69 -126 69 -213q0 -44 -8 -79q-1 -5 -1 -7q0 -5 -1 -6l-1 -2q3 -4 5 -4q5 1 23 30q28 43 47 111q20 73 20 122q0 135 -84 309q-35 73 -142 227q-119 174 -191 312q-83 160 -83 230q0 6 4 33q2 13 2 19t1 7l1 1v2l-1 2h-1q-6 0 -16 -18 q-56 -107 -56 -227z" />
<glyph unicode="&#xa8;" vert-adv-y="2457" d="M177 1230q0 48 37 82q33 29 76 29q49 0 83 -37q29 -32 29 -76q0 -49 -37 -83q-32 -29 -77 -29q-49 0 -82 37q-29 32 -29 77zM594 1230q0 48 38 82q32 29 75 29q49 0 83 -38q29 -31 29 -75q0 -50 -37 -83q-32 -29 -77 -29q-49 0 -82 37q-29 32 -29 77z" />
<glyph unicode="&#xa9;" horiz-adv-x="1020" vert-adv-y="2457" d="M17 1044q0 219 159 367q141 131 343 131q157 0 281 -93q205 -153 205 -405q0 -206 -144 -351t-349 -145q-203 0 -348 144q-147 146 -147 352zM73 1046q0 -190 130 -322q128 -130 309 -130t309 132t128 317q0 197 -140 333q-124 120 -301 120q-141 0 -252 -84 q-183 -139 -183 -366zM181 1047q0 130 109 222q106 89 254 89q114 0 217 -52l13 -108l1 -9q0 -10 -11 -12l-7 -1h-2h-3q-9 -1 -18 22q-19 43 -41 65q-53 53 -152 53t-168 -67q-81 -79 -81 -202q0 -120 82 -201q73 -72 168 -72q105 0 159 47q27 23 42 71q5 18 16 18h3h3l6 -1 q13 -2 13 -12l-2 -16l-20 -103q-103 -46 -210 -46q-161 0 -270 97q-101 91 -101 218z" />
<glyph unicode="&#xaa;" vert-adv-y="2457" d="M224 852q0 49 65 81q91 45 156 68l141 48v127q0 60 -16 78q-29 31 -106 31q-60 0 -100 -27q-18 -12 -18 -29v-31q0 -13 -9 -19l-60 -39q-12 -8 -23 -8q-23 0 -23 39q0 65 115 127l158 86q143 -20 185 -74q30 -42 30 -149v-14v-237q0 -126 39 -126q9 0 41 24q16 11 26 11 q16 0 16 -20q0 -13 -25 -49q-45 -66 -101 -66q-92 0 -116 117q-56 -50 -90 -70q-78 -47 -158 -47q-52 0 -84 45q-43 62 -43 123zM367 871q0 -39 26 -70q14 -17 42 -17q34 0 84 31q36 22 67 54v129l-124 -52q-62 -26 -80 -42q-15 -14 -15 -33z" />
<glyph unicode="&#xab;" horiz-adv-x="868" vert-adv-y="2457" d="M74 434q0 28 53 75l280 246q20 18 29 18q7 0 16 -9l13 -13q5 -4 8 -10q1 -3 1 -4q0 -7 -11 -20l-219 -273l221 -284q9 -12 9 -18q0 -5 -10 -16l-13 -12q-7 -8 -13 -8q-9 0 -23 12l-302 263q-39 34 -39 53zM406 434q0 27 54 75l279 246q21 18 30 18q6 0 16 -9l13 -13 q4 -4 7 -10q2 -3 2 -4q0 -6 -11 -20l-219 -273l220 -284q10 -13 10 -18t-11 -16l-12 -12q-8 -8 -14 -8q-9 0 -22 12l-303 263q-39 34 -39 53z" />
<glyph unicode="&#xac;" horiz-adv-x="1662" vert-adv-y="2457" d="M305 687v83q1 23 24 24h998q23 0 24 -24v-537q-1 -27 -23 -28h-85q-22 1 -23 28v430h-891q-23 1 -24 24z" />
<glyph unicode="&#xad;" horiz-adv-x="529" vert-adv-y="2457" d="M35 422v93q0 16 5 21q3 5 30 5h375q28 0 30 -5q5 -5 5 -21v-93q0 -16 -5 -21q-2 -5 -30 -5h-375q-27 0 -30 5q-5 5 -5 21z" />
<glyph unicode="&#xae;" horiz-adv-x="1020" vert-adv-y="2457" d="M9 1021q0 219 159 367q141 131 343 131q158 0 282 -94q204 -154 204 -403q0 -206 -144 -351t-349 -145q-202 0 -348 144q-147 146 -147 351zM65 1023q0 -189 130 -321q129 -130 309 -130q181 0 309 132t128 316q0 197 -139 333q-124 120 -303 120q-140 0 -251 -84 q-183 -138 -183 -366zM221 1302v6q0 15 16 15h7q10 -1 30 -1q9 -1 25 -1h4q23 0 44 -1q5 -1 15 -1l27 -1h5l7 1l34 1q36 3 69 3q82 0 139 -45q53 -43 53 -105q0 -103 -133 -140q44 -37 61 -70l71 -137q34 -63 94 -66q24 -1 24 -15v-11q0 -13 -16 -13h-4q-6 0 -20 2 q-24 3 -46 3q-9 0 -25 -3l-22 -2q-35 0 -81 94l-48 98q-26 53 -51 76q-28 25 -67 25q-10 0 -21 -1v-170q0 -65 12 -72q9 -11 53 -12q27 1 29 -17v-5q0 -16 -18 -16h-3q-2 0 -46 2q-45 3 -69 3q-48 0 -89 -3q-13 -1 -18 -1q-11 0 -15 -1h-7q-18 0 -18 16v5q0 11 6 14 q5 3 27 3h6q34 0 48 12q10 5 11 72v358q0 64 -12 72q-10 12 -57 13q-30 -1 -31 16zM412 1053h4q24 -2 32 -2q65 0 108 30q42 30 42 88q0 53 -36 86q-36 32 -97 32q-35 0 -46 -9q-7 -6 -7 -35v-190z" />
<glyph unicode="&#xaf;" horiz-adv-x="1020" vert-adv-y="2457" d="M-2 1536v105h1024v-105h-1024z" />
<glyph unicode="&#xb0;" vert-adv-y="2457" d="M165 1059q0 140 110 240q94 85 222 85q146 0 246 -110q86 -93 86 -220q0 -147 -110 -245q-95 -85 -225 -85q-145 0 -244 109q-85 94 -85 226zM277 1058q0 -101 73 -166q63 -56 146 -56q99 0 165 73q56 62 56 146q0 96 -73 161q-62 56 -147 56q-97 0 -163 -72 q-57 -62 -57 -142z" />
<glyph unicode="&#xb1;" horiz-adv-x="1662" vert-adv-y="2457" d="M306 461v83q1 24 24 24h434v430q0 26 22 28h86q22 -1 22 -28v-430h434q23 0 24 -24v-83q-1 -23 -24 -24h-434v-430q-1 -27 -22 -27h-86q-22 1 -22 27v430h-434q-23 1 -24 24zM308 -134q1 24 24 24h993q24 -1 24 -24v-83q0 -23 -24 -24h-993q-23 1 -24 24v83z" />
<glyph unicode="&#xb2;" horiz-adv-x="680" vert-adv-y="2457" d="M51 587v30q0 28 4 29q-1 3 15 16q118 93 216 199q75 82 111 146q37 65 37 131q0 63 -28 96q-33 38 -79 38q-54 0 -117 -42q-12 -8 -57 -54q-12 -12 -19 -12q-5 0 -12 3l-14 7q-11 5 -11 13q0 5 10 21q51 78 122 127t150 49q94 0 145 -56q50 -55 50 -139q0 -182 -319 -454 l-63 -54q107 -2 143 -2q105 0 234 8q11 1 15 1q21 0 22 -11v-6l2 -6l-3 -6l-10 -20l-34 -59q-9 -15 -15 -19q-5 -3 -20 -3q-16 0 -58 3q-81 7 -114 7q-136 0 -212 -5q-52 -4 -70 -4q-21 0 -21 28z" />
<glyph unicode="&#xb3;" horiz-adv-x="680" vert-adv-y="2457" d="M54 637q0 20 16 35q17 15 36 15q32 0 85 -39q44 -32 71 -32q66 0 124 66q63 72 63 162q0 85 -82 121q-31 14 -60 14q-12 0 -23 -2h-5q-13 -1 -21 16q-5 10 -5 14q0 9 19 22q11 7 76 68q58 54 58 99q0 34 -30 56q-27 20 -73 20q-68 0 -119 -19q-11 -4 -15 -4q-16 0 -28 20 q-4 7 -4 11q0 18 58 56q72 48 150 48q80 0 128 -44q45 -42 45 -98q0 -81 -120 -167q64 -16 94 -39q69 -51 69 -150q0 -130 -106 -231q-109 -102 -241 -102q-93 0 -141 44q-19 18 -19 40z" />
<glyph unicode="&#xb4;" vert-adv-y="2457" d="M370 1075q0 6 7 22l137 329q50 119 79 147q18 18 47 18q34 0 58 -25q22 -23 22 -53q0 -33 -17 -61q-21 -37 -63 -93l-219 -291q-12 -17 -16 -17q-6 0 -12 4l-14 9q-9 5 -9 11z" />
<glyph unicode="&#xb5;" horiz-adv-x="1133" vert-adv-y="2457" d="M54 -357q0 21 9 64l239 1141h177l-120 -576q-8 -38 -8 -72q0 -51 24 -84q27 -37 69 -37q44 0 99 44q67 52 110 161q15 38 24 78l103 486h161l-107 -538q-11 -53 -11 -103q0 -41 13 -73q16 -36 43 -36q50 0 96 105q25 56 35 76l68 -28q-53 -164 -109 -225 q-54 -60 -117 -60q-79 0 -108 103q-14 51 -18 156q-45 -95 -120 -169q-88 -87 -181 -87q-100 0 -149 106l-50 -368q-9 -68 -23 -93q-23 -44 -74 -44q-75 0 -75 73z" />
<glyph unicode="&#xb6;" vert-adv-y="2457" d="M101 1039q0 161 100 287q158 200 559 200h187v-84h-138v-1768h-79v1768h-99v-1768h-79v897q-100 20 -156 42q-151 57 -229 185q-66 110 -66 241z" />
<glyph unicode="&#xb7;" horiz-adv-x="529" vert-adv-y="2457" d="M137 681q0 54 42 93q37 33 86 33q55 0 94 -42q33 -37 33 -86q0 -56 -42 -94q-37 -33 -86 -33q-56 0 -94 42q-33 36 -33 87z" />
<glyph unicode="&#xb8;" vert-adv-y="2457" d="M251 -358q0 18 14 31q12 11 24 11q15 0 38 -12q68 -35 109 -35q48 0 78 28q27 25 27 57q0 33 -26 56q-23 21 -68 21q-20 0 -50 -3l-35 38l199 186l51 -13l-90 -107q148 -26 148 -136q0 -77 -73 -136q-75 -60 -189 -60q-94 0 -139 37q-18 15 -18 37z" />
<glyph unicode="&#xb9;" horiz-adv-x="680" vert-adv-y="2457" d="M151 1217q0 8 15 17q95 52 187 137q15 13 25 13h20q11 0 14 -5q2 -3 2 -27v-586q0 -70 6 -91q10 -46 92 -47q21 1 26 -7q4 -8 4 -9l-1 -8l-1 -25q-1 -23 -20 -23q-7 0 -57 6q-42 5 -83 5q-56 0 -117 -9q-42 -6 -62 -6q-26 0 -26 27v24q0 26 24 25l22 -1q36 -2 58 17 q23 20 23 121v481l-100 -58q-18 -11 -23 -11q-6 0 -11 8l-14 21q-3 5 -3 11z" />
<glyph unicode="&#xba;" vert-adv-y="2457" d="M135 1032q0 172 150 283q93 69 212 69q185 0 290 -146q66 -92 66 -195q0 -85 -46 -165q-54 -96 -154 -149q-82 -44 -173 -44q-146 0 -252 110q-93 96 -93 237zM277 1058q0 -170 106 -268q49 -45 115 -45q103 0 163 107q41 71 41 163q0 96 -42 181q-64 128 -181 128 q-66 0 -114 -44q-88 -81 -88 -222z" />
<glyph unicode="&#xbb;" horiz-adv-x="868" vert-adv-y="2457" d="M66 737q0 5 10 16l13 12q7 8 13 8q10 0 23 -12l302 -263q39 -34 39 -57q0 -24 -53 -70l-280 -247q-21 -18 -30 -18q-5 0 -15 9l-13 13q-9 8 -9 14t11 20l219 273l-221 284q-9 12 -9 18zM389 737q0 5 11 16l12 12q7 8 14 8q9 0 22 -12l303 -263q38 -33 38 -50 q0 -31 -53 -77l-279 -247q-21 -18 -30 -18q-6 0 -16 9l-13 13q-9 8 -9 14t11 20l219 273l-220 284q-10 13 -10 18z" />
<glyph unicode="&#xbc;" horiz-adv-x="1662" vert-adv-y="2457" d="M187 1217q0 8 15 17q95 52 187 137q15 13 25 13h20q11 0 14 -5q2 -3 2 -27v-586q0 -70 6 -91q10 -46 92 -47q21 1 26 -7q4 -8 4 -9l-1 -8l-1 -25q-1 -23 -20 -23q-7 0 -57 6q-42 5 -83 5q-56 0 -117 -9q-42 -6 -62 -6q-26 0 -26 27v24q0 26 24 25l22 -1q36 -2 58 17 q23 20 23 121v481l-100 -58q-18 -11 -23 -11q-6 0 -11 8l-14 21q-3 5 -3 11zM384 -9q0 8 11 25l847 1347q13 19 18 19q4 2 23 2h46q22 0 22 -14q0 -3 -14 -29l-837 -1331q-15 -25 -21.5 -28.5t-33.5 -3.5h-39q-22 0 -22 13zM943 260q0 6 32 52l314 442l20 28q19 30 45 30 q27 0 27 -21q0 -3 -3 -74q-5 -128 -5 -154v-227h93q22 0 26 -3q3 -4 3 -22v-45q0 -13 -6 -17.5t-24 -4.5h-92v-218q0 -21 -5 -26q-5 -6 -28 -6h-41q-28 0 -32 5q-6 4 -6 27v218h-31q-136 0 -244 -13q-8 -1 -13 -1q-18 0 -23 13l-6 11q-1 3 -1 6zM1074 349q0 -13 28 -13h159 v285l-174 -248q-13 -19 -13 -24z" />
<glyph unicode="&#xbd;" horiz-adv-x="1662" vert-adv-y="2457" d="M162 1217q0 8 15 17q95 52 187 137q15 13 25 13h20q11 0 14 -5q2 -3 2 -27v-586q0 -70 6 -91q10 -46 92 -47q21 1 26 -7q4 -8 4 -9l-1 -8l-1 -25q-1 -23 -20 -23q-7 0 -57 6q-42 5 -83 5q-56 0 -117 -9q-42 -6 -62 -6q-26 0 -26 27v24q0 26 24 25l22 -1q36 -2 58 17 q23 20 23 121v481l-100 -58q-18 -11 -23 -11q-6 0 -11 8l-14 21q-3 5 -3 11zM335 -9q0 7 11 25l848 1347q12 19 17 19q5 2 24 2h45q22 0 22 -14q0 -4 -14 -29l-837 -1331q-15 -25 -21.5 -28.5t-33.5 -3.5h-39q-22 0 -22 13zM1015 20v30q0 22 3 29q0 3 16 16q116 90 216 199 q76 84 111 146q37 66 37 132q0 63 -29 96q-33 38 -78 38q-52 0 -116 -42q-13 -8 -58 -54q-12 -13 -19 -13q-5 0 -12 3l-14 7q-11 5 -11 13q0 6 10 21q49 78 122 128q71 49 151 49q93 0 144 -57q50 -55 50 -138q0 -183 -319 -455l-63 -54q115 -2 148 -2q47 0 173 6q68 3 70 3 q22 0 23 -11v-6l2 -5l-4 -7l-9 -20l-34 -59q-12 -21 -35 -21q-14 0 -58 3q-83 6 -114 6q-138 0 -211 -5q-54 -4 -71 -4q-21 0 -21 28z" />
<glyph unicode="&#xbe;" horiz-adv-x="1662" vert-adv-y="2457" d="M119 637q0 20 16 35q17 15 36 15q32 0 85 -39q44 -32 71 -32q66 0 124 66q63 72 63 162q0 85 -82 121q-31 14 -60 14q-10 0 -23 -2h-5q-13 0 -21 16q-5 10 -5 14q0 9 19 22q11 8 76 68q58 54 58 99q0 34 -30 56q-27 20 -73 20q-68 0 -119 -19q-11 -4 -15 -4q-15 0 -28 20 q-4 7 -4 11q0 18 58 56q72 48 150 48q80 0 128 -44q45 -42 45 -98q0 -80 -120 -167q64 -16 94 -39q69 -51 69 -150q0 -130 -106 -230q-110 -103 -241 -103q-93 0 -141 44q-19 18 -19 40zM406 16l847 1347q12 20 18 19q4 2 23 2h46q21 0 21 -14q0 -4 -14 -29l-836 -1331 q-16 -25 -22.5 -28.5t-33.5 -3.5h-38q-22 0 -22 12q0 10 11 26zM948 260q0 6 32 52l314 442q18 25 20 28q19 30 45 30q27 0 27 -21q0 -3 -3 -74q-5 -132 -5 -154v-227h93q22 0 26 -3q3 -4 3 -22v-45q0 -13 -6 -17.5t-24 -4.5h-92v-218q0 -21 -5 -26q-5 -6 -28 -6h-41 q-27 0 -31 5q-7 4 -7 27v218h-31q-136 0 -244 -13q-8 -1 -13 -1q-17 0 -23 13l-5 11q-2 3 -2 6zM1080 349q0 -13 27 -13h159v285l-174 -248q-12 -21 -12 -24z" />
<glyph unicode="&#xbf;" horiz-adv-x="755" vert-adv-y="2457" d="M92 51q0 217 182 278q76 25 162 25h24l15 135q5 33 25 34h23q11 0 17 -9q3 -3 4 -29l7 -299q-117 -4 -203 -43q-149 -66 -149 -205q0 -79 49 -142q54 -69 144 -90q44 -10 103 -15q59 -4 80 -25q30 -30 30 -75t-29 -76q-34 -36 -88 -36q-66 0 -139.5 49.5t-133.5 134.5 t-93 193q-30 100 -30 195zM390 781q0 55 42 94q35 32 85 32q55 0 92 -42q33 -36 33 -86q0 -54 -42 -92q-36 -32 -84 -32q-56 0 -94 42q-32 36 -32 84z" />
<glyph unicode="&#xc0;" horiz-adv-x="1548" vert-adv-y="2457" d="M37 14v22q0 10 4 14q7 4 42 7q80 6 110 32q23 19 38 58q13 32 44 121l377 1097q60 73 134 110l487 -1224q49 -122 71 -144q49 -50 141 -50h4q15 -2 15 -21v-25q0 -22 -18 -22q-13 0 -30 1q-157 10 -235 10q-114 0 -219 -10q-17 -1 -25 -1q-19 0 -19 25v20q0 14 4 17 q5 4 50 6q112 5 112 55q0 18 -12 48l-26 65l-129 333h-480l-75 -235q-40 -126 -40 -181q0 -84 160 -89q13 -1 13 -21v-21q0 -22 -20 -22h-2l-74 3q-172 8 -190 8q-39 0 -81 -4q-57 -5 -90 -6l-22 -1q-19 0 -19 25zM469 1835q0 52 40 81q22 15 43 15q31 0 58 -21 q22 -17 65 -56l263 -237q10 -9 10 -17q0 -7 -6 -18l-11 -19q-7 -11 -17 -11t-21 6l-311 152q-76 38 -96 69q-17 27 -17 56zM502 638h423l-227 583z" />
<glyph unicode="&#xc1;" horiz-adv-x="1548" vert-adv-y="2457" d="M37 14v22q0 10 4 14q7 4 42 7q80 6 110 32q23 19 38 58q13 32 44 121l377 1097q60 73 134 110l487 -1224q49 -122 71 -144q49 -50 141 -50h4q15 -2 15 -21v-25q0 -22 -18 -22q-13 0 -30 1q-157 10 -235 10q-114 0 -219 -10q-17 -1 -25 -1q-19 0 -19 25v20q0 14 4 17 q5 4 50 6q112 5 112 55q0 18 -12 48l-26 65l-129 333h-480l-75 -235q-40 -126 -40 -181q0 -84 160 -89q13 -1 13 -21v-21q0 -22 -20 -22h-2l-74 3q-172 8 -190 8q-39 0 -81 -4q-57 -5 -90 -6l-22 -1q-19 0 -19 25zM502 638h423l-227 583zM603 1600q0 9 9 17l263 237 q43 39 65 56q28 21 58 21q25 0 49 -20q34 -29 34 -76q0 -34 -21 -62t-92 -63l-310 -152q-12 -6 -21 -6q-11 0 -18 11l-11 19q-5 10 -5 18z" />
<glyph unicode="&#xc2;" horiz-adv-x="1548" vert-adv-y="2457" d="M37 14v22q0 10 4 14q7 4 42 7q80 6 110 32q23 19 38 58q13 32 44 121l377 1097q60 73 134 110l487 -1224q49 -122 71 -144q49 -50 141 -50h4q15 -2 15 -21v-25q0 -22 -18 -22q-13 0 -30 1q-157 10 -235 10q-114 0 -219 -10q-17 -1 -25 -1q-19 0 -19 25v20q0 14 4 17 q5 4 50 6q112 5 112 55q0 18 -12 48l-26 65l-129 333h-480l-75 -235q-40 -126 -40 -181q0 -84 160 -89q13 -1 13 -21v-21q0 -22 -20 -22h-2l-74 3q-172 8 -190 8q-39 0 -81 -4q-57 -5 -90 -6l-22 -1q-19 0 -19 25zM487 1601q0 6 14 21l202 208l51 48q38 34 69 34 q32 0 73 -38q8 -7 44 -45l202 -207q13 -13 13 -20q0 -5 -8 -14l-25 -26q-9 -10 -14 -10t-21 11l-269 168l-264 -170q-14 -9 -22 -9q-6 0 -14 10l-23 25q-8 10 -8 14zM502 638h423l-227 583z" />
<glyph unicode="&#xc3;" horiz-adv-x="1548" vert-adv-y="2457" d="M37 14v22q0 10 4 14q7 4 42 7q80 6 110 32q23 19 38 58q13 32 44 121l377 1097q60 73 134 110l487 -1224q49 -122 71 -144q49 -50 141 -50h4q15 -2 15 -21v-25q0 -22 -18 -22q-13 0 -30 1q-157 10 -235 10q-114 0 -219 -10q-17 -1 -25 -1q-19 0 -19 25v20q0 14 4 17 q5 4 50 6q112 5 112 55q0 18 -12 48l-26 65l-129 333h-480l-75 -235q-40 -126 -40 -181q0 -84 160 -89q13 -1 13 -21v-21q0 -22 -20 -22h-2l-74 3q-172 8 -190 8q-39 0 -81 -4q-57 -5 -90 -6l-22 -1q-19 0 -19 25zM413 1583q0 17 9.5 61.5t17.5 68.5q33 90 87 143 q49 48 107 48q41 0 72 -18q23 -13 141 -99q80 -59 109 -59q27 0 50 37q15 25 46 106q7 20 16 20q6 0 15 -4l20 -9q12 -5 12 -23q0 -23 -21 -91q-39 -125 -93 -180q-32 -32 -69 -32q-43 0 -96 35q-12 8 -96 78q-77 63 -130 63q-81 0 -136 -158q-6 -18 -12 -18q-7 0 -13 2 l-25 11q-11 4 -11 18zM502 638h423l-227 583z" />
<glyph unicode="&#xc4;" horiz-adv-x="1548" vert-adv-y="2457" d="M37 14v22q0 10 4 14q7 4 42 7q80 6 110 32q23 19 38 58q13 32 44 121l377 1097q60 73 134 110l487 -1224q49 -122 71 -144q49 -50 141 -50h4q15 -2 15 -21v-25q0 -22 -18 -22q-13 0 -30 1q-157 10 -235 10q-114 0 -219 -10q-17 -1 -25 -1q-19 0 -19 25v20q0 14 4 17 q5 4 50 6q112 5 112 55q0 18 -12 48l-26 65l-129 333h-480l-75 -235q-40 -126 -40 -181q0 -84 160 -89q13 -1 13 -21v-21q0 -22 -20 -22h-2l-74 3q-172 8 -190 8q-39 0 -81 -4q-57 -5 -90 -6l-22 -1q-19 0 -19 25zM476 1735q0 48 38 83q31 29 75 29q49 0 84 -38 q29 -32 29 -75q0 -50 -38 -84q-32 -29 -76 -29q-49 0 -83 37q-29 32 -29 77zM502 638h423l-227 583zM916 1735q0 48 37 83q32 29 76 29q49 0 84 -38q29 -32 29 -75q0 -50 -38 -84q-33 -29 -76 -29q-49 0 -83 37q-29 33 -29 77z" />
<glyph unicode="&#xc5;" horiz-adv-x="1548" vert-adv-y="2457" d="M37 14v22q0 10 4 14q7 4 42 7q80 6 110 32q23 19 38 58q13 32 44 121l377 1097q60 73 134 110l487 -1224q49 -122 71 -144q49 -50 141 -50h4q15 -2 15 -21v-25q0 -22 -18 -22q-13 0 -30 1q-157 10 -235 10q-114 0 -219 -10q-17 -1 -25 -1q-19 0 -19 25v20q0 14 4 17 q5 4 50 6q112 5 112 55q0 18 -12 48l-26 65l-129 333h-480l-75 -235q-40 -126 -40 -181q0 -84 160 -89q13 -1 13 -21v-21q0 -22 -20 -22h-2l-74 3q-172 8 -190 8q-39 0 -81 -4q-57 -5 -90 -6l-22 -1q-19 0 -19 25zM502 638h423l-227 583zM536 1732q0 82 62 146q74 74 177 74 q106 0 177 -74q61 -63 61 -146q0 -90 -72 -158q-72 -69 -169 -69q-100 0 -169 69q-67 67 -67 158zM639 1728q0 -50 32 -82q38 -38 103 -38q63 0 103 40q33 34 33 81q0 46 -32 79q-41 41 -102 41q-62 0 -104 -43q-33 -33 -33 -78z" />
<glyph unicode="&#xc6;" horiz-adv-x="2190" vert-adv-y="2457" d="M36 9v26q0 14 6 18q6 3 60 7q66 7 98 32q29 25 149 183l639 882q23 32 43 85q11 29 11 48q0 36 -35 47q-22 7 -96 11q-43 2 -48 7q-3 4 -4 19v24q0 14 5 19q7 6 29 6q15 0 66 -3q165 -8 392 -8q78 0 228 5q82 3 123 3l264 3h12q29 0 37 -5q9 -6 9 -51v-206q-1 -35 -5 -40 q-3 -5 -17 -5h-20q-15 0 -19 5q-3 7 -7 57q-9 120 -86 156q-46 22 -204 22q-194 0 -241 -17q-42 -15 -54 -75q-4 -23 -4 -126v-342q18 -1 50 -2l49 -1q203 6 246 21q51 21 76 73q13 24 23 64q4 11 17 17l6 -1l12 -1q21 0 21 -19q0 -17 -3 -43q-10 -79 -10 -157 q0 -114 8 -156q7 -34 7 -47q0 -17 -19 -18l-24 -2l-7 -2h-1q-15 0 -29 99q-9 69 -34 83q-27 14 -128 18q-106 4 -127 4q-24 0 -65 -2q-39 -2 -68 -2v-444q0 -87 6 -111q17 -64 78 -86q50 -15 170 -16h97q171 1 227 27q37 19 76 81q22 33 55 99q15 30 27 30q47 0 47 -21 q0 -7 -10 -42l-50 -174q-13 -46 -24 -63q-8 -13 -34 -13l-48 1l-477 6l-76 2h-75l-97 2q-83 0 -201 -8q-38 -3 -63 -3q-27 0 -27 26v14q0 18 9 24q8 4 61 4q110 0 134 63q9 28 11 151v459h-401l-304 -426q-101 -142 -101 -188q0 -35 38 -47q26 -8 96 -13q31 -2 35 -5 q5 -4 5 -17v-26q0 -19 -16 -19q-14 0 -50 3q-107 8 -199 8q-116 0 -195 -8q-26 -3 -38 -3q-17 0 -17 20zM833 799h350v376q0 89 -7 111q-6 18 -20 32q-62 -157 -134 -256z" />
<glyph unicode="&#xc7;" horiz-adv-x="1511" vert-adv-y="2457" d="M97 706q0 224 132 410q118 165 312 255q173 79 359 79q174 0 360 -61q60 -20 130 -59l30 -255q2 -17 2 -22q1 -14 -17 -17l-16 -2l-12 -2q-5 0 -8 3q-2 2 -19 44q-42 103 -94 156q-62 65 -162 102q-93 34 -192 34q-145 0 -271 -72q-152 -88 -236 -271q-69 -152 -69 -324 q0 -290 189 -489q169 -177 392 -177q165 0 313 79q103 56 150 213q10 36 26 36q7 0 11 -1l15 -1q20 -3 20 -18q0 -8 -5 -35l-44 -244q-192 -101 -451 -108l-63 -72q73 -12 114 -41q62 -43 62 -107q0 -81 -77 -144q-71 -59 -193 -59q-109 0 -168 35q-25 14 -25 39q0 21 17 36 q12 10 27 10q17 0 44 -12q72 -32 109 -32q52 0 79 32q24 27 24 60q0 50 -46 74q-25 14 -100 15l-22 47l140 121q-248 18 -442 150q-155 106 -241 264q-84 156 -84 331z" />
<glyph unicode="&#xc8;" horiz-adv-x="1284" vert-adv-y="2457" d="M48 15v14q0 18 9 24q9 4 79 4q96 1 126 47q17 25 19 167v869q-1 128 -11 153q-16 43 -71 57q-30 5 -115 6q-28 0 -29 28v13q0 26 28 26q21 0 65 -3q1 0 81 -2q56 -1 99 -3q76 -3 99 -3q28 0 106 4q163 7 220 7h299q46 0 53 -9q5 -7 5 -47v-206q-1 -36 -5 -40 q-3 -5 -16 -5h-21q-15 0 -18 5q-4 7 -7 57q-9 121 -86 156q-47 22 -198 22q-134 0 -201 -9q-67 -8 -83 -61q-10 -33 -10 -148v-342q70 -3 99 -3q196 0 246 21q67 27 99 137q4 10 16 17l7 -1l12 -1q21 0 21 -20q0 -16 -4 -42q-10 -72 -10 -159q0 -113 8 -154q7 -33 7 -46 q0 -18 -19 -19l-23 -2l-7 -1q-10 0 -16 16q-5 16 -14 82q-10 70 -34 83q-27 14 -128 18q-106 4 -127 4q-23 0 -65 -2q-38 -1 -68 -2v-444q0 -87 6 -111q17 -63 78 -85q50 -16 170 -16h69q172 0 227 26q37 19 77 81q20 32 54 99q16 30 27 30q47 0 47 -21q0 -8 -10 -42 l-50 -174q-13 -46 -24 -63q-8 -13 -34 -13l-48 1l-449 6l-76 2h-75l-108 2q-51 0 -176 -8q-41 -3 -83 -3q-26 0 -33 6q-6 5 -6 20zM337 1835q0 52 40 81q21 15 43 15q31 0 58 -21q22 -17 65 -56l263 -237q10 -9 10 -17t-6 -18l-11 -19q-6 -11 -17 -11q-9 0 -21 6l-310 152 q-77 38 -97 69q-17 27 -17 56z" />
<glyph unicode="&#xc9;" horiz-adv-x="1284" vert-adv-y="2457" d="M48 15v14q0 18 9 24q9 4 79 4q96 1 126 47q17 25 19 167v869q-1 128 -11 153q-16 43 -71 57q-30 5 -115 6q-28 0 -29 28v13q0 26 28 26q21 0 65 -3q1 0 81 -2q56 -1 99 -3q76 -3 99 -3q28 0 106 4q163 7 220 7h299q46 0 53 -9q5 -7 5 -47v-206q-1 -36 -5 -40 q-3 -5 -16 -5h-21q-15 0 -18 5q-4 7 -7 57q-9 121 -86 156q-47 22 -198 22q-134 0 -201 -9q-67 -8 -83 -61q-10 -33 -10 -148v-342q70 -3 99 -3q196 0 246 21q67 27 99 137q4 10 16 17l7 -1l12 -1q21 0 21 -20q0 -16 -4 -42q-10 -72 -10 -159q0 -113 8 -154q7 -33 7 -46 q0 -18 -19 -19l-23 -2l-7 -1q-10 0 -16 16q-5 16 -14 82q-10 70 -34 83q-27 14 -128 18q-106 4 -127 4q-23 0 -65 -2q-38 -1 -68 -2v-444q0 -87 6 -111q17 -63 78 -85q50 -16 170 -16h69q172 0 227 26q37 19 77 81q20 32 54 99q16 30 27 30q47 0 47 -21q0 -8 -10 -42 l-50 -174q-13 -46 -24 -63q-8 -13 -34 -13l-48 1l-449 6l-76 2h-75l-108 2q-51 0 -176 -8q-41 -3 -83 -3q-26 0 -33 6q-6 5 -6 20zM471 1600q0 8 9 17l264 237q43 39 65 56q27 21 57 21q26 0 50 -20q34 -29 34 -76q0 -34 -22 -62q-20 -28 -92 -63l-310 -152q-12 -6 -21 -6 q-11 0 -18 11l-11 19q-5 10 -5 18z" />
<glyph unicode="&#xca;" horiz-adv-x="1284" vert-adv-y="2457" d="M48 15v14q0 18 9 24q9 4 79 4q96 1 126 47q17 25 19 167v869q-1 128 -11 153q-16 43 -71 57q-30 5 -115 6q-28 0 -29 28v13q0 26 28 26q21 0 65 -3q1 0 81 -2q56 -1 99 -3q76 -3 99 -3q28 0 106 4q163 7 220 7h299q46 0 53 -9q5 -7 5 -47v-206q-1 -36 -5 -40 q-3 -5 -16 -5h-21q-15 0 -18 5q-4 7 -7 57q-9 121 -86 156q-47 22 -198 22q-134 0 -201 -9q-67 -8 -83 -61q-10 -33 -10 -148v-342q70 -3 99 -3q196 0 246 21q67 27 99 137q4 10 16 17l7 -1l12 -1q21 0 21 -20q0 -16 -4 -42q-10 -72 -10 -159q0 -113 8 -154q7 -33 7 -46 q0 -18 -19 -19l-23 -2l-7 -1q-10 0 -16 16q-5 16 -14 82q-10 70 -34 83q-27 14 -128 18q-106 4 -127 4q-23 0 -65 -2q-38 -1 -68 -2v-444q0 -87 6 -111q17 -63 78 -85q50 -16 170 -16h69q172 0 227 26q37 19 77 81q20 32 54 99q16 30 27 30q47 0 47 -21q0 -8 -10 -42 l-50 -174q-13 -46 -24 -63q-8 -13 -34 -13l-48 1l-449 6l-76 2h-75l-108 2q-51 0 -176 -8q-41 -3 -83 -3q-26 0 -33 6q-6 5 -6 20zM355 1601q0 6 14 21l203 208l50 48q38 34 69 34q32 0 73 -38q8 -7 44 -45l202 -207q14 -13 14 -20q0 -4 -9 -14l-25 -26q-9 -10 -14 -10 t-21 11l-269 168l-264 -170q-14 -9 -21 -9t-15 10l-23 25q-8 10 -8 14z" />
<glyph unicode="&#xcb;" horiz-adv-x="1284" vert-adv-y="2457" d="M48 15v14q0 18 9 24q9 4 79 4q96 1 126 47q17 25 19 167v869q-1 128 -11 153q-16 43 -71 57q-30 5 -115 6q-28 0 -29 28v13q0 26 28 26q21 0 65 -3q1 0 81 -2q56 -1 99 -3q76 -3 99 -3q28 0 106 4q163 7 220 7h299q46 0 53 -9q5 -7 5 -47v-206q-1 -36 -5 -40 q-3 -5 -16 -5h-21q-15 0 -18 5q-4 7 -7 57q-9 121 -86 156q-47 22 -198 22q-134 0 -201 -9q-67 -8 -83 -61q-10 -33 -10 -148v-342q70 -3 99 -3q196 0 246 21q67 27 99 137q4 10 16 17l7 -1l12 -1q21 0 21 -20q0 -16 -4 -42q-10 -72 -10 -159q0 -113 8 -154q7 -33 7 -46 q0 -18 -19 -19l-23 -2l-7 -1q-10 0 -16 16q-5 16 -14 82q-10 70 -34 83q-27 14 -128 18q-106 4 -127 4q-23 0 -65 -2q-38 -1 -68 -2v-444q0 -87 6 -111q17 -63 78 -85q50 -16 170 -16h69q172 0 227 26q37 19 77 81q20 32 54 99q16 30 27 30q47 0 47 -21q0 -8 -10 -42 l-50 -174q-13 -46 -24 -63q-8 -13 -34 -13l-48 1l-449 6l-76 2h-75l-108 2q-51 0 -176 -8q-41 -3 -83 -3q-26 0 -33 6q-6 5 -6 20zM345 1735q0 48 37 83q32 29 76 29q50 0 84 -38q29 -32 29 -75q0 -50 -38 -84q-32 -29 -76 -29q-49 0 -83 37q-29 33 -29 77zM785 1735 q0 48 37 83q32 29 76 29q50 0 84 -38q29 -32 29 -75q0 -50 -38 -84q-32 -29 -76 -29q-49 0 -83 37q-29 33 -29 77z" />
<glyph unicode="&#xcc;" horiz-adv-x="680" vert-adv-y="2457" d="M35 1835q0 52 40 81q22 15 43 15q30 0 58 -21q22 -17 65 -56l263 -237q10 -9 10 -17q0 -7 -6 -18l-11 -19q-6 -11 -18 -11q-9 0 -20 6l-311 152q-76 38 -96 69q-17 27 -17 56zM38 1384v13q0 26 30 26q20 0 62 -3q129 -8 206 -8q109 0 222 8q35 3 56 3q27 0 27 -26v-13 q0 -19 -9 -24q-8 -4 -40 -5q-75 -2 -98 -13q-39 -17 -51 -55q-8 -29 -9 -147v-869q1 -141 19 -168q15 -25 52 -38q22 -8 87 -8q40 0 47 -5q8 -6 8 -24v-13q0 -26 -29 -26q-22 0 -60 3q-117 8 -220 8q-80 0 -205 -8q-40 -3 -64 -3q-29 0 -29 26v13q0 18 9 24q8 4 56 5 q97 0 126 46q18 27 19 168v869q-1 127 -11 153q-17 43 -71 57q-27 5 -100 6q-29 0 -30 28z" />
<glyph unicode="&#xcd;" horiz-adv-x="680" vert-adv-y="2457" d="M39 1384v13q0 26 29 26q24 0 63 -3q128 -8 206 -8q110 0 222 8q35 3 56 3q27 0 27 -26v-13q0 -19 -9 -24q-7 -4 -40 -5q-74 -2 -98 -13q-39 -17 -51 -55q-8 -29 -9 -147v-869q1 -141 19 -168q15 -25 52 -38q22 -8 87 -8q40 0 47 -5q8 -6 8 -24v-13q0 -26 -28 -26 q-22 0 -61 3q-119 8 -220 8q-79 0 -205 -8q-41 -3 -63 -3q-31 0 -31 26v13q1 19 9 24q9 4 57 5q97 0 126 46q18 26 19 168v869q-1 127 -11 153q-16 43 -71 57q-28 5 -100 6q-29 0 -30 28zM169 1600q0 8 9 17l264 237q43 39 65 56q27 21 57 21q26 0 50 -20q34 -29 34 -76 q0 -34 -21 -62t-93 -63l-310 -152q-12 -6 -21 -6q-11 0 -17 11l-11 19q-6 10 -6 18z" />
<glyph unicode="&#xce;" horiz-adv-x="680" vert-adv-y="2457" d="M11 1601q0 7 14 21l202 208l50 48q38 34 69 34q33 0 74 -38q8 -7 44 -45l202 -207q13 -13 13 -20q0 -5 -9 -14l-25 -26q-9 -10 -13 -10t-21 11l-270 168l-264 -170q-13 -9 -21 -9q-6 0 -14 10l-23 25q-8 9 -8 14zM39 1384v13q0 26 29 26q21 0 63 -3q129 -8 205 -8 q111 0 223 8q35 3 56 3q27 0 27 -26v-13q0 -19 -9 -24q-8 -4 -41 -5q-74 -2 -97 -13q-39 -17 -51 -55q-8 -27 -9 -147v-869q2 -143 19 -168q15 -25 52 -38q21 -8 86 -8q41 -1 48 -6q8 -6 8 -23v-13q0 -26 -28 -26q-22 0 -61 3q-117 8 -220 8q-86 0 -205 -8q-39 -3 -64 -3 q-30 0 -30 26v13q0 21 9 24.5t57 4.5q96 0 126 46q17 25 19 168v869q-2 113 -7 141q-20 74 -138 74h-3q-48 1 -56 6q-8 6 -8 23z" />
<glyph unicode="&#xcf;" horiz-adv-x="680" vert-adv-y="2457" d="M8 1735q0 48 37 83q32 29 76 29q50 0 84 -38q29 -32 29 -75q0 -50 -38 -84q-32 -29 -76 -29q-49 0 -83 37q-29 33 -29 77zM39 1384v13q0 26 29 26q23 0 63 -3q133 -8 205 -8q107 0 223 8q36 3 56 3q27 0 27 -26v-13q0 -18 -9 -24q-7 -4 -40 -5q-75 -2 -98 -13 q-39 -17 -51 -55q-8 -29 -9 -147v-869q1 -141 19 -168q15 -25 52 -38q21 -8 87 -8q40 -1 47 -5q8 -7 8 -24v-13q0 -26 -29 -26q-21 0 -60 3q-119 8 -220 8q-86 0 -205 -8q-39 -3 -65 -3q-29 0 -29 26v13q0 21 9 24.5t57 4.5q96 0 126 46q18 26 19 168v869q-1 112 -7 141 q-20 74 -138 74h-3q-48 1 -56 6t-8 23zM448 1735q0 48 38 83q31 29 75 29q50 0 84 -38q29 -32 29 -75q0 -50 -38 -84q-32 -29 -76 -29q-49 0 -83 37q-29 33 -29 77z" />
<glyph unicode="&#xd0;" horiz-adv-x="1624" vert-adv-y="2457" d="M21 1373q0 16 26 23q53 13 200 28q240 26 452 26q290 0 484 -109q169 -96 264 -260q94 -161 94 -367q0 -253 -143 -434q-167 -209 -465 -270q-105 -21 -259 -21q-67 0 -226 8q-71 3 -108 3q-110 0 -224 -8q-37 -3 -62 -3q-27 0 -27 26v14q0 18 9 24q8 4 47 4q78 1 104 13 q39 18 51 56q8 27 9 146v443h-202v79h202v229q0 215 -9 250q-16 65 -112 65q-30 0 -69 -8q-12 -2 -18 -2q-18 0 -18 45zM431 794h485v-79h-485v-361q0 -116 15 -160q24 -74 110 -109q74 -31 174 -31q185 0 334 106q141 101 209 272q51 131 51 283q0 301 -184 498 q-97 104 -217 141q-102 31 -242 31q-184 0 -227 -53q-16 -21 -20 -64q-3 -24 -3 -105v-369z" />
<glyph unicode="&#xd1;" horiz-adv-x="1737" vert-adv-y="2457" d="M27 1375v21q0 16 8 21q9 6 73 6q140 0 371 -13l658 -848q12 -25 180 -196l71 -71v845q-1 127 -11 153q-17 44 -71 57q-22 4 -101 6q-29 0 -30 28v13q0 26 27 26q24 0 62 -3q103 -8 176 -8q15 0 175 8q50 3 59 3q27 0 27 -26v-13q-1 -18 -10 -24q-8 -4 -56 -5 q-96 -1 -126 -46q-13 -21 -16 -61q-3 -20 -3 -108v-1204h-49l-1054 1252v-917q2 -129 11 -152q16 -43 72 -57q30 -5 101 -6q28 0 29 -28v-13q0 -26 -27 -26q-3 0 -134 7q-86 4 -96 4q-17 0 -173 -8q-50 -3 -56 -3q-27 0 -27 26v13q0 20 8.5 24t55.5 5q96 0 126 46 q18 26 19 168v868q0 75 -7 93q-12 29 -69 75q-50 38 -88 43q-23 3 -83 4q-22 1 -22 21zM508 1583q0 16 9.5 61.5t17.5 68.5q32 89 87 143q49 48 107 48q40 0 71 -17q25 -14 142 -100q80 -59 109 -59q27 0 49 37q16 25 46 106q8 20 17 20q6 0 15 -4l19 -9q13 -6 13 -23 q0 -22 -21 -91q-66 -212 -162 -212q-43 0 -96 35q-12 8 -97 78q-76 63 -129 63q-81 0 -136 -158q-6 -18 -12 -18q-7 0 -13 2l-25 11q-11 4 -11 18z" />
<glyph unicode="&#xd2;" horiz-adv-x="1737" vert-adv-y="2457" d="M89 679q0 202 105 381q107 184 295 291q173 99 379 99q208 0 397 -102q196 -105 298 -287q85 -153 85 -327q0 -201 -112 -387q-114 -190 -310 -293q-180 -95 -388 -95q-316 0 -528 194q-221 201 -221 526zM306 755q0 -325 181 -543q151 -184 399 -184q225 0 369 157 q176 193 176 493q0 230 -108 413q-93 158 -238 234q-111 58 -246 58q-219 0 -361 -147q-77 -79 -121 -198q-51 -139 -51 -283zM564 1835q0 52 40 81q22 15 43 15q31 0 58 -21q21 -16 65 -56l263 -237q10 -9 10 -17t-6 -18l-11 -19q-6 -11 -17 -11q-9 0 -21 6l-310 152 q-77 38 -97 69q-17 27 -17 56z" />
<glyph unicode="&#xd3;" horiz-adv-x="1737" vert-adv-y="2457" d="M89 679q0 202 105 381q107 184 295 291q173 99 379 99q208 0 397 -102q196 -105 298 -287q85 -153 85 -327q0 -201 -112 -387q-114 -190 -310 -293q-180 -95 -388 -95q-316 0 -528 194q-221 201 -221 526zM306 755q0 -325 181 -543q151 -184 399 -184q225 0 369 157 q176 193 176 493q0 230 -108 413q-93 158 -238 234q-111 58 -246 58q-219 0 -361 -147q-77 -79 -121 -198q-51 -139 -51 -283zM698 1600q0 8 9 17l264 237q44 40 64 56q27 21 58 21q25 0 49 -20q34 -29 34 -76q0 -34 -21 -62t-92 -63l-310 -152q-12 -6 -21 -6q-11 0 -18 11 l-10 19q-6 10 -6 18z" />
<glyph unicode="&#xd4;" horiz-adv-x="1737" vert-adv-y="2457" d="M89 679q0 202 105 381q107 184 295 291q173 99 379 99q208 0 397 -102q196 -105 298 -287q85 -153 85 -327q0 -201 -112 -387q-114 -190 -310 -293q-180 -95 -388 -95q-316 0 -528 194q-221 201 -221 526zM306 755q0 -325 181 -543q151 -184 399 -184q225 0 369 157 q176 193 176 493q0 230 -108 413q-93 158 -238 234q-111 58 -246 58q-219 0 -361 -147q-77 -79 -121 -198q-51 -139 -51 -283zM582 1601q0 6 14 21l203 208l50 48q38 34 69 34q32 0 73 -38q8 -7 44 -45l202 -207q13 -13 13 -20q0 -5 -8 -14l-25 -26q-9 -10 -13 -10 q-5 0 -22 11l-269 168l-264 -170q-14 -9 -21 -9q-6 0 -15 10l-23 25q-8 9 -8 14z" />
<glyph unicode="&#xd5;" horiz-adv-x="1737" vert-adv-y="2457" d="M89 679q0 202 105 381q107 184 295 291q173 99 379 99q208 0 397 -102q196 -105 298 -287q85 -153 85 -327q0 -201 -112 -387q-114 -190 -310 -293q-180 -95 -388 -95q-316 0 -528 194q-221 201 -221 526zM306 755q0 -325 181 -543q151 -184 399 -184q225 0 369 157 q176 193 176 493q0 230 -108 413q-93 158 -238 234q-111 58 -246 58q-219 0 -361 -147q-77 -79 -121 -198q-51 -139 -51 -283zM508 1583q0 16 9.5 61.5t17.5 68.5q32 89 87 143q49 48 107 48q41 0 72 -17q24 -14 141 -100q80 -59 109 -59q27 0 50 37q15 26 46 106 q7 20 16 20q6 0 16 -4l19 -9q13 -6 13 -23q0 -23 -21 -91q-39 -124 -94 -180q-31 -32 -68 -32q-43 0 -96 35q-12 8 -97 78q-76 63 -130 63q-84 0 -135 -158q-6 -18 -13 -18t-13 2l-25 11q-11 4 -11 18z" />
<glyph unicode="&#xd6;" horiz-adv-x="1737" vert-adv-y="2457" d="M89 679q0 202 105 381q107 184 295 291q173 99 379 99q208 0 397 -102q196 -105 298 -287q85 -153 85 -327q0 -201 -112 -387q-114 -190 -310 -293q-180 -95 -388 -95q-316 0 -528 194q-221 201 -221 526zM306 755q0 -325 181 -543q151 -184 399 -184q225 0 369 157 q176 193 176 493q0 230 -108 413q-93 158 -238 234q-111 58 -246 58q-219 0 -361 -147q-77 -79 -121 -198q-51 -139 -51 -283zM571 1736q0 47 37 82q32 29 76 29q50 0 84 -38q29 -32 29 -75q0 -50 -38 -84q-32 -29 -76 -29q-49 0 -83 37q-29 33 -29 78zM1011 1736 q0 47 37 82q32 29 76 29q50 0 84 -38q29 -32 29 -75q0 -50 -38 -84q-32 -29 -76 -29q-49 0 -83 37q-29 33 -29 78z" />
<glyph unicode="&#xd7;" horiz-adv-x="1662" vert-adv-y="2457" d="M319 48q0 9 8 17l418 425l-418 426q-8 8 -8 17t8 18l49 51q8 9 20 9q9 0 16 -7l416 -425l416 425q6 7 16 7q11 0 20 -9l49 -51q8 -9 8 -18t-8 -17l-418 -426l418 -425q8 -8 8 -17q0 -10 -8 -18l-49 -51q-9 -9 -20 -9q-10 0 -16 7l-416 425l-416 -425q-7 -7 -16 -7 q-11 0 -20 9l-49 51q-8 8 -8 18z" />
<glyph unicode="&#xd8;" horiz-adv-x="1737" vert-adv-y="2457" d="M59 0q0 15 32 45l158 148q-183 196 -183 476q0 298 206 523q237 258 587 258q232 0 433 -116q49 -28 100 -69l167 157q30 28 42 28t29 -18q19 -19 19 -32q0 -7 -26 -32l-169 -159q200 -204 200 -476q0 -200 -114 -386q-116 -190 -316 -293q-183 -95 -396 -95 q-301 0 -515 176l-156 -146q-36 -35 -51 -35q-11 0 -30 18q-17 17 -17 28zM283 748q0 -235 106 -424l890 835q-180 224 -449 224q-226 0 -371 -147q-79 -79 -123 -198q-53 -138 -53 -290zM436 251q176 -223 441 -223q230 0 380 157q180 190 180 492q0 224 -110 412z" />
<glyph unicode="&#xd9;" horiz-adv-x="1662" vert-adv-y="2457" d="M51 1384v13q0 26 27 26q19 0 59 -3q101 -9 228 -9q109 0 220 9q43 3 67 3q27 0 27 -26v-13q0 -18 -9 -24q-8 -4 -72 -5q-96 0 -126 -46q-13 -20 -16 -62q-3 -29 -3 -107v-535q0 -137 2.5 -179t14.5 -89q29 -124 118 -187q104 -74 274 -74q162 0 276 73q118 75 154 228 q22 91 22 244v510q0 141 -11 174q-15 32 -59 43q-31 7 -89 8q-26 1 -27 25v17q0 25 21 25q12 0 41 -4q87 -3 174 -7q187 8 213 9q18 2 29 2q23 0 23 -21v-25q0 -13 -7 -17q-6 -4 -34 -4q-74 -1 -106 -8q-55 -13 -64 -67q-3 -26 -3 -117v-635q0 -260 -127 -402 q-150 -168 -450 -168q-304 0 -455 148q-80 79 -101 192q-13 70 -13 154v687q-2 130 -11 152q-16 43 -71 57q-32 6 -107 7q-28 0 -29 28zM526 1835q0 52 40 81q22 15 43 15q31 0 58 -21q21 -17 65 -56l263 -237q10 -9 10 -17q0 -7 -6 -18l-11 -19q-6 -11 -18 -11q-9 0 -20 6 l-311 152q-76 38 -96 69q-17 27 -17 56z" />
<glyph unicode="&#xda;" horiz-adv-x="1662" vert-adv-y="2457" d="M51 1384v13q0 26 27 26q19 0 59 -3q101 -9 228 -9q109 0 220 9q43 3 67 3q27 0 27 -26v-13q0 -18 -9 -24q-8 -4 -72 -5q-96 0 -126 -46q-13 -20 -16 -62q-3 -29 -3 -107v-535q0 -137 2.5 -179t14.5 -89q29 -124 118 -187q104 -74 274 -74q162 0 276 73q118 75 154 228 q22 91 22 244v510q0 141 -11 174q-15 32 -59 43q-31 7 -89 8q-26 1 -27 25v17q0 25 21 25q12 0 41 -4q87 -3 174 -7q187 8 213 9q18 2 29 2q23 0 23 -21v-25q0 -13 -7 -17q-6 -4 -34 -4q-74 -1 -106 -8q-55 -13 -64 -67q-3 -26 -3 -117v-635q0 -260 -127 -402 q-150 -168 -450 -168q-304 0 -455 148q-80 79 -101 192q-13 70 -13 154v687q-2 130 -11 152q-16 43 -71 57q-32 6 -107 7q-28 0 -29 28zM660 1600q0 9 9 17l263 237q44 40 65 56q27 21 57 21q26 0 50 -20q34 -29 34 -76q0 -34 -21 -62t-92 -63l-310 -152q-12 -6 -21 -6 q-11 0 -18 11l-11 19q-5 10 -5 18z" />
<glyph unicode="&#xdb;" horiz-adv-x="1662" vert-adv-y="2457" d="M51 1384v13q0 26 27 26q19 0 59 -3q101 -9 228 -9q109 0 220 9q43 3 67 3q27 0 27 -26v-13q0 -18 -9 -24q-8 -4 -72 -5q-96 0 -126 -46q-13 -20 -16 -62q-3 -29 -3 -107v-535q0 -137 2.5 -179t14.5 -89q29 -124 118 -187q104 -74 274 -74q162 0 276 73q118 75 154 228 q22 91 22 244v510q0 141 -11 174q-15 32 -59 43q-31 7 -89 8q-26 1 -27 25v17q0 25 21 25q12 0 41 -4q87 -3 174 -7q187 8 213 9q18 2 29 2q23 0 23 -21v-25q0 -13 -7 -17q-6 -4 -34 -4q-74 -1 -106 -8q-55 -13 -64 -67q-3 -26 -3 -117v-635q0 -260 -127 -402 q-150 -168 -450 -168q-304 0 -455 148q-80 79 -101 192q-13 70 -13 154v687q-2 130 -11 152q-16 43 -71 57q-32 6 -107 7q-28 0 -29 28zM544 1601q0 7 14 21l202 208l51 48q38 34 69 34q32 0 73 -38q8 -7 44 -45l202 -207q13 -13 13 -20q0 -5 -9 -14l-25 -26q-9 -10 -13 -10 t-21 11l-270 168l-263 -170q-14 -9 -22 -9q-6 0 -15 10l-22 25q-8 9 -8 14z" />
<glyph unicode="&#xdc;" horiz-adv-x="1662" vert-adv-y="2457" d="M51 1384v13q0 26 27 26q19 0 59 -3q101 -9 228 -9q109 0 220 9q43 3 67 3q27 0 27 -26v-13q0 -18 -9 -24q-8 -4 -72 -5q-96 0 -126 -46q-13 -20 -16 -62q-3 -29 -3 -107v-535q0 -137 2.5 -179t14.5 -89q29 -124 118 -187q104 -74 274 -74q162 0 276 73q118 75 154 228 q22 91 22 244v510q0 141 -11 174q-15 32 -59 43q-31 7 -89 8q-26 1 -27 25v17q0 25 21 25q12 0 41 -4q87 -3 174 -7q187 8 213 9q18 2 29 2q23 0 23 -21v-25q0 -13 -7 -17q-6 -4 -34 -4q-74 -1 -106 -8q-55 -13 -64 -67q-3 -26 -3 -117v-635q0 -260 -127 -402 q-150 -168 -450 -168q-304 0 -455 148q-80 79 -101 192q-13 70 -13 154v687q-2 130 -11 152q-16 43 -71 57q-32 6 -107 7q-28 0 -29 28zM533 1736q0 47 38 82q31 29 75 29q49 0 84 -37q29 -33 29 -76q0 -50 -38 -84q-32 -29 -76 -29q-49 0 -83 37q-29 33 -29 78zM973 1736 q0 47 37 82q32 29 76 29q50 0 84 -37q29 -32 29 -76q0 -51 -38 -84q-32 -29 -76 -29q-49 0 -83 37q-29 33 -29 78z" />
<glyph unicode="&#xdd;" horiz-adv-x="1473" vert-adv-y="2457" d="M17 1379v21q0 23 25 23q19 0 48 -2q128 -9 230 -9q79 0 217 9q27 2 48 2q23 0 23 -26v-18q0 -17 -6 -21q-6 -5 -40 -5h-13q-119 0 -119 -35q0 -11 48 -79l247 -346q47 -62 82 -99q45 49 139 177l106 147q112 154 112 196t-116 42q-52 0 -59 5q-3 4 -3 18v17q0 27 25 27 q17 0 50 -3q88 -8 169 -8q70 0 150 8q34 3 50 3q21 0 21 -22v-24q-1 -14 -5 -18q-6 -4 -42 -4q-57 0 -91 -28q-33 -26 -101 -120l-366 -509v-427q1 -126 11 -152q16 -43 71 -57q31 -5 111 -6q28 0 29 -28v-13q0 -26 -28 -26q-24 0 -62 3q-118 8 -225 8q-109 0 -223 -8 q-37 -3 -62 -3q-27 0 -27 26v13q0 21 9.5 24.5t66.5 4.5q96 0 126 46q17 26 19 168v320q0 63 -8 84q-10 24 -38 62l-379 519q-43 58 -65 73q-39 27 -135 28q-20 0 -20 22zM565 1600q0 8 9 17l264 237q43 39 65 56q27 21 57 21q26 0 49 -20q35 -29 35 -76q0 -34 -22 -62 q-21 -28 -92 -63l-310 -152q-12 -6 -21 -6q-11 0 -18 11l-10 19q-6 10 -6 18z" />
<glyph unicode="&#xde;" horiz-adv-x="1208" vert-adv-y="2457" d="M42 1387v17q0 20 26 20q29 0 116 -7q63 -5 142 -5q96 0 167 5q90 7 123 7q28 0 28 -21v-16q0 -18 -7 -23q-9 -4 -71 -6q-77 -3 -90 -10q-41 -20 -42 -99v-85q72 2 99 2q186 0 299 -45q140 -56 222 -173q78 -113 78 -225q0 -90 -62 -190q-80 -129 -224 -174 q-65 -21 -198 -24l-29 -1q-51 0 -51 26v18q0 10 2 15q4 10 30 9q12 -1 24 -1q83 0 153 37q148 77 148 276q0 166 -96 274q-95 108 -268 108q-82 0 -108 -33q-20 -24 -20 -126v-698q1 -88 8 -115q12 -59 132 -68q50 -4 59 -7q11 -3 12 -23v-18q0 -20 -28 -20q-26 0 -120 7 q-71 5 -147 5q-97 0 -170 -6q-83 -6 -113 -6q-24 0 -24 30v6q0 15 7 21q12 7 78 8q86 3 109 42q14 21 16 61q1 27 1 81v933q-1 108 -11 136q-19 52 -162 53q-27 1 -32 6q-6 4 -6 22z" />
<glyph unicode="&#xdf;" horiz-adv-x="1133" vert-adv-y="2457" d="M50 776v15q1 14 20 19q23 5 43 18q55 35 72 80q16 34 26 122q27 252 144 383q75 82 174 127q82 37 155 37q117 0 205 -71q89 -72 89 -192q0 -82 -48 -165q-30 -52 -100 -123q-58 -60 -73 -82q-27 -39 -27 -70q0 -64 144 -226q101 -114 133 -168q62 -106 62 -204 q0 -122 -76 -210q-81 -96 -207 -96q-80 0 -136 40q-58 41 -58 109q0 41 23 69t59 28q26 0 46 -14q26 -19 26 -51q0 -9 -2 -24q-1 -15 -1 -28q0 -74 72 -74q61 0 95 54q31 51 31 113q0 79 -65 178q-39 58 -121 147q-94 100 -119 143q-36 63 -36 120q0 54 41 123q15 26 71 105 q62 88 83 130q32 64 32 127q0 96 -52 164q-52 69 -152 69q-151 0 -210 -152q-49 -125 -49 -351v-724q0 -144 4 -168q4 -23 20 -33q6 -5 42 -18q20 -7 31 -8q31 -3 32 -19v-14q0 -25 -22 -25q-10 0 -22 1q-108 13 -162 13q-44 0 -115 -7q-70 -7 -91 -7q-27 0 -27 25v14 q1 17 33 19q95 7 111 45q8 14 9 50l1 132v320q0 94 -4 112q-6 27 -21 39q-14 11 -55 13l-41 1q-23 1 -29 4q-8 4 -8 16z" />
<glyph unicode="&#xe0;" horiz-adv-x="868" vert-adv-y="2457" d="M80 189q0 70 73 114q56 34 188 86l210 83v106q0 103 -32 141q-39 47 -132 47q-60 0 -111 -22q-42 -18 -42 -57q0 -15 10 -42l-127 -72q-13 34 -13 55q0 62 71 118q24 19 83 53l171 97q185 -1 238 -115q25 -65 25 -230v-13v-298l-1 -40q0 -110 64 -110q39 0 74 60l38 -15 q-46 -176 -169 -176q-63 0 -103 47q-39 46 -39 131q-69 -64 -101 -90q-104 -88 -198 -88q-70 0 -119 67q-58 80 -58 163zM206 1513q0 30 22 53q24 25 58 25q29 0 47 -18q28 -27 78 -147l138 -329q7 -17 7 -22q0 -6 -9 -11l-15 -9q-5 -4 -10 -4t-18 17l-218 291 q-41 55 -63 93q-17 28 -17 61zM246 210q0 -55 29 -106q26 -43 65 -43q64 0 136 67l58 56l17 17v212l-155 -69q-96 -43 -123 -70q-27 -28 -27 -64z" />
<glyph unicode="&#xe1;" horiz-adv-x="868" vert-adv-y="2457" d="M80 189q0 70 73 114q56 34 188 86l210 83v106q0 103 -32 141q-39 47 -132 47q-60 0 -111 -22q-42 -18 -42 -57q0 -15 10 -42l-127 -72q-13 34 -13 55q0 62 71 118q24 19 83 53l171 97q185 -1 238 -115q25 -65 25 -230v-13v-298l-1 -40q0 -110 64 -110q39 0 74 60l38 -15 q-46 -176 -169 -176q-63 0 -103 47q-39 46 -39 131q-69 -64 -101 -90q-104 -88 -198 -88q-70 0 -119 67q-58 80 -58 163zM246 210q0 -55 29 -106q26 -43 65 -43q64 0 136 67l58 56l17 17v212l-155 -69q-96 -43 -123 -70q-27 -28 -27 -64zM313 1075q0 6 7 22l138 329 q50 119 78 147q19 18 48 18q34 0 58 -25q22 -23 22 -53q0 -33 -17 -61q-21 -35 -64 -93l-218 -291q-13 -17 -17 -17q-5 0 -11 4l-15 9q-9 5 -9 11z" />
<glyph unicode="&#xe2;" horiz-adv-x="868" vert-adv-y="2457" d="M80 189q0 70 73 114q56 34 188 86l210 83v106q0 103 -32 141q-39 47 -132 47q-60 0 -111 -22q-42 -18 -42 -57q0 -15 10 -42l-127 -72q-13 34 -13 55q0 62 71 118q24 19 83 53l171 97q185 -1 238 -115q25 -65 25 -230v-13v-298l-1 -40q0 -110 64 -110q39 0 74 60l38 -15 q-46 -176 -169 -176q-63 0 -103 47q-39 46 -39 131q-69 -64 -101 -90q-104 -88 -198 -88q-70 0 -119 67q-58 80 -58 163zM183 1077q0 9 5 22l137 345q35 88 60 117q28 30 64 30q40 0 67 -33q20 -25 55 -110l144 -352q7 -17 7 -20q0 -7 -13 -12l-20 -9q-10 -4 -13 -4 q-9 0 -19 17l-220 348l-193 -350q-9 -16 -16 -16q-4 0 -12 4l-23 11q-10 5 -10 12zM246 210q0 -55 29 -106q26 -43 65 -43q64 0 136 67l58 56l17 17v212l-155 -69q-96 -43 -123 -70q-27 -28 -27 -64z" />
<glyph unicode="&#xe3;" horiz-adv-x="868" vert-adv-y="2457" d="M80 189q0 70 73 114q56 34 188 86l210 83v106q0 103 -32 141q-39 47 -132 47q-60 0 -111 -22q-42 -18 -42 -57q0 -15 10 -42l-127 -72q-13 34 -13 55q0 62 71 118q24 19 83 53l171 97q185 -1 238 -115q25 -65 25 -230v-13v-298l-1 -40q0 -110 64 -110q39 0 74 60l38 -15 q-46 -176 -169 -176q-63 0 -103 47q-39 46 -39 131q-69 -64 -101 -90q-104 -88 -198 -88q-70 0 -119 67q-58 80 -58 163zM141 1084q0 7 9 43q34 143 80 204q63 82 135 82q24 0 49 -16q20 -13 59 -62q95 -117 122 -117q43 0 101 159q8 20 18 20q7 0 17 -5l14 -7q10 -5 10 -21 q0 -45 -45 -153q-66 -160 -138 -160q-46 0 -99 54q-21 21 -60 68q-62 74 -94 74q-14 0 -28 -12q-44 -38 -77 -119q-26 -65 -37 -65q-4 0 -13 6l-12 8q-11 7 -11 19zM246 210q0 -55 29 -106q26 -43 65 -43q64 0 136 67l58 56l17 17v212l-155 -69q-96 -43 -123 -70 q-27 -28 -27 -64z" />
<glyph unicode="&#xe4;" horiz-adv-x="868" vert-adv-y="2457" d="M80 189q0 70 73 114q56 34 188 86l210 83v106q0 103 -32 141q-39 47 -132 47q-60 0 -111 -22q-42 -18 -42 -57q0 -15 10 -42l-127 -72q-13 34 -13 55q0 62 71 118q24 19 83 53l171 97q185 -1 238 -115q25 -65 25 -230v-13v-298l-1 -40q0 -110 64 -110q39 0 74 60l38 -15 q-46 -176 -169 -176q-63 0 -103 47q-39 46 -39 131q-69 -64 -101 -90q-104 -88 -198 -88q-70 0 -119 67q-58 80 -58 163zM120 1230q0 48 37 82q32 29 75 29q50 0 84 -37q29 -32 29 -75q0 -51 -37 -84q-33 -29 -77 -29q-49 0 -82 37q-29 32 -29 77zM246 210q0 -55 29 -106 q26 -43 65 -43q64 0 136 67l58 56l17 17v212l-155 -69q-96 -43 -123 -70q-27 -28 -27 -64zM537 1230q0 47 37 82q33 29 75 29q50 0 84 -38q29 -31 29 -75q0 -50 -37 -83q-32 -29 -77 -29q-49 0 -82 37q-29 33 -29 77z" />
<glyph unicode="&#xe5;" horiz-adv-x="868" vert-adv-y="2457" d="M80 189q0 70 73 114q56 34 188 86l210 83v106q0 103 -32 141q-39 47 -132 47q-60 0 -111 -22q-42 -18 -42 -57q0 -15 10 -42l-127 -72q-13 34 -13 55q0 62 71 118q24 19 83 53l171 97q185 -1 238 -115q25 -65 25 -230v-13v-298l-1 -40q0 -110 64 -110q39 0 74 60l38 -15 q-46 -176 -169 -176q-63 0 -103 47q-39 46 -39 131q-69 -64 -101 -90q-104 -88 -198 -88q-70 0 -119 67q-58 80 -58 163zM218 1277q0 94 74 162q61 57 147 57q99 0 165 -73q57 -64 57 -149q0 -99 -73 -166q-63 -57 -150 -57q-97 0 -163 74q-57 64 -57 152zM246 210 q0 -55 29 -106q26 -43 65 -43q64 0 136 67l58 56l17 17v212l-155 -69q-96 -43 -123 -70q-27 -28 -27 -64zM303 1276q0 -62 45 -103q39 -35 91 -35q61 0 102 45q35 39 35 91q0 60 -45 101q-39 35 -92 35q-60 0 -101 -45q-35 -39 -35 -89z" />
<glyph unicode="&#xe6;" horiz-adv-x="1322" vert-adv-y="2457" d="M63 189q0 70 69 114q68 42 178 86l211 83v105q0 66 -7 91q-26 98 -153 98q-55 0 -106 -22q-43 -18 -43 -55q0 -16 10 -44l-128 -72q-12 33 -12 54q0 63 71 119q16 14 83 53l162 97q167 -2 227 -94q24 -39 33 -110q26 45 50 76q99 128 278 128q133 0 190 -68 q35 -42 37 -173l-535 -192q7 -185 34 -244q58 -129 240 -129q114 0 186 63q26 23 67 75l46 -21q-55 -111 -124 -166q-102 -82 -259 -82q-236 0 -327 186q-62 -71 -104 -106q-99 -80 -202 -80q-72 0 -118 67q-54 80 -54 163zM229 212q0 -54 36 -97q32 -39 77 -39q48 0 119 56 q34 27 60 58v223l-156 -69q-80 -36 -111 -70q-25 -27 -25 -62zM682 522l168 64q93 36 135 69q43 33 43 76q0 38 -27 66q-31 32 -81 32q-73 0 -133 -56q-70 -65 -90 -161q-9 -39 -15 -90z" />
<glyph unicode="&#xe7;" horiz-adv-x="868" vert-adv-y="2457" d="M63 391q0 212 143 362q138 143 325 143q97 0 178 -45q88 -48 88 -122q0 -32 -22 -55q-25 -26 -60 -26q-37 0 -69 36q-9 10 -45 59q-40 53 -67 69q-29 17 -67 17q-102 0 -179 -105q-74 -101 -74 -231q0 -143 73 -265q40 -65 102 -102q62 -36 135 -36q108 0 203 87 q24 22 72 74l31 -42q-64 -87 -104 -127q-85 -81 -158 -104q-18 -5 -48 -12l-56 -67q148 -25 148 -135q0 -77 -73 -136q-75 -60 -189 -60q-94 0 -139 37q-18 15 -18 37q0 18 14 31q12 11 24 11q15 0 38 -12q68 -35 109 -35q48 0 78 28q27 25 27 57q0 33 -26 56q-23 21 -68 21 q-19 0 -50 -3l-35 37l134 126q-126 5 -218 79q-77 63 -119 160q-38 89 -38 193z" />
<glyph unicode="&#xe8;" horiz-adv-x="868" vert-adv-y="2457" d="M64 390q0 186 114 340q124 166 309 166q120 0 208 -73q106 -86 106 -261v-31h-579q-7 -50 -7 -79q0 -129 79 -233q43 -56 104 -91q67 -37 136 -37q106 0 234 119l36 -27q-151 -224 -359 -224q-156 0 -266 119q-115 126 -115 312zM205 1512q0 31 22 54q24 25 58 25 q29 0 47 -18q28 -27 79 -147l137 -329q7 -16 7 -22t-9 -11l-14 -9q-6 -4 -11 -4t-18 17l-218 291q-41 56 -63 93q-17 28 -17 60zM232 577l267 7q73 1 88 7q47 17 47 72q0 71 -51 120q-48 47 -120 47q-114 0 -184 -125q-30 -52 -47 -128z" />
<glyph unicode="&#xe9;" horiz-adv-x="868" vert-adv-y="2457" d="M64 390q0 186 114 340q124 166 309 166q120 0 208 -73q106 -86 106 -261v-31h-579q-7 -50 -7 -79q0 -129 79 -233q43 -56 104 -91q67 -37 136 -37q106 0 234 119l36 -27q-151 -224 -359 -224q-156 0 -266 119q-115 126 -115 312zM232 577l267 7q73 1 88 7q47 17 47 72 q0 71 -51 120q-48 47 -120 47q-114 0 -184 -125q-30 -52 -47 -128zM312 1075q0 5 7 22l138 329q49 118 78 147q19 18 48 18q34 0 58 -25q22 -23 22 -53q0 -33 -17 -61q-21 -35 -64 -93l-218 -291q-13 -17 -17 -17q-5 0 -11 4l-15 9q-9 5 -9 11z" />
<glyph unicode="&#xea;" horiz-adv-x="868" vert-adv-y="2457" d="M64 390q0 186 114 340q124 166 309 166q120 0 208 -73q106 -86 106 -261v-31h-579q-7 -50 -7 -79q0 -129 79 -233q43 -56 104 -91q67 -37 136 -37q106 0 234 119l36 -27q-151 -224 -359 -224q-156 0 -266 119q-115 126 -115 312zM181 1077q0 6 7 22l136 345q27 68 35 82 q38 65 90 65q39 0 66 -33q20 -25 55 -110l144 -352q7 -16 7 -20q0 -7 -13 -12l-20 -9q-10 -4 -13 -4q-8 0 -19 17l-220 348l-193 -350q-9 -16 -16 -16q-5 0 -11 4l-24 11q-11 6 -11 12zM232 577l267 7q73 1 88 7q47 17 47 72q0 71 -51 120q-48 47 -120 47q-114 0 -184 -125 q-30 -52 -47 -128z" />
<glyph unicode="&#xeb;" horiz-adv-x="868" vert-adv-y="2457" d="M64 390q0 186 114 340q124 166 309 166q120 0 208 -73q106 -86 106 -261v-31h-579q-7 -50 -7 -79q0 -129 79 -233q43 -56 104 -91q67 -37 136 -37q106 0 234 119l36 -27q-151 -224 -359 -224q-156 0 -266 119q-115 126 -115 312zM119 1230q0 48 37 82q33 29 75 29 q50 0 84 -37q29 -32 29 -75q0 -51 -37 -84q-33 -29 -77 -29q-49 0 -82 37q-29 32 -29 77zM232 577l267 7q73 1 88 7q47 17 47 72q0 71 -51 120q-48 47 -120 47q-114 0 -184 -125q-30 -52 -47 -128zM536 1230q0 48 37 82q32 29 76 29q49 0 83 -37q29 -32 29 -75 q0 -51 -37 -84q-32 -29 -77 -29q-49 0 -82 37q-29 33 -29 77z" />
<glyph unicode="&#xec;" horiz-adv-x="566" vert-adv-y="2457" d="M54 1512q0 31 22 54q24 25 58 25q29 0 47 -18q28 -27 78 -147l138 -329q7 -16 7 -22t-9 -11l-14 -9q-6 -4 -11 -4t-18 17l-218 291q-41 56 -63 93q-17 29 -17 60zM58 11v14q-1 17 32 19q96 7 114 45q7 14 8 51l1 131v275q0 98 -7 117q-6 36 -100 83l-3 28l135 64 q82 39 121 61l14 -5q-2 -50 -3 -156l-1 -156v-311q1 -145 4 -168q8 -48 108 -59q33 -2 33 -19v-14q0 -25 -22 -25q-10 0 -74 7q-65 7 -135 7q-65 0 -172 -12q-14 -2 -28 -2q-25 0 -25 25z" />
<glyph unicode="&#xed;" horiz-adv-x="566" vert-adv-y="2457" d="M59 11v14q-1 17 32 19q97 7 114 45q7 14 8 51l2 131v275q-1 98 -8 117q-7 37 -100 83l-3 28l135 64q81 39 121 61l13 -5q-1 -50 -2 -156l-2 -156v-311q2 -145 5 -168q7 -48 108 -59q33 -2 32 -19v-14q0 -25 -22 -25q-9 0 -73 7q-65 7 -135 7q-64 0 -172 -12 q-14 -2 -28 -2q-25 0 -25 25zM162 1075q0 5 7 22l137 329q50 119 79 147q19 18 48 18q33 0 57 -25q23 -23 23 -53q0 -33 -18 -61q-21 -36 -63 -93l-218 -291q-13 -17 -17 -17q-6 0 -12 4l-14 9q-9 5 -9 11z" />
<glyph unicode="&#xee;" horiz-adv-x="566" vert-adv-y="2457" d="M31 1077q0 7 6 22l136 345q27 68 35 82q39 65 90 65q39 0 66 -33q21 -25 55 -110l145 -352q6 -16 6 -20q0 -7 -12 -12l-20 -9q-11 -4 -14 -4q-8 0 -18 17l-220 348l-194 -350q-9 -17 -16 -16q-4 0 -11 4l-24 11q-10 5 -10 12zM58 11v14q1 17 33 19q96 7 113 45q8 14 9 51 l1 131v275q0 98 -7 117q-8 36 -100 83l-3 28l135 64q74 36 120 61l14 -5q-2 -50 -3 -156l-1 -156v-311q1 -144 4 -168q9 -48 108 -59q33 -2 33 -19v-14q0 -25 -22 -25q-10 0 -74 7q-65 7 -134 7q-65 0 -172 -12q-15 -2 -28 -2q-26 0 -26 25z" />
<glyph unicode="&#xef;" horiz-adv-x="566" vert-adv-y="2457" d="M-62 1230q0 48 37 82q33 29 76 29q49 0 83 -38q29 -31 29 -75q0 -49 -37 -83q-32 -29 -77 -29q-49 0 -82 37q-29 32 -29 77zM59 11v14q-1 17 32 19q97 6 113 45q8 14 9 50l1 132v275q0 98 -7 117q-8 38 -101 83l-2 28l135 64q73 35 121 61l14 -5q-2 -50 -3 -156l-1 -156 v-311q0 -144 4 -168q8 -48 108 -59q32 -2 33 -19v-14q0 -25 -23 -25q-9 0 -73 7q-65 7 -135 7q-65 0 -172 -12q-14 -2 -28 -2q-25 0 -25 25zM355 1230q0 48 38 82q32 29 75 29q49 0 83 -38q29 -31 29 -75q0 -50 -37 -83q-32 -29 -77 -29q-49 0 -82 37q-29 32 -29 77z" />
<glyph unicode="&#xf0;" horiz-adv-x="1095" vert-adv-y="2457" d="M82 427q0 191 129 329q143 151 354 151q70 0 145 -21l46 -13l-103 157q-66 96 -190 245l-160 -114l-51 68l155 114l-100 111q-29 31 -41 37q-16 9 -54 11l-41 2v70h233l41 -40q29 -28 89 -99l138 101l56 -68l-134 -97l51 -64q128 -157 172.5 -221.5t88.5 -154.5 q61 -126 94 -280q21 -99 21 -183q0 -132 -66 -254q-65 -119 -189 -185q-111 -59 -230 -59q-146 0 -268 87q-106 75 -153 197q-33 83 -33 173zM250 462q0 -236 136 -352q73 -62 167 -62q125 0 210 108q90 114 90 284q0 184 -102 300q-78 89 -203 89q-143 0 -227 -113 q-71 -97 -71 -254z" />
<glyph unicode="&#xf1;" horiz-adv-x="1133" vert-adv-y="2457" d="M56 11v14q0 17 32 19q86 7 101 40q8 14 10 47q1 12 2 140v281q-1 98 -7 117q-9 36 -101 83l-2 28l135 64l121 60l10 -5v-167q79 61 127 92q112 72 213 72q117 0 185 -75q36 -40 48 -97q11 -47 11 -146v-307q0 -134 1 -150q4 -45 39 -60q28 -13 72 -17q32 -3 32 -19v-14 q0 -25 -25 -25q-13 0 -83 7q-72 7 -114 7q-38 0 -171 -12q-17 -2 -28 -2q-23 0 -23 25v14q0 17 32 19q85 7 100 40q8 14 10 47q1 2 2 140v277q0 95 -8 124q-12 41 -39 66q-47 41 -121 41q-98 0 -194 -58q-31 -19 -66 -55v-395q0 -144 4 -168q8 -48 107 -59q32 -2 33 -19v-14 q0 -25 -25 -25q-14 0 -84 7q-72 7 -113 7q-38 0 -171 -12q-18 -2 -29 -2q-23 0 -23 25zM273 1083q0 12 14.5 68t25.5 83q32 86 82 132q51 47 102 47q24 0 48 -16q20 -13 60 -62q95 -117 121 -117q18 0 34 19q28 33 67 140q8 20 18 20q7 0 17 -5l14 -7q11 -6 11 -21 q0 -45 -46 -154q-65 -159 -138 -159q-45 0 -99 54q-22 22 -60 68q-62 74 -94 74q-13 0 -27 -12q-45 -38 -78 -119q-26 -65 -36 -65q-5 0 -14 6l-12 8q-10 7 -10 18z" />
<glyph unicode="&#xf2;" horiz-adv-x="1095" vert-adv-y="2457" d="M74 420q0 141 83 263q72 107 197 165q101 48 208 48q189 0 327 -139q131 -133 131 -321q0 -207 -155 -347q-144 -130 -341 -130q-190 0 -316 128q-134 135 -134 333zM254 457q0 -191 99 -324q79 -107 212 -107q119 0 190 86q85 101 85 279q0 208 -98 335 q-80 103 -216 103q-142 0 -205 -104q-67 -110 -67 -268zM319 1513q0 30 22 53q24 25 58 25q29 0 47 -18q28 -27 79 -147l137 -329q7 -16 7 -22t-8 -11l-15 -9q-6 -4 -11 -4t-18 17l-218 291q-41 56 -63 93q-17 29 -17 61z" />
<glyph unicode="&#xf3;" horiz-adv-x="1095" vert-adv-y="2457" d="M74 420q0 141 83 263q72 107 197 165q101 48 208 48q189 0 327 -139q131 -133 131 -321q0 -207 -155 -347q-144 -130 -341 -130q-190 0 -316 128q-134 135 -134 333zM254 457q0 -191 99 -324q79 -107 212 -107q119 0 190 86q85 101 85 279q0 208 -98 335 q-80 103 -216 103q-142 0 -205 -104q-67 -110 -67 -268zM426 1075q0 4 7 22l138 329q50 119 78 147q19 18 48 18q34 0 58 -25q22 -23 22 -53q0 -33 -17 -61q-21 -35 -64 -93l-218 -291q-12 -17 -17 -17t-11 4l-15 9q-9 5 -9 11z" />
<glyph unicode="&#xf4;" horiz-adv-x="1095" vert-adv-y="2457" d="M74 420q0 141 83 263q72 107 197 165q101 48 208 48q189 0 327 -139q131 -133 131 -321q0 -207 -155 -347q-144 -130 -341 -130q-190 0 -316 128q-134 135 -134 333zM254 457q0 -191 99 -324q79 -107 212 -107q119 0 190 86q85 101 85 279q0 208 -98 335 q-80 103 -216 103q-142 0 -205 -104q-67 -110 -67 -268zM296 1077q0 8 6 22l136 345q35 88 60 117q28 30 64 30q40 0 67 -33q21 -25 55 -110l144 -352q7 -16 7 -20q0 -7 -13 -12l-19 -9q-11 -4 -14 -4q-9 0 -19 17l-220 348l-193 -350q-9 -16 -16 -16q-4 0 -11 4l-24 11 q-10 5 -10 12z" />
<glyph unicode="&#xf5;" horiz-adv-x="1095" vert-adv-y="2457" d="M74 420q0 141 83 263q72 107 197 165q101 48 208 48q189 0 327 -139q131 -133 131 -321q0 -207 -155 -347q-144 -130 -341 -130q-190 0 -316 128q-134 135 -134 333zM254 1083q0 14 14 66t26 85q33 87 82 132q51 47 102 47q25 0 49 -16q20 -13 59 -62q95 -117 122 -117 q45 0 102 159q7 20 17 20q7 0 17 -5l14 -7q10 -5 10 -20q0 -45 -45 -155q-65 -159 -138 -159q-46 0 -99 54q-22 22 -60 68q-61 73 -93 74q-14 1 -28 -12q-46 -38 -78 -119q-26 -65 -36 -65q-5 0 -14 6l-12 8q-11 7 -11 18zM254 457q0 -191 99 -324q79 -107 212 -107 q119 0 190 86q85 101 85 279q0 208 -98 335q-80 103 -216 103q-142 0 -205 -104q-67 -110 -67 -268z" />
<glyph unicode="&#xf6;" horiz-adv-x="1095" vert-adv-y="2457" d="M74 420q0 141 83 263q72 107 197 165q101 48 208 48q189 0 327 -139q131 -133 131 -321q0 -207 -155 -347q-144 -130 -341 -130q-190 0 -316 128q-134 135 -134 333zM233 1230q0 48 37 82q32 29 76 29q49 0 83 -37q29 -32 29 -75q0 -50 -37 -84q-32 -29 -77 -29 q-49 0 -82 37q-29 32 -29 77zM254 457q0 -191 99 -324q79 -107 212 -107q119 0 190 86q85 101 85 279q0 208 -98 335q-80 103 -216 103q-142 0 -205 -104q-67 -110 -67 -268zM650 1230q0 47 38 82q32 29 75 29q49 0 83 -38q29 -31 29 -75q0 -50 -37 -83q-32 -29 -77 -29 q-49 0 -82 37q-29 33 -29 77z" />
<glyph unicode="&#xf7;" horiz-adv-x="1662" vert-adv-y="2457" d="M300 461v83q1 24 24 24h1010q23 0 24 -24v-83q-1 -24 -24 -24h-1010q-23 0 -24 24zM716 897q0 46 31 77q34 34 83 34q46 0 78 -28q33 -28 33 -80q0 -51 -35 -86q-31 -31 -77 -31q-51 0 -83 34q-30 31 -30 80zM716 111q0 46 31 77q34 34 83 34q45 0 78 -28t33 -79 q0 -52 -35 -87q-32 -31 -77 -31q-51 0 -83 34q-30 31 -30 80z" />
<glyph unicode="&#xf8;" horiz-adv-x="1095" vert-adv-y="2457" d="M78 414q0 146 82 269q73 108 194 165q101 48 206 48q138 0 260 -85l88 101q39 44 43 44q14 0 33 -16q21 -18 21 -28q0 -5 -33 -44l-93 -108q133 -140 133 -324q0 -207 -153 -347q-142 -130 -339 -130q-143 0 -258 82l-90 -105q-27 -32 -36 -32q-19 0 -39 21 q-12 12 -12 21q0 6 34 46l86 100q-127 135 -127 322zM259 454q0 -132 49 -242l433 505q-79 112 -217 112q-139 0 -200 -104q-65 -111 -65 -271zM348 142q84 -116 214 -116q116 0 186 86q83 101 83 279q0 140 -50 255z" />
<glyph unicode="&#xf9;" horiz-adv-x="1095" vert-adv-y="2457" d="M27 816v20q0 11 5 14q6 4 42 8q71 8 247 41l25 -10q-1 -41 -2 -219v-327q0 -96 7 -127q17 -69 79 -102q44 -24 101 -24q135 0 243 115v426q0 94 -12 118q-22 42 -92 46q-23 1 -40 1q-19 0 -19 20v20q0 10 5 13q4 4 28 7q115 13 261 43l27 -10q-1 -20 -2 -85l-1 -76v-457 q0 -134 7 -149q11 -21 37 -21q21 0 86 17q3 -10 3 -27q0 -14 -3 -25l-282 -108l-8 34l6 149q-82 -81 -124 -112q-94 -70 -196 -70q-88 0 -161 48q-76 51 -96 145q-9 44 -9 138v355q-1 88 -19 116q-25 36 -93 36q-41 0 -47 5q-3 3 -3 14zM319 1512q0 31 22 54q24 25 58 25 q29 0 47 -18q28 -27 79 -147l137 -329q7 -16 7 -22t-9 -11l-14 -9q-6 -4 -11 -4t-17 17l-219 291q-41 56 -63 93q-17 28 -17 60z" />
<glyph unicode="&#xfa;" horiz-adv-x="1095" vert-adv-y="2457" d="M27 816v20q0 11 5 14q6 4 42 8q71 8 247 41l25 -10q-1 -41 -2 -219v-327q0 -96 7 -127q17 -69 79 -102q44 -24 101 -24q135 0 243 115v426q0 94 -12 118q-22 42 -92 46q-23 1 -40 1q-19 0 -19 20v20q0 10 5 13q4 4 28 7q115 13 261 43l27 -10q-1 -20 -2 -85l-1 -76v-457 q0 -134 7 -149q11 -21 37 -21q21 0 86 17q3 -10 3 -27q0 -14 -3 -25l-282 -108l-8 34l6 149q-82 -81 -124 -112q-94 -70 -196 -70q-88 0 -161 48q-76 51 -96 145q-9 44 -9 138v355q-1 88 -19 116q-25 36 -93 36q-41 0 -47 5q-3 3 -3 14zM426 1075q0 5 7 22l138 329 q50 119 78 147q19 18 48 18q34 0 58 -25q22 -23 22 -54q0 -32 -17 -60q-21 -35 -64 -93l-218 -291q-12 -17 -17 -17t-11 4l-15 9q-9 5 -9 11z" />
<glyph unicode="&#xfb;" horiz-adv-x="1095" vert-adv-y="2457" d="M27 816v20q0 11 5 14q6 4 42 8q71 8 247 41l25 -10q-1 -41 -2 -219v-327q0 -96 7 -127q17 -69 79 -102q44 -24 101 -24q135 0 243 115v426q0 94 -12 118q-22 42 -92 46q-23 1 -40 1q-19 0 -19 20v20q0 10 5 13q4 4 28 7q115 13 261 43l27 -10q-1 -20 -2 -85l-1 -76v-457 q0 -134 7 -149q11 -21 37 -21q21 0 86 17q3 -10 3 -27q0 -14 -3 -25l-282 -108l-8 34l6 149q-82 -81 -124 -112q-94 -70 -196 -70q-88 0 -161 48q-76 51 -96 145q-9 44 -9 138v355q-1 88 -19 116q-25 36 -93 36q-41 0 -47 5q-3 3 -3 14zM296 1077q0 8 6 22l136 345 q27 68 35 82q39 65 90 65q39 0 66 -33q20 -25 55 -110l144 -352q7 -16 7 -20q0 -7 -13 -12l-20 -9q-10 -4 -13 -4q-8 0 -19 17l-220 348l-193 -350q-9 -16 -16 -16q-4 0 -11 4l-24 11q-10 5 -10 12z" />
<glyph unicode="&#xfc;" horiz-adv-x="1095" vert-adv-y="2457" d="M27 816v20q0 11 5 14q6 4 42 8q71 8 247 41l25 -10q-1 -41 -2 -219v-327q0 -96 7 -127q17 -69 79 -102q44 -24 101 -24q135 0 243 115v426q0 94 -12 118q-22 42 -92 46q-23 1 -40 1q-19 0 -19 20v20q0 10 5 13q4 4 28 7q115 13 261 43l27 -10q-1 -20 -2 -85l-1 -76v-457 q0 -134 7 -149q11 -21 37 -21q21 0 86 17q3 -10 3 -27q0 -14 -3 -25l-282 -108l-8 34l6 149q-82 -81 -124 -112q-94 -70 -196 -70q-88 0 -161 48q-76 51 -96 145q-9 44 -9 138v355q-1 88 -19 116q-25 36 -93 36q-41 0 -47 5q-3 3 -3 14zM233 1230q0 48 37 82q32 29 76 29 q49 0 83 -37q29 -32 29 -76q0 -50 -37 -83q-32 -29 -77 -29q-49 0 -82 37q-29 32 -29 77zM650 1230q0 47 38 82q32 29 75 29q49 0 83 -38q29 -31 29 -75q0 -50 -37 -83q-32 -29 -77 -29q-49 0 -82 37q-29 33 -29 77z" />
<glyph unicode="&#xfd;" horiz-adv-x="1095" vert-adv-y="2457" d="M15 829v21q0 23 23 23t104 -5q82 -6 117 -6q39 0 121 6q80 5 98 5q25 0 25 -23v-21q0 -11 -5 -15q-6 -6 -46 -6h-9q-86 0 -86 -39q0 -10 20 -63l14 -37l186 -488l182 416q56 127 56 154q0 58 -91 58h-6q-32 0 -37 6q-3 3 -3 14v18q0 14 3 19q4 7 25 7q30 0 84 -5 q55 -6 82 -6q7 0 161 10q19 1 23 1q22 0 22 -26v-18q-1 -12 -5 -16q-6 -4 -45 -6q-69 -3 -109 -56q-31 -39 -95 -177l-310 -680q-110 -240 -186 -355q-58 -88 -141 -88q-41 0 -65 26q-24 27 -24 65q0 33 20 63q19 29 49 29q11 0 33 -11q19 -9 29 -9q41 0 80 42 q63 69 140 252l38 91l-274 679q-32 79 -45 94q-32 36 -89 36h-9l-20 -1q-23 -1 -30 5q-5 4 -5 17zM426 1075q0 6 7 22l137 329q50 119 79 147q19 18 48 18q33 0 57 -25q22 -23 22 -53q0 -33 -17 -61q-22 -37 -64 -93l-218 -291q-12 -17 -16 -17q-6 0 -12 4l-14 9q-9 5 -9 11 z" />
<glyph unicode="&#xfe;" horiz-adv-x="1095" vert-adv-y="2457" d="M51 -513q-1 17 32 19q90 6 106 40q9 14 11 46q0 13 1 141v1489q0 98 -7 117q-9 35 -100 83l-3 28l135 64l120 60l10 -5v-807l136 71q120 63 177 63q135 0 244 -114q54 -56 86 -133q39 -90 39 -184q0 -143 -82 -266q-82 -122 -224 -187q-115 -53 -228 -53q-63 0 -148 19 v-245q1 -134 2 -150q4 -44 38 -61q21 -11 121 -16q34 -1 33 -19v-14q0 -12 -4 -18q-5 -7 -32 -7q-45 0 -122 7q-75 7 -118 7q-47 0 -109 -7q-63 -7 -87 -7q-27 0 -27 25v14zM356 240q0 -75 5 -89q13 -43 61 -70q58 -34 137 -34q129 0 213 79q55 51 82 138q20 64 20 132 q0 163 -96 274q-84 95 -215 95q-106 0 -207 -67v-458z" />
<glyph unicode="&#xff;" horiz-adv-x="1095" vert-adv-y="2457" d="M15 829v21q0 23 23 23t104 -5q82 -6 117 -6q39 0 121 6q80 5 98 5q25 0 25 -23v-21q0 -11 -5 -15q-6 -6 -46 -6h-9q-86 0 -86 -39q0 -10 20 -63l14 -37l186 -488l182 416q56 127 56 154q0 58 -91 58h-6q-32 0 -37 6q-3 3 -3 14v18q0 14 3 19q4 7 25 7q30 0 84 -5 q55 -6 82 -6q7 0 161 10q19 1 23 1q22 0 22 -26v-18q-1 -12 -5 -16q-6 -4 -45 -6q-69 -3 -109 -56q-31 -39 -95 -177l-310 -680q-110 -240 -186 -355q-58 -88 -141 -88q-41 0 -65 26q-24 27 -24 65q0 33 20 63q19 29 49 29q11 0 33 -11q19 -9 29 -9q41 0 80 42 q63 69 140 252l38 91l-274 679q-32 79 -45 94q-32 36 -89 36h-9l-20 -1q-23 -1 -30 5q-5 4 -5 17zM232 1230q0 48 37 82q33 29 75 29q50 0 84 -37q29 -32 29 -76q0 -50 -37 -83q-32 -29 -77 -29q-49 0 -82 37q-29 32 -29 77zM650 1230q0 48 37 82q33 29 75 29q50 0 84 -37 q29 -32 29 -76q0 -49 -37 -83q-32 -29 -77 -29q-49 0 -82 37q-29 32 -29 77z" />
<glyph unicode="&#x152;" horiz-adv-x="2115" vert-adv-y="2457" d="M97 699q0 225 131 425q115 175 290 259q137 67 302 67q96 0 268 -24q105 -14 169 -14l298 11h348q50 0 59 -9q5 -7 5 -47v-206q-1 -36 -5 -40q-3 -5 -16 -5h-21q-15 0 -18 5q-4 7 -8 57q-6 91 -50 132q-28 26 -63 34q-58 12 -150 12q-233 0 -281 -17q-42 -15 -54 -75 q-4 -23 -4 -126v-342l21 -1q48 -2 57 -2q8 0 41 2q29 1 91 2q120 3 161 33q42 31 69 121q6 19 17 17l6 -1h12q21 -1 21 -20q0 -17 -4 -43q-9 -68 -9 -157q0 -116 8 -156q7 -32 7 -46q0 -17 -19 -19l-24 -2l-7 -1q-10 0 -15 16q-5 15 -15 83q-9 60 -28 78q-18 15 -57 20 q-68 3 -119 4l-43 2q-6 0 -34 -1q-78 -2 -137 -3v-444q0 -87 6 -111q17 -63 78 -85q50 -16 170 -16h82q173 0 228 26q52 26 131 180q15 30 27 30q47 0 47 -22q0 -6 -10 -41l-50 -174q-13 -45 -24 -63q-8 -13 -34 -13l-48 1l-463 6q-32 0 -76 2q-51 2 -72 2q-143 0 -284 -21 q-133 -20 -219 -20q-303 0 -513 265q-176 222 -176 475zM325 773q0 -172 72 -354q151 -381 466 -381q126 0 186 60q43 44 54 116q10 63 10 145v646q0 182 -49 268q-63 111 -233 111q-227 0 -369 -186q-137 -181 -137 -425z" />
<glyph unicode="&#x153;" horiz-adv-x="1548" vert-adv-y="2457" d="M74 414q0 208 159 359q130 123 281 123q114 0 227 -74q78 -51 133 -130q134 204 306 204q103 0 185 -71q103 -91 103 -264v-30h-524q-5 -31 -5 -50q0 -134 41 -218q85 -172 221 -172q123 0 225 119l42 -31q-44 -76 -95 -121q-113 -100 -243 -100q-100 0 -183 67 q-40 32 -95 119q-167 -185 -359 -185q-167 0 -288 128q-131 139 -131 327zM234 458q0 -190 98 -325q77 -104 179 -104q88 0 157 83q84 103 84 277q0 208 -98 337q-78 103 -184 103q-108 0 -169 -104q-67 -115 -67 -267zM953 577l214 7q60 1 77 4.5t32 14.5q25 21 25 61 q0 66 -51 119q-40 43 -86 43q-94 0 -163 -121q-31 -53 -48 -128z" />
<glyph unicode="&#x178;" horiz-adv-x="1473" vert-adv-y="2457" d="M17 1379v21q0 23 25 23q19 0 48 -2q128 -9 230 -9q79 0 217 9q27 2 48 2q23 0 23 -26v-18q0 -17 -6 -21q-6 -5 -40 -5h-13q-119 0 -119 -35q0 -11 48 -79l247 -346q47 -62 82 -99q45 49 139 177l106 147q112 154 112 196t-116 42q-52 0 -59 5q-3 4 -3 18v17q0 27 25 27 q17 0 50 -3q88 -8 169 -8q70 0 150 8q34 3 50 3q21 0 21 -22v-24q-1 -14 -5 -18q-6 -4 -42 -4q-57 0 -91 -28q-33 -26 -101 -120l-366 -509v-427q1 -126 11 -152q16 -43 71 -57q31 -5 111 -6q28 0 29 -28v-13q0 -26 -28 -26q-24 0 -62 3q-118 8 -225 8q-109 0 -223 -8 q-37 -3 -62 -3q-27 0 -27 26v13q0 21 9.5 24.5t66.5 4.5q96 0 126 46q17 26 19 168v320q0 63 -8 84q-10 24 -38 62l-379 519q-43 58 -65 73q-39 27 -135 28q-20 0 -20 22zM439 1735q0 48 37 83q32 29 76 29q49 0 84 -38q29 -32 29 -75q0 -50 -38 -84q-32 -29 -76 -29 q-49 0 -83 37q-29 33 -29 77zM879 1735q0 48 37 83q32 29 75 29q50 0 84 -38q30 -32 30 -75q0 -50 -38 -84q-33 -29 -77 -29q-48 0 -82 37q-29 33 -29 77z" />
<glyph unicode="&#x2c6;" vert-adv-y="2457" d="M239 1077q0 7 6 22l136 345q27 68 35 82q39 65 90 65q39 0 66 -33q21 -25 55 -110l145 -352q6 -16 6 -20q0 -7 -12 -12l-20 -9q-11 -4 -14 -4q-8 0 -18 17l-220 348l-194 -350q-8 -16 -15 -16h-1q-4 0 -11 4l-24 11q-10 5 -10 12z" />
<glyph unicode="&#x2dc;" vert-adv-y="2457" d="M198 1084q0 7 9 43q34 143 80 204q62 82 135 82q24 0 49 -16q19 -13 59 -62q95 -117 121 -117q18 0 34 19q29 35 68 140q8 20 17 20q7 0 18 -5l13 -7q11 -6 11 -21q0 -45 -45 -154q-66 -159 -139 -159q-45 0 -98 54q-21 21 -60 68q-62 74 -95 74q-13 0 -27 -12 q-45 -37 -77 -119q-26 -65 -37 -65q-5 0 -14 6l-11 8q-11 7 -11 19z" />
<glyph unicode="&#x2013;" vert-adv-y="2457" d="M60 431v75q0 29 5 32q2 3 28 3h802l26 1q7 -1 7 -36v-75q-1 -28 -5 -32q-3 -3 -28 -3h-802q-26 0 -28 3q-5 3 -5 32z" />
<glyph unicode="&#x2014;" horiz-adv-x="1662" vert-adv-y="2457" d="M38 428v81q0 21 7 28q3 4 31 4h1508q28 0 31 -4q7 -6 7 -28v-81q0 -22 -7 -28q-3 -4 -31 -4h-1508q-28 0 -31 4q-7 6 -7 28z" />
<glyph unicode="&#x2018;" horiz-adv-x="566" vert-adv-y="2457" d="M109 1136q0 145 135 237q102 69 135 69q11 0 16 -13l10 -28q4 -10 4 -15q0 -9 -18 -16q-170 -69 -170 -162q0 -31 28 -55q9 -9 68 -30q89 -32 89 -104q0 -45 -37 -76q-32 -26 -81 -26q-72 0 -121 55q-58 66 -58 164z" />
<glyph unicode="&#x2019;" horiz-adv-x="566" vert-adv-y="2457" d="M139 973q0 9 18 16q68 27 120 67q50 40 50 95q0 31 -28 56q-10 9 -68 29q-90 32 -90 105q0 44 38 75q32 26 81 26q72 0 121 -55q58 -65 58 -163q0 -144 -136 -238q-42 -28 -93 -53q-32 -16 -42 -16t-15 13l-11 29q-3 8 -3 14z" />
<glyph unicode="&#x201a;" horiz-adv-x="566" vert-adv-y="2457" d="M139 -228q0 9 18 16q170 70 170 162q0 31 -28 55q-9 9 -68 30q-90 32 -90 104q0 45 38 76q31 26 81 26q71 0 121 -55q58 -65 58 -164q0 -144 -136 -237q-42 -29 -93 -53q-31 -16 -42 -16t-15 13l-11 28q-3 8 -3 15z" />
<glyph unicode="&#x201c;" horiz-adv-x="868" vert-adv-y="2457" d="M108 1136q0 145 135 237q102 69 135 69q11 0 16 -13l10 -28q4 -10 4 -15q0 -9 -18 -16q-170 -69 -170 -162q0 -31 28 -55q9 -9 68 -30q89 -32 89 -104q0 -45 -37 -76q-32 -26 -81 -26q-72 0 -121 55q-58 66 -58 164zM455 1135q0 146 135 238q43 28 93 53q32 16 43 16 q10 0 15 -13l11 -28q3 -9 3 -15q0 -9 -18 -16q-170 -67 -170 -162q0 -31 28 -55q9 -9 68 -30q90 -32 90 -104q0 -45 -38 -76q-32 -26 -81 -26q-71 0 -121 55q-58 65 -58 163z" />
<glyph unicode="&#x201d;" horiz-adv-x="868" vert-adv-y="2457" d="M108 973q0 9 18 16q68 27 120 67q50 40 50 95q0 31 -28 56q-10 9 -68 29q-90 32 -90 105q0 44 38 75q32 26 81 26q72 0 121 -55q58 -65 58 -163q0 -144 -136 -238q-42 -28 -93 -53q-32 -16 -42 -16t-15 13l-11 29q-3 8 -3 14zM455 973q0 9 18 16q170 67 170 163 q0 30 -28 55q-10 9 -68 29q-90 32 -90 105q0 44 38 75q32 26 81 26q72 0 121 -55q58 -66 58 -163q0 -145 -135 -238q-43 -29 -93 -53q-32 -16 -43 -16q-10 0 -15 13l-11 29q-3 8 -3 14z" />
<glyph unicode="&#x201e;" horiz-adv-x="868" vert-adv-y="2457" d="M119 -259q0 10 18 17q170 66 170 162q0 30 -28 55q-10 9 -68 30q-90 32 -90 105q0 44 38 75q31 26 81 26q71 0 121 -55q58 -65 58 -163q0 -145 -136 -238q-42 -29 -93 -53q-31 -16 -42 -16t-15 13l-11 28q-3 8 -3 14zM466 -259q0 10 18 17q170 66 170 162q0 31 -28 55 q-9 9 -68 30q-90 32 -90 104q0 45 38 76q32 26 81 26q72 0 121 -55q58 -66 58 -163q0 -146 -135 -238q-102 -69 -136 -69q-11 0 -15 13l-11 28q-3 8 -3 14z" />
<glyph unicode="&#x2022;" horiz-adv-x="1020" vert-adv-y="2457" d="M139 737q0 161 123 273q106 96 255 96q158 0 270 -123q95 -105 95 -248q0 -166 -123 -277q-106 -95 -248 -95q-165 0 -277 123q-95 105 -95 251z" />
<glyph unicode="&#x2026;" horiz-adv-x="1662" vert-adv-y="2457" d="M164 91q0 50 40 87q33 31 79 31q53 0 89 -40q31 -34 31 -80q0 -53 -40 -88q-34 -31 -81 -31q-52 0 -87 39q-31 34 -31 82zM712 91q0 50 40 87q33 31 79 31q53 0 89 -40q31 -34 31 -80q0 -52 -40 -88q-34 -31 -80 -31q-52 0 -88 40q-31 34 -31 81zM1259 91q0 51 40 87 q33 31 79 31q54 0 89 -40q31 -34 31 -79q0 -53 -40 -89q-34 -31 -81 -31q-52 0 -87 40q-31 34 -31 81z" />
<glyph unicode="&#x2039;" horiz-adv-x="566" vert-adv-y="2457" d="M78 436q0 26 53 73l280 246q20 18 29 18q7 0 16 -9l13 -13q5 -4 8 -10q1 -3 1 -4q0 -7 -11 -20l-219 -273l221 -284q9 -12 9 -18q0 -5 -10 -16l-13 -12q-7 -8 -13 -8q-9 0 -23 12l-302 263q-39 34 -39 55z" />
<glyph unicode="&#x203a;" horiz-adv-x="566" vert-adv-y="2457" d="M84 737q0 5 10 16l13 12q7 8 13 8q10 0 23 -12l302 -263q39 -34 39 -53q0 -28 -53 -74l-280 -247q-21 -18 -30 -18q-5 0 -15 9l-13 13q-9 8 -9 14t11 20l219 273l-221 284q-9 12 -9 18z" />
<glyph unicode="&#x2122;" horiz-adv-x="1246" vert-adv-y="2457" d="M22 1141l15 223h477l10 -223h-39q-31 96 -53 132q-31 45 -103 51v-414q1 -66 18 -82q15 -12 71 -18v-40h-285v40q52 5 67 16q21 18 22 84v414q-53 -8 -77 -28q-45 -40 -83 -155h-40zM557 770v40q54 11 71 27q17 17 18 69v339q0 51 -11 64q-13 9 -78 16v39h225l115 -392 l129 392h226v-39q-61 -6 -75 -21q-13 -15 -14 -66v-328q0 -59 7 -68q15 -25 82 -32v-40h-285v40q59 9 74 25q13 18 14 75v402l-179 -542h-25l-158 525v-385q1 -61 21 -76q18 -14 67 -24v-40h-224z" />
<glyph unicode="&#xe000;" horiz-adv-x="875" vert-adv-y="1750" d="M0 875h875v-875h-875v875z" />
<glyph unicode="&#xf001;" horiz-adv-x="1138" vert-adv-y="2457" d="M52 11v14q-2 17 32 19q73 4 96 16q35 18 38 61q1 16 2 150v507h-123q-27 0 -32 5q-5 4 -5 20v44q0 16 2 18q3 6 27 6h133q2 53 2 69q4 171 30 245q53 152 200 265q161 124 301 124q102 0 164 -68q32 -34 32 -69q0 -31 -24 -55q-26 -25 -62 -25q-49 0 -110 49t-106 49 q-82 0 -165 -75q-90 -79 -106 -245q-4 -47 -4 -160q0 -31 1 -104h277h19q128 0 232 26q13 4 22 4q8 0 14 -7q8 -11 8 -56v-567q1 -71 1 -122q1 -55 18 -74q24 -26 93 -31q33 -2 33 -19v-14q0 -25 -22 -25q-10 0 -23 1q-113 13 -186 13q-64 0 -172 -12q-14 -2 -28 -2 q-25 0 -25 25v14q0 17 32 19q74 5 99 26q23 19 24 77q0 45 1 124l1 346q0 63 -4 84q-8 43 -57 60t-118 17h-239v-509v-60q1 -46 1 -59q0 -60 23 -80q26 -21 118 -26q32 -2 32 -19v-14q0 -12 -4 -18q-4 -7 -30 -7q-45 0 -111 7t-105 7q-32 0 -108 -7q-78 -7 -107 -7 q-23 0 -27 6q-5 5 -5 19z" />
<glyph unicode="&#xfb01;" horiz-adv-x="1138" vert-adv-y="2457" d="M52 11v14q-2 17 32 19q73 4 96 16q35 18 38 61q1 16 2 150v507h-123q-27 0 -32 5q-5 4 -5 20v44q0 16 2 18q3 6 27 6h133q2 53 2 69q4 171 30 245q53 152 200 265q161 124 301 124q102 0 164 -68q32 -34 32 -69q0 -31 -24 -55q-26 -25 -62 -25q-49 0 -110 49t-106 49 q-82 0 -165 -75q-90 -79 -106 -245q-4 -47 -4 -160q0 -31 1 -104h277h19q128 0 232 26q13 4 22 4q8 0 14 -7q8 -11 8 -56v-567q1 -71 1 -122q1 -55 18 -74q24 -26 93 -31q33 -2 33 -19v-14q0 -25 -22 -25q-10 0 -23 1q-113 13 -186 13q-64 0 -172 -12q-14 -2 -28 -2 q-25 0 -25 25v14q0 17 32 19q74 5 99 26q23 19 24 77q0 45 1 124l1 346q0 63 -4 84q-8 43 -57 60t-118 17h-239v-509v-60q1 -46 1 -59q0 -60 23 -80q26 -21 118 -26q32 -2 32 -19v-14q0 -12 -4 -18q-4 -7 -30 -7q-45 0 -111 7t-105 7q-32 0 -108 -7q-78 -7 -107 -7 q-23 0 -27 6q-5 5 -5 19z" />
<glyph unicode="&#xf002;" horiz-adv-x="1138" vert-adv-y="2457" d="M46 11v14q-2 17 32 19q86 6 112 26q23 20 23 83q0 12 1 56v61v508h-124q-25 0 -30 5q-5 4 -5 20v44q0 15 4 19q4 5 23 5h135q0 166 7 213q26 173 161 319q157 171 341 171q76 0 158 -45l49 33q16 12 22 12q10 0 10 -18q0 -12 -10 -77q-12 -77 -13 -183v-998l1 -62 q0 -109 4 -133q8 -49 108 -59q32 -2 32 -19v-14q0 -25 -24 -25q-15 0 -85 7q-74 7 -114 7q-44 0 -114 -7q-68 -7 -93 -7q-28 0 -28 25v14q0 8 5 12q6 6 40 7q37 1 73 17q24 11 33 30q7 14 7 58q0 57 1 149v480h-419v-509v-60q1 -46 1 -59q0 -60 23 -80q26 -21 118 -26 q32 -2 32 -19v-14q0 -12 -4 -18q-5 -7 -31 -7q-44 0 -110 7t-105 7q-32 0 -108 -7q-78 -7 -107 -7q-23 0 -27 6q-5 5 -5 19zM369 1002l1 -131h418v271q-1 179 -10 213q-12 48 -53 75q-38 25 -84 25q-86 0 -162 -64q-84 -71 -104 -207q-6 -44 -6 -129v-53z" />
<glyph unicode="&#xfb02;" horiz-adv-x="1138" vert-adv-y="2457" d="M46 11v14q-2 17 32 19q86 6 112 26q23 20 23 83q0 12 1 56v61v508h-124q-25 0 -30 5q-5 4 -5 20v44q0 15 4 19q4 5 23 5h135q0 166 7 213q26 173 161 319q157 171 341 171q76 0 158 -45l49 33q16 12 22 12q10 0 10 -18q0 -12 -10 -77q-12 -77 -13 -183v-998l1 -62 q0 -109 4 -133q8 -49 108 -59q32 -2 32 -19v-14q0 -25 -24 -25q-15 0 -85 7q-74 7 -114 7q-44 0 -114 -7q-68 -7 -93 -7q-28 0 -28 25v14q0 8 5 12q6 6 40 7q37 1 73 17q24 11 33 30q7 14 7 58q0 57 1 149v480h-419v-509v-60q1 -46 1 -59q0 -60 23 -80q26 -21 118 -26 q32 -2 32 -19v-14q0 -12 -4 -18q-5 -7 -31 -7q-44 0 -110 7t-105 7q-32 0 -108 -7q-78 -7 -107 -7q-23 0 -27 6q-5 5 -5 19zM369 1002l1 -131h418v271q-1 179 -10 213q-12 48 -53 75q-38 25 -84 25q-86 0 -162 -64q-84 -71 -104 -207q-6 -44 -6 -129v-53z" />
<glyph unicode="&#xfb03;" horiz-adv-x="1707" vert-adv-y="2457" d="M45 11v14q-2 17 32 19q73 4 96 16q35 18 38 61q1 16 2 150v507h-124q-27 0 -31 4q-5 4 -5 20v44q0 18 5 21q4 4 23 4h132v58q0 290 196 438q152 116 285 116q80 0 167 -56l72 -51q69 73 138 116q133 82 242 82q87 0 152 -49q55 -41 55 -91q0 -27 -21 -50q-27 -30 -72 -30 q-44 0 -95 40q-36 29 -44 34q-39 27 -93 27q-106 0 -181 -111q-78 -116 -78 -304v-169h309h7q114 0 189 33q33 15 41 15q9 0 15 -8q8 -10 8 -59v-581q2 -144 5 -168q9 -48 108 -59q33 -2 32 -19v-14q0 -25 -22 -25q-9 0 -71 7q-63 7 -134 7q-66 0 -173 -12q-14 -2 -28 -2 q-25 0 -25 25v14q-1 17 32 19q96 6 113 45q8 14 9 50l1 132v382q0 65 -32 93q-33 26 -80 30q-26 2 -67 2h-237v-508q0 -147 4 -167q7 -33 44 -46q19 -9 93 -13q32 -2 32 -19v-14q0 -12 -4 -18q-4 -7 -30 -7q-45 0 -110 7q-67 7 -103 7q-33 0 -108 -7q-77 -7 -106 -7 q-23 0 -29 6q-5 5 -5 19v14q1 17 33 19q87 6 112 26q23 20 23 77q0 36 1 122v509h-417v-509v-60q1 -46 1 -59q0 -60 23 -80q25 -21 118 -26q32 -2 32 -19v-14q0 -13 -4 -18q-5 -7 -32 -7q-42 0 -106 7q-65 7 -105 7q-33 0 -109 -7q-78 -7 -107 -7q-23 0 -27 6q-5 5 -5 19z M366 871h419q7 169 7 218q0 275 -181 275q-95 0 -162 -81q-83 -101 -83 -343v-69z" />
<glyph unicode="&#xfb04;" horiz-adv-x="1707" vert-adv-y="2457" d="M46 11v14q-2 17 32 19q86 6 112 26q23 20 23 83q0 12 1 56v61v508h-124q-27 0 -31 4q-5 4 -5 20v44q0 18 5 21q4 4 23 4h132v58q0 289 193 438q151 116 293 116q103 0 174 -57q21 -17 53 -49q67 71 109 102q61 45 139 71q69 24 129 24q62 0 140 -39l58 34q10 6 15 6 q14 0 14 -20q0 -9 -3 -27q-22 -150 -22 -335v-16v-906q1 -144 4 -168q9 -49 108 -59q33 -2 33 -19v-14q0 -25 -26 -25q-13 0 -81 7t-112 7t-115 -7q-69 -7 -94 -7q-27 0 -27 25v14q0 8 5 12q6 6 40 7q54 2 88 26q16 11 20 33q4 24 4 167v508h-416v-513q0 -142 4 -162 q7 -33 44 -46q20 -9 93 -13q32 -2 33 -19v-14q0 -12 -4 -18q-5 -7 -32 -7q-43 0 -106 7q-65 7 -105 7q-33 0 -109 -7q-78 -7 -106 -7q-23 0 -29 6q-5 5 -5 19v14q1 17 33 19q73 5 96 16q35 17 38 61q1 17 2 150l1 507h-418v-509v-60q1 -46 1 -59q0 -60 23 -80 q25 -21 118 -26q32 -2 32 -19v-14q0 -13 -4 -18q-5 -7 -32 -7q-42 0 -106 7q-65 7 -105 7q-33 0 -109 -7q-78 -7 -107 -7q-23 0 -27 6q-5 5 -5 19zM367 871h417q0 56 -2 167q-1 131 -5 162q-8 79 -49 119q-46 45 -116 45q-98 0 -163 -81q-82 -101 -82 -343v-69zM937 869h416 v348q-3 33 -11 131q-3 41 -15 57q-34 50 -109 50q-89 0 -166 -65q-83 -71 -105 -194q-10 -59 -10 -176v-151z" />
</font>
</defs>
</svg>
